<svg version="1.1" id="tnw-logo" xmlns="http://www.w3.org/2000/svg" x="0" y="0" viewBox="0 0 252.5 34.6" style="enable-background:new 0 0 252.5 34.6" xml:space="preserve"><style>.st0{fill:#fff}.st1{fill:#d09}</style><path id="hexagon-source_2_" class="st0" d="m91 7.1-.4-.2L78.7 0l-9.2 5.3-5.8 3.3v17.3l2.8 1.6.4.2 11.9 6.9 9.2-5.3 5.8-3.3V8.7L91 7.1z"/><path id="hexagon" class="st1" d="M78.3 21.4c.2.8.2 1.8.2 3v10.2l-7.7-4.4V18.4c.1 0 .2 0 .3-.1.3 0 .6-.1.9-.1s.7-.1 1.1-.1c1.3-.1 2.4 0 3.2.3.5.2.9.5 1.3 1 .3.5.6 1.2.7 2zM91 7.1l-.4-.2L78.7 0l-9.2 5.3-5.8 3.3v17.3l2.8 1.6.2.1V15.4l.3-.1c.8-.2 1.8-.4 3.1-.6 1.3-.2 2.8-.3 4.5-.3 1.5 0 2.8.2 3.9.7 1 .5 1.9 1.1 2.5 2 .6.8 1.1 1.8 1.3 3 .2 1.1.4 2.4.4 3.7v8.7l5.3-3.1 5.8-3.3V8.7L91 7.1z"/><g id="typo-as-paths"><path class="st0" d="M10.6 30.5c-.2.1-.7.3-1.3.5s-1.4.3-2.4.3c-.6 0-1.1-.1-1.5-.2-.4-.1-.8-.4-1-.7-.3-.3-.5-.8-.6-1.4-.1-.6-.2-1.4-.2-2.3v-8.5h7.1v-3.1H3.6V9.3L0 9.9v16.8c0 1.3.1 2.4.3 3.3.2 1 .6 1.8 1.1 2.4.5.7 1.2 1.2 2.1 1.5.8.3 1.9.5 3.2.5 1.1 0 2.1-.1 2.9-.4.9-.3 1.4-.5 1.8-.6h.1l-.7-3-.2.1zM28.5 17.3c-.6-.8-1.4-1.4-2.4-1.8s-2.3-.6-3.8-.6c-.7 0-1.4.1-2.1.2-.6.1-1.3.3-1.9.5V6l-3.6.6v27.6h3.6V18.6c.1 0 .3-.1.5-.1.3-.1.6-.1.9-.2.4-.1.7-.1 1.1-.2.4 0 .7-.1 1.1-.1.9 0 1.6.1 2.2.3.6.2 1 .6 1.4 1.1.3.5.6 1.1.8 1.9.2.8.2 1.8.2 2.9v9.9h3.6V23.5c0-1.3-.1-2.5-.4-3.5-.2-1.1-.6-2-1.2-2.7zM42.9 14.7c-1.1 0-2.2.2-3.2.6s-2 1-2.8 1.9c-.8.8-1.5 1.9-1.9 3.1-.5 1.2-.7 2.7-.7 4.4 0 1.4.2 2.8.6 3.9.4 1.2 1 2.3 1.7 3.1.8.9 1.8 1.6 3 2.1s2.6.7 4.3.7c1.3 0 2.5-.1 3.5-.4 1-.2 1.8-.5 2.2-.7h.1l-.5-3.1-.3.2c-.4.2-1 .4-1.8.6-.8.2-1.8.3-2.9.3-2 0-3.6-.5-4.5-1.5s-1.5-2.4-1.6-4.2h12.8V24.4c0-3.2-.7-5.7-2-7.3-1.5-1.6-3.5-2.4-6-2.4zm0 3.1c1.3 0 2.4.5 3.1 1.4.7.9 1.1 2.1 1.1 3.5h-9c.1-.6.2-1.2.4-1.7.2-.6.5-1.2.9-1.6.4-.5.9-.8 1.5-1.1.6-.3 1.2-.5 2-.5zM100.5 16.8c-.6-.6-1.3-1.2-2.3-1.5-.9-.4-2.1-.5-3.4-.5-1.2 0-2.3.1-3.3.3-1 .2-1.7.4-2.2.6h-.1l.4 3 .1-.1c.4-.2 1-.3 1.8-.5s1.8-.2 2.9-.2c.8 0 1.5.1 2.1.4.5.2.9.6 1.2 1 .3.4.5.9.6 1.4s.2 1.1.2 1.6v.8c-.1 0-.2 0-.4-.1-.2 0-.5-.1-.8-.2s-.7-.1-1-.1c-.4 0-.7-.1-1.1-.1-1.1 0-2.1.1-3.1.3-1 .2-1.8.6-2.6 1-.7.5-1.3 1.1-1.8 1.8-.4.8-.6 1.7-.6 2.7 0 1.1.2 2 .6 2.8s.9 1.4 1.6 1.9 1.5.8 2.3 1c.9.2 1.9.3 2.9.3.7 0 1.5 0 2.3-.1.7-.1 1.4-.1 2.1-.2.6-.1 1.2-.2 1.8-.2h.1c.5-.1.9-.1 1.1-.2h.1V22c0-1.1-.1-2-.4-2.9-.1-.9-.6-1.7-1.1-2.3zm-2 9.1v5.4c-.4.1-.9.1-1.4.2-.6 0-1.3.1-2.1.1-1.3 0-2.3-.2-3.1-.7-.7-.4-1.1-1.2-1.1-2.4 0-.6.1-1.1.4-1.5s.7-.7 1.1-.9c.5-.2 1-.4 1.5-.4.7-.2 1.2-.2 1.7-.2.8 0 1.4 0 1.9.1s.9.2 1.1.3zM117.7 30.5c-.2.1-.7.3-1.3.5-.6.2-1.4.3-2.4.3-.6 0-1.1-.1-1.5-.2-.4-.1-.8-.4-1-.7-.3-.3-.5-.8-.6-1.4-.1-.6-.2-1.4-.2-2.3v-8.5h7.1v-3.1h-7.1V9.3l-3.6.6v16.8c0 1.3.1 2.4.3 3.3.2 1 .6 1.8 1.1 2.4.5.7 1.2 1.2 2.1 1.5.8.3 1.9.5 3.2.5 1.1 0 2.1-.1 2.9-.4.9-.3 1.4-.5 1.8-.6h.1l-.7-3-.2.1zM121.8 15.2h3.6v19h-3.6zM123.6 7.4c-.6 0-1.2.2-1.6.6-.4.4-.7 1-.7 1.7s.2 1.3.7 1.7c.4.4 1 .6 1.6.6s1.2-.2 1.6-.6c.4-.4.7-1 .7-1.7s-.2-1.3-.7-1.7c-.4-.4-1-.6-1.6-.6zM142.1 15.3c-.3 1.2-.6 2.4-1 3.8-.4 1.3-.8 2.6-1.3 4-.4 1.3-.9 2.6-1.3 3.8-.4 1.1-.8 2.1-1.2 3-.4-.9-.8-1.9-1.2-3-.5-1.2-.9-2.5-1.3-3.8-.4-1.3-.9-2.6-1.3-4-.4-1.3-.7-2.6-1-3.8v-.1h-3.9v.2c.9 3.5 2 6.9 3.3 10.1s2.5 6.1 3.7 8.6v.1h3.2v-.1c1.2-2.5 2.4-5.4 3.7-8.6s2.4-6.6 3.3-10.1v-.2l-3.7.1zM156.1 14.7c-1.1 0-2.2.2-3.2.6s-2 1-2.8 1.9c-.8.8-1.5 1.9-1.9 3.1-.5 1.2-.7 2.7-.7 4.4 0 1.4.2 2.8.6 3.9.4 1.2 1 2.3 1.7 3.1.8.9 1.8 1.6 3 2.1s2.6.7 4.3.7c1.3 0 2.5-.1 3.5-.4 1-.2 1.8-.5 2.2-.7h.1l-.5-3.1-.1.1c-.4.2-1 .4-1.8.6-.8.2-1.8.3-2.9.3-2 0-3.6-.5-4.5-1.5s-1.5-2.4-1.6-4.2h12.8V24.3c0-3.2-.7-5.7-2-7.3-1.7-1.5-3.6-2.3-6.2-2.3zm0 3.1c1.3 0 2.4.5 3.1 1.4.7.9 1.1 2.1 1.1 3.5h-9c.1-.6.2-1.2.4-1.7.2-.6.5-1.1.9-1.6s.9-.8 1.5-1.1c.6-.3 1.2-.5 2-.5zM197.9 15.3c-.2 1.1-.5 2.4-.9 3.7-.3 1.3-.7 2.6-1.1 4s-.8 2.6-1.2 3.8c-.3 1.1-.7 2-1 2.9-.4-1-.7-2.1-1.1-3.3-.4-1.3-.8-2.5-1.1-3.8-.4-1.3-.7-2.6-1-3.8-.3-1.2-.6-2.4-.8-3.5v-.1h-3v.1c-.2 1.1-.5 2.3-.8 3.5s-.7 2.5-1 3.8c-.4 1.3-.7 2.6-1.1 3.8-.4 1.1-.7 2.2-1.1 3.3-.3-.8-.7-1.8-1-2.9-.4-1.2-.8-2.5-1.2-3.8s-.7-2.6-1.1-4c-.3-1.3-.6-2.5-.9-3.7v-.1h-3.9v.2c.9 3.7 1.9 7.1 3 10.3s2.1 6 3.2 8.5v.1h3.1v-.1c.7-1.7 1.4-3.7 2.1-5.9.7-2.1 1.3-4.2 1.9-6.5.6 2.2 1.2 4.4 2 6.5.8 2.2 1.5 4.2 2.1 5.9v.1h3.1v-.1c1.1-2.5 2.2-5.3 3.2-8.5 1.1-3.2 2.1-6.6 3-10.3v-.2l-3.4.1zM212.5 14.7c-1.1 0-2.2.2-3.2.6s-2 1-2.8 1.9c-.8.8-1.5 1.9-1.9 3.1-.5 1.2-.7 2.7-.7 4.4 0 1.4.2 2.8.6 3.9.4 1.2 1 2.2 1.7 3.1.8.9 1.8 1.6 3 2.1s2.6.7 4.3.7c1.3 0 2.5-.1 3.5-.4 1-.2 1.8-.5 2.2-.7h.1l-.5-3.1-.3.2c-.4.2-1 .4-1.8.6-.8.2-1.8.3-2.9.3-2 0-3.6-.5-4.5-1.5s-1.5-2.4-1.6-4.2h12.8V24.4c0-3.2-.7-5.7-2-7.3-1.4-1.6-3.4-2.4-6-2.4zm0 3.1c1.3 0 2.4.5 3.1 1.4.7.9 1.1 2.1 1.1 3.5h-9c.1-.6.2-1.2.4-1.7.2-.6.5-1.2.9-1.6.4-.5.9-.8 1.5-1.1.6-.3 1.2-.5 2-.5zM241.2 20.7c-.4-1.2-.9-2.3-1.7-3.1s-1.6-1.6-2.7-2c-1.1-.5-2.3-.7-3.6-.7-1.1 0-2.1.1-2.9.4-.7.3-1.3.5-1.7.7V6l-3.6.6v27h.1c.8.2 1.8.4 3 .7 1.2.2 2.6.3 4.2.3 1.5 0 2.8-.2 3.9-.7 1.2-.5 2.2-1.1 3-2 .8-.8 1.5-1.9 1.9-3.1.4-1.2.7-2.6.7-4.1 0-1.5-.2-2.8-.6-4zm-3.2 4c0 2.1-.5 3.8-1.6 5s-2.5 1.7-4.2 1.7c-.9 0-1.7 0-2.3-.1-.5-.1-1-.2-1.3-.2V19.3c.4-.3 1-.6 1.7-.9.8-.3 1.6-.5 2.5-.5s1.7.2 2.4.5 1.2.8 1.6 1.4c.4.6.7 1.3.9 2.1.2.9.3 1.8.3 2.8z"/></g><path id="dot" class="st1" d="M252.5 31.8c0 1.6-1.3 3-3 3-1.6 0-3-1.3-3-3s1.4-3 3-3c1.7-.1 3 1.3 3 3z"/></svg>