<?xml version="1.0" encoding="utf-8"?>
<!-- Generator: Adobe Illustrator 26.3.1, SVG Export Plug-In . SVG Version: 6.00 Build 0)  -->
<svg version="1.1" id="Livello_1" xmlns="http://www.w3.org/2000/svg" xmlns:xlink="http://www.w3.org/1999/xlink" x="0px" y="0px"
	 viewBox="0 0 488.1 389.5" style="enable-background:new 0 0 488.1 389.5;" xml:space="preserve">
<style type="text/css">
	.st0{fill:#00283D;}
	.st1{fill:#20F68E;}
	.st2{fill:#F7F8F9;}
	.st3{fill:#F9FAFA;}
	.st4{fill:#17B976;}
	.st5{fill:#0D7A5D;}
	.st6{fill:#07514D;}
</style>
<g>
	<path class="st0" d="M170.3,187.6c1.6-0.9,3-0.1,4.4,0.2c12.2,2.5,24.4,2.6,36.7,0.3c48.5-9,81.2-56.3,72.8-105.2
		C275.8,33.8,228.7,0,180,7.9c-45.2,7.4-77.3,44.6-77.6,90.3c-0.2,40.4-0.1,80.8,0,121.2c0,1.2,0,2.3,0.1,3.5
		c0.6,4.5,4.1,7.4,8.7,7.3c4.5-0.1,7.9-3.1,8.4-7.6c0.2-1.6,0.1-3.3,0.1-5c0-39.7-0.2-79.4,0.1-119.2c0.3-44.6,38.8-79,82.4-73.8
		c41.3,4.9,69.7,40.8,65.5,82.7c-4,39-40.3,68.1-80.6,64.6c-3.1-0.3-6.4-0.1-9.8-2.5c3.7-1.3,6.9-2.4,10-3.5c6-2.2,8.7-6.8,7-11.8
		c-1.7-5.1-6.7-7.2-12.7-5.2c-10.9,3.7-21.7,7.5-32.5,11.4c-6.2,2.2-8.4,7.2-5.6,13.1c4.8,10.4,9.7,20.8,14.7,31.1
		c2.5,5.1,7.4,6.9,12.1,4.8c4.6-2.1,6.3-7.1,4.3-12.2C173,193.9,170.9,191,170.3,187.6z M270.2,268.2c-42.5,0-85,0-127.5,0
		c-2,0-4,0-6,0.4c-4.3,1-6.6,3.9-6.6,8.2c-0.1,4.6,2.4,7.5,6.8,8.6c1.6,0.4,3.3,0.2,5,0.2c84.3,0,168.6,0.3,252.9-0.1
		c31.1-0.2,54.5-15.1,67.4-43.3c12.9-28.2,9-55.6-11.3-79.1c-20.4-23.5-46.7-30.7-76.9-22.8c-4.3,1.1-6.2,0.6-8.5-3.2
		c-13.2-21.2-32.1-35.2-56.1-42.2c-3.5-1-6.9-1.4-9.9,1.2c-2.7,2.2-3.6,5.2-2.9,8.5c0.9,4,3.8,5.8,7.6,7
		c23.5,6.9,40.6,21.4,51.3,43.4c3.6,7.4,7.2,8.7,14.8,5.2c12.9-6,26.2-7.2,39.9-3.3c27.3,7.7,44.9,34.5,41,62.3
		c-3.9,28.1-27.6,49-56.1,49.1C353.5,268.3,311.8,268.2,270.2,268.2z M7.8,188.4c0,39.1,23.6,74.5,59.8,89.6c4.4,1.9,9,3.4,13.7,4.6
		c4.6,1.2,9-1.6,10.2-5.8c1.4-4.6-0.9-9.1-5.5-10.8c-1.2-0.5-2.6-0.7-3.8-1.1c-45.1-13.6-68.9-63.3-50.8-106.7
		c10-23.9,27.8-39.3,52.6-46.7c5.6-1.7,8.2-4.6,7.9-9.3c-0.4-6.2-5.7-9.3-12.9-7.3C37.3,106.1,7.8,145,7.8,188.4z M119.6,263.9
		c0-6.1,0.1-12.3,0-18.4c-0.1-5.3-3.8-9.2-8.6-9.2c-4.8,0-8.5,3.8-8.6,9.1c-0.1,12.5-0.1,24.9,0,37.4c0,5.6,3.5,9,8.6,9
		c5.1,0,8.5-3.4,8.6-8.9C119.7,276.6,119.6,270.3,119.6,263.9z M119.6,318.2c0-3.6,0-7.3,0-10.9c-0.1-5.1-3.8-9.1-8.4-9.2
		c-4.6-0.1-8.6,3.9-8.7,9.1c-0.1,7.5-0.2,14.9,0,22.4c0.1,5.5,3.5,8.4,9,8.4c4.8-0.1,7.8-3.1,8-8.2
		C119.7,325.8,119.6,322,119.6,318.2z M102.5,358.9c0,2.5-0.1,5,0,7.5c0.2,5.4,3.2,8.2,8.4,8.3c5.3,0,8.4-2.8,8.5-8.1
		c0.2-4.8,0.1-9.6,0-14.4c-0.1-5.4-3.3-8.4-8.4-8.4c-5.2,0-8.3,3-8.6,8.3C102.4,354.2,102.5,356.6,102.5,358.9z"/>
	<path class="st1" d="M170.3,187.6c0.6,3.5,2.7,6.3,4,9.6c2,5.2,0.3,10.1-4.3,12.2c-4.6,2.1-9.6,0.3-12.1-4.8
		c-5-10.3-9.9-20.7-14.7-31.1c-2.7-5.9-0.6-10.9,5.6-13.1c10.8-3.9,21.7-7.7,32.5-11.4c6-2,11,0.1,12.7,5.2c1.7,5.1-1,9.6-7,11.8
		c-3.1,1.1-6.2,2.2-10,3.5c3.3,2.4,6.7,2.2,9.8,2.5c40.3,3.5,76.6-25.7,80.6-64.6c4.3-41.8-24.2-77.8-65.5-82.7
		c-43.6-5.1-82.1,29.2-82.4,73.8c-0.3,39.7-0.1,79.4-0.1,119.2c0,1.7,0.1,3.3-0.1,5c-0.5,4.5-3.9,7.5-8.4,7.6
		c-4.5,0.1-8-2.9-8.7-7.3c-0.2-1.1-0.1-2.3-0.1-3.5c0-40.4-0.2-80.8,0-121.2c0.3-45.7,32.4-83,77.6-90.3
		c48.8-8,95.9,25.9,104.3,74.9c8.4,48.9-24.4,96.2-72.8,105.2c-12.3,2.3-24.5,2.2-36.7-0.3C173.3,187.5,171.9,186.6,170.3,187.6z"/>
	<path class="st2" d="M270.2,268.2c41.7,0,83.3,0.1,125,0c28.5-0.1,52.2-21,56.1-49.1c3.9-27.8-13.6-54.6-41-62.3
		c-13.7-3.9-27-2.7-39.9,3.3c-7.6,3.5-11.2,2.2-14.8-5.2c-10.7-22-27.8-36.5-51.3-43.4c-3.8-1.1-6.8-2.9-7.6-7
		c-0.7-3.3,0.2-6.3,2.9-8.5c3-2.6,6.4-2.2,9.9-1.2c24,7,42.9,21,56.1,42.2c2.4,3.8,4.3,4.4,8.5,3.2c30.2-7.9,56.5-0.7,76.9,22.8
		c20.4,23.5,24.3,50.9,11.3,79.1c-12.9,28.2-36.3,43.2-67.4,43.3c-84.3,0.5-168.6,0.2-252.9,0.1c-1.7,0-3.4,0.2-5-0.2
		c-4.4-1.1-6.9-4-6.8-8.6c0.1-4.3,2.4-7.2,6.6-8.2c1.9-0.4,4-0.4,6-0.4C185.2,268.2,227.7,268.2,270.2,268.2z"/>
	<path class="st3" d="M7.8,188.4c0-43.5,29.5-82.3,71.1-93.6c7.2-2,12.6,1.1,12.9,7.3c0.3,4.7-2.2,7.6-7.9,9.3
		c-24.8,7.4-42.6,22.9-52.6,46.7c-18.1,43.4,5.7,93.1,50.8,106.7c1.3,0.4,2.6,0.6,3.8,1.1c4.7,1.8,6.9,6.2,5.5,10.8
		c-1.3,4.3-5.6,7-10.2,5.8c-4.7-1.2-9.3-2.7-13.7-4.6C31.4,262.9,7.8,227.6,7.8,188.4z"/>
	<path class="st4" d="M119.6,263.9c0,6.3,0.1,12.6,0,18.9c-0.1,5.5-3.5,8.9-8.6,8.9c-5.1,0-8.5-3.4-8.6-9c-0.1-12.5-0.1-24.9,0-37.4
		c0.1-5.3,3.8-9.1,8.6-9.1c4.7,0,8.5,3.8,8.6,9.2C119.7,251.6,119.6,257.8,119.6,263.9z"/>
	<path class="st5" d="M119.6,318.2c0,3.8,0.1,7.6,0,11.4c-0.2,5.1-3.3,8.1-8,8.2c-5.5,0.1-8.9-2.9-9-8.4c-0.2-7.4-0.1-14.9,0-22.4
		c0.1-5.2,4.1-9.2,8.7-9.1c4.6,0.1,8.3,4.1,8.4,9.2C119.6,310.9,119.6,314.5,119.6,318.2z"/>
	<path class="st6" d="M102.5,358.9c0-2.3-0.1-4.7,0-7c0.2-5.3,3.4-8.3,8.6-8.3c5.1,0,8.3,3,8.4,8.4c0.1,4.8,0.2,9.6,0,14.4
		c-0.2,5.3-3.2,8.1-8.5,8.1c-5.2,0-8.2-2.9-8.4-8.3C102.4,363.9,102.5,361.4,102.5,358.9z"/>
</g>
</svg>
