<svg xmlns="http://www.w3.org/2000/svg" viewBox="0 0 308.387 85.582"><path fill="#fff" fill-rule="evenodd" d="M28.133 84.617h13.484V.961H29.934v50.082L16.46.961H0v83.656h11.816V24.035ZM63.086 20.2c0-5.977 2.621-8.247 6.785-8.247 4.188 0 6.805 2.27 6.805 8.246v45.184c0 5.972-2.617 8.25-6.805 8.25-4.164 0-6.785-2.278-6.785-8.25zM49.957 64.53c0 13.399 7.035 21.051 19.914 21.051 12.879 0 19.91-7.652 19.91-21.05V21.046C89.781 7.657 82.75 0 69.871 0 56.992 0 49.957 7.656 49.957 21.047ZM98.25 84.617h20.734c13.125 0 19.567-7.285 19.567-20.683v-42.29c0-13.398-6.442-20.683-19.567-20.683H98.25Zm20.504-71.699c4.18 0 6.687 2.152 6.687 8.129V64.53c0 5.98-2.507 8.14-6.687 8.14h-7.402V12.919Zm41.215 0h22.652V.961H146.84v83.656h35.781V72.672H159.97v-24.5h18.004V36.215H159.97zm0 0"/><path fill="#c5c930" fill-rule="evenodd" d="M209.965 84.617c2.14.235 3.933.235 6.324.235 9.887 0 18.832-4.301 18.832-21.036V.961h-13.11v63.824c0 6.457-3.347 7.996-7.515 7.996-1.422 0-3.105 0-4.531-.11zm32.465-63.57c0 23.902 25.64 27.125 25.64 44.336 0 5.972-2.625 8.113-6.812 8.113-4.16 0-6.797-2.14-6.797-8.113v-6.578h-12.399v5.726c0 13.399 6.668 21.051 19.56 21.051 12.886 0 19.55-7.652 19.55-21.05 0-23.903-25.633-27.118-25.633-44.333 0-5.976 2.383-8.246 6.55-8.246 4.18 0 6.571 2.27 6.571 8.246v4.067h12.402v-3.22C281.062 7.657 274.508 0 261.738 0c-12.754 0-19.308 7.656-19.308 21.047" style="fill:#689f63;fill-opacity:1"/><path d="M303.173 81.282h1.934c.978 0 1.312.42 1.312 1.092 0 .671-.334 1.09-1.312 1.09h-7.335c-.961 0-1.33-.419-1.33-1.09 0-.672.369-1.092 1.33-1.092h1.467v-2.004h-1.313c-2.193 0-3.417 1.074-3.417 3.16 0 2.07 1.224 3.144 3.417 3.144h7.048c2.172 0 3.413-1.074 3.413-3.144 0-2.086-1.241-3.16-3.413-3.16h-1.8zm-5.401-5.083c-.961 0-1.33-.42-1.33-1.098 0-.672.369-1.095 1.33-1.095h7.335c.978 0 1.343.423 1.343 1.095 0 .678-.365 1.098-1.343 1.098zm7.202 2.117c2.172 0 3.413-1.129 3.413-3.215 0-2.063-1.241-3.192-3.413-3.192h-7.048c-2.193 0-3.417 1.129-3.417 3.192 0 2.086 1.224 3.215 3.417 3.215zm3.263-12.35v-2.168h-13.578v1.889h8.126l-8.126 2.165v2.639h13.578v-1.9h-9.84zm-11.641-5.67v-3.478h-1.937v5.585h13.578v-2.107h-5.596v-2.738h-1.96v2.738zm0-6.864v-3.648h-1.937v5.769h13.578v-5.77h-1.947v3.65h-3.976V50.52h-1.937v2.912zm11.641-11.323c-.505.218-.99.235-1.65.235h-2.101c-1.415 0-2.441.337-2.878 1.394-.457-.94-1.36-1.377-2.762-1.377h-1.074c-2.086 0-3.113.944-3.113 3.127v3.198h13.578v-2.118h-5.538v-.726c0-.955.474-1.398 1.732-1.398h2.138c1.098 0 1.313-.065 1.668-.18zm-11.641 3.45c0-.76.44-1.077 1.395-1.077h1.346c1.078 0 1.43.47 1.43 1.261v.825h-4.171zm0-6.662v-3.652h-1.937v5.772h13.578v-5.772h-1.947v3.652h-3.976v-2.895h-1.937v2.895zm11.641-9.66v-2.169h-13.578v1.883h8.126l-8.126 2.168v2.646h13.578v-1.903h-9.84zm-5.064-7.689h1.934c.978 0 1.312.423 1.312 1.095 0 .671-.334 1.09-1.312 1.09h-7.335c-.961 0-1.33-.419-1.33-1.09 0-.672.369-1.095 1.33-1.095h1.467v-2.001h-1.313c-2.193 0-3.417 1.077-3.417 3.147 0 2.083 1.224 3.16 3.417 3.16h7.048c2.172 0 3.413-1.077 3.413-3.16 0-2.07-1.241-3.147-3.413-3.147h-1.8zm-6.577-5.653v-3.652h-1.937v5.773h13.578v-5.773h-1.947v3.652h-3.976v-2.912h-1.937v2.912zm0 0" fill="#fff" fill-rule="evenodd"/><path fill="#fff" d="M202.297 77.473c.039-.203.062-.407.062-.621 0-2.043-1.66-3.7-3.699-3.7a3.704 3.704 0 0 0-3.367 2.168c-.434-.476-1.035-.785-1.727-.785a2.32 2.32 0 0 0-2.254 2.828 3.932 3.932 0 0 0-3.296 3.88 3.924 3.924 0 0 0 3.933 3.933h9.254a3.923 3.923 0 0 0 3.926-3.934c0-1.793-1.188-3.3-2.832-3.77"/><path d="M294.264 7.676V6.571q.356-.548.692-1.152.336-.605.605-1.214.273-.615.433-1.188.16-.574.16-1.054 0-.341-.067-.635-.067-.295-.304-.295-.238 0-.305.295-.067.289-.067.635v.527h-1.116v-.527q0-.455.077-.816.083-.367.259-.62.175-.258.46-.393.284-.134.692-.134t.692.134q.284.135.46.383.175.247.253.599.082.346.082.775 0 .511-.155 1.105-.15.589-.403 1.214-.247.62-.557 1.224-.31.6-.63 1.137h1.766v1.105Zm5.217.083q-.475 0-.81-.217-.331-.217-.507-.59-.17-.376-.17-.836V1.643q0-.465.175-.837.181-.372.517-.59.336-.216.795-.216.465 0 .796.222.336.217.511.589.181.372.181.832v4.473q0 .46-.18.837-.182.372-.517.589-.331.217-.79.217zm0-1.085q.197 0 .284-.165.088-.17.088-.393V1.643q0-.228-.088-.393-.087-.165-.284-.165-.196 0-.284.175-.088.17-.088.383v4.473q0 .222.088.393.088.165.284.165zm2.19 1.002V6.571q.357-.548.693-1.152.335-.605.604-1.214.274-.615.434-1.188.16-.574.16-1.054 0-.341-.067-.635-.067-.295-.305-.295-.237 0-.305.295-.067.289-.067.635v.527h-1.116v-.527q0-.455.078-.816.083-.367.258-.62.176-.258.46-.393.284-.134.692-.134t.692.134q.284.135.46.383.176.247.253.599.083.346.083.775 0 .511-.155 1.105-.15.589-.403 1.214-.248.62-.558 1.224-.31.6-.63 1.137h1.767v1.105Zm5.218.083q-.352 0-.61-.109-.253-.113-.423-.315-.166-.206-.264-.485-.098-.285-.14-.63-.04-.347-.04-.734h1.095q0 .33.02.63.02.294.104.48.082.181.258.181.175 0 .258-.14.088-.144.114-.36.03-.223.03-.46 0-.62-.087-.946-.083-.33-.3-.465-.211-.134-.604-.16v-.93q.393-.02.584-.144.19-.124.253-.408.062-.29.062-.801 0-.253-.02-.475-.016-.228-.089-.367-.072-.14-.242-.14-.16 0-.243.186-.083.181-.114.476-.026.294-.026.63h-1.095q0-.496.067-.91.067-.418.233-.722.165-.305.45-.47.288-.171.727-.171.352 0 .62.134.274.13.455.362.186.232.279.537.093.305.093.651 0 .517-.072.935-.073.413-.217.702-.14.285-.362.43.367.278.553.8.19.522.19 1.183 0 .522-.17.986-.165.46-.495.75-.331.289-.832.289z" style="-inkscape-font-specification:&quot;League Gothic&quot;;fill:#689f63;stroke-width:.258279px;font-family:League Gothic;font-size:10.3312px;line-height:1.25"/></svg>