<svg width="1000" height="259" viewBox="0 0 1000 259" fill="none" xmlns="http://www.w3.org/2000/svg">
<path d="M38.5507 190.846C38.4806 190.911 38.4105 190.974 38.3404 191.041C38.4105 190.976 38.4806 190.913 38.5507 190.846ZM81.5036 149.57C82.0511 149.126 82.6119 148.7 83.1575 148.272C82.6062 148.702 82.0549 149.123 81.5036 149.57ZM69.6779 160.88C69.4657 161.091 69.2498 161.305 69.0376 161.515C69.2498 161.303 69.4638 161.091 69.6779 160.88ZM68.4882 241.574C67.9975 238.292 64.9605 236.037 61.7076 236.53C61.2018 236.608 60.7262 236.754 60.2753 236.947C61.5636 238.326 62.7913 239.639 63.911 240.838C65.7941 242.858 67.2207 243.852 68.3006 244.192C68.545 243.368 68.6227 242.481 68.4882 241.574ZM75.8598 226.129C72.6069 226.624 70.3732 229.688 70.8601 232.967C71.3565 236.247 74.3896 238.504 77.6425 238.009C80.8955 237.514 83.1329 234.452 82.6422 231.171C82.1515 227.887 79.1127 225.634 75.8598 226.129ZM93.6893 174.058C94.1515 177.135 96.9971 179.255 100.047 178.786C103.098 178.324 105.197 175.449 104.736 172.374C104.681 171.992 104.585 171.625 104.46 171.279C103.664 169.085 101.584 167.6 99.2516 167.587C98.9636 167.585 98.6719 167.6 98.3782 167.646C95.328 168.11 93.2289 170.981 93.6893 174.058ZM98.0334 191.144C101.125 190.672 103.251 187.763 102.783 184.646C102.313 181.527 99.4297 179.383 96.3397 179.853C93.2478 180.325 91.1222 183.236 91.5901 186.353C92.0562 189.47 94.9434 191.616 98.0334 191.144ZM96.0195 203.502C99.1493 203.023 101.303 200.074 100.83 196.916C100.356 193.757 97.4329 191.584 94.3031 192.062C91.1733 192.54 89.0173 195.487 89.491 198.648C89.9646 201.805 92.8879 203.978 96.0195 203.502ZM94.0038 215.854C97.1752 215.371 99.3558 212.386 98.8765 209.186C98.3972 205.987 95.4379 203.785 92.2665 204.269C89.0931 204.754 86.9125 207.739 87.3918 210.939C87.8711 214.14 90.8323 216.338 94.0038 215.854ZM96.9232 221.458C96.4382 218.219 93.4392 215.988 90.226 216.477C87.0167 216.969 84.8077 219.994 85.2927 223.232C85.7777 226.473 88.7748 228.704 91.9861 228.212C95.1973 227.721 97.4082 224.698 96.9232 221.458ZM88.1894 228.686C84.9346 229.181 82.6991 232.243 83.1897 235.525C83.6804 238.806 86.7174 241.063 89.9703 240.566C93.2232 240.07 95.4606 237.01 94.9681 233.728C94.4774 230.447 91.4423 228.191 88.1894 228.686ZM106.809 175.86C107.197 178.446 109.588 180.226 112.148 179.834C114.124 179.532 115.62 178.026 116.026 176.166C113.061 175.394 110.149 174.297 107.341 172.873C106.862 173.752 106.646 174.792 106.809 175.86ZM110.128 192.155C112.712 191.76 114.491 189.329 114.101 186.72C113.709 184.115 111.299 182.32 108.713 182.714C106.129 183.11 104.35 185.541 104.74 188.149C105.134 190.758 107.546 192.549 110.128 192.155ZM102.675 200.437C103.069 203.067 105.502 204.875 108.109 204.477C110.714 204.079 112.508 201.627 112.112 198.998C111.72 196.368 109.287 194.56 106.68 194.957C104.075 195.355 102.281 197.809 102.675 200.437ZM104.649 207.199C102.018 207.6 100.212 210.075 100.608 212.728C101.006 215.379 103.457 217.202 106.089 216.802C108.717 216.401 110.526 213.926 110.128 211.273C109.73 208.62 107.275 206.797 104.649 207.199ZM102.614 219.442C99.964 219.843 98.1414 222.341 98.5412 225.013C98.9428 227.687 101.417 229.527 104.068 229.122C106.716 228.717 108.541 226.223 108.141 223.547C107.739 220.877 105.265 219.037 102.614 219.442ZM100.582 231.683C97.9103 232.092 96.0669 234.609 96.4742 237.304C96.8796 239.999 99.3729 241.855 102.046 241.447C104.717 241.037 106.557 238.523 106.153 235.827C105.75 233.13 103.255 231.274 100.582 231.683ZM123.712 181.038C125.5 180.765 126.821 179.32 127.031 177.592C124.411 177.588 121.787 177.351 119.19 176.877C119.175 177.149 119.186 177.424 119.228 177.703C119.553 179.874 121.56 181.367 123.712 181.038ZM121.734 193.424C123.966 193.084 125.498 190.986 125.163 188.734C124.826 186.485 122.744 184.939 120.512 185.279C118.282 185.619 116.75 187.719 117.085 189.969C117.424 192.218 119.504 193.768 121.734 193.424ZM119.756 205.815C122.066 205.463 123.657 203.288 123.307 200.96C122.956 198.629 120.802 197.025 118.491 197.379C116.181 197.732 114.594 199.907 114.944 202.235C115.295 204.563 117.449 206.166 119.756 205.815ZM121.452 213.179C121.092 210.771 118.862 209.114 116.473 209.477C114.084 209.842 112.441 212.091 112.803 214.499C113.163 216.908 115.389 218.566 117.78 218.201C120.169 217.838 121.81 215.589 121.452 213.179ZM114.451 221.58C111.985 221.955 110.287 224.279 110.661 226.767C111.034 229.256 113.336 230.966 115.804 230.59C118.269 230.213 119.966 227.893 119.593 225.405C119.22 222.916 116.918 221.202 114.451 221.58ZM112.432 233.68C109.886 234.066 108.133 236.465 108.52 239.032C108.906 241.602 111.28 243.368 113.828 242.98C116.373 242.59 118.125 240.192 117.738 237.625C117.352 235.058 114.978 233.289 112.432 233.68ZM132.859 179.427C133.067 180.818 134.355 181.776 135.735 181.565C137.116 181.355 138.063 180.056 137.855 178.662C137.709 177.693 137.032 176.944 136.172 176.644C135.801 176.516 135.396 176.461 134.979 176.524C134.505 176.596 134.09 176.803 133.747 177.091C133.092 177.644 132.722 178.511 132.859 179.427ZM133.798 194.235C135.413 193.99 136.523 192.471 136.278 190.846C136.034 189.218 134.528 188.098 132.917 188.344C131.307 188.591 130.195 190.11 130.439 191.735C130.684 193.363 132.188 194.483 133.798 194.235ZM131.866 206.904C133.711 206.625 134.981 204.884 134.7 203.024C134.422 201.161 132.7 199.882 130.854 200.163C129.007 200.444 127.738 202.184 128.016 204.043C128.297 205.905 130.019 207.185 131.866 206.904ZM128.791 211.982C126.713 212.3 125.281 214.253 125.595 216.353C125.91 218.45 127.85 219.893 129.928 219.576C132.008 219.258 133.44 217.301 133.126 215.205C132.811 213.106 130.87 211.665 128.791 211.982ZM126.728 223.799C124.415 224.151 122.823 226.328 123.176 228.661C123.526 230.995 125.682 232.599 127.995 232.245C130.309 231.893 131.898 229.716 131.55 227.383C131.197 225.049 129.041 223.446 126.728 223.799ZM124.667 235.616C122.117 236.004 120.368 238.401 120.755 240.97C121.141 243.538 123.515 245.304 126.061 244.914C128.607 244.525 130.36 242.13 129.973 239.561C129.587 236.992 127.211 235.226 124.667 235.616ZM147.778 182.909C148.536 182.79 149.063 182.076 148.947 181.309C148.832 180.543 148.121 180.012 147.361 180.13C146.6 180.245 146.077 180.963 146.193 181.73C146.308 182.496 147.019 183.024 147.778 182.909ZM145.798 195.617C146.835 195.458 147.549 194.481 147.392 193.434C147.236 192.389 146.268 191.668 145.228 191.825C144.192 191.983 143.478 192.96 143.637 194.007C143.794 195.055 144.762 195.775 145.798 195.617ZM143.101 203.523C141.788 203.722 140.882 204.961 141.083 206.285C141.28 207.608 142.508 208.521 143.821 208.319C145.132 208.12 146.037 206.883 145.836 205.559C145.636 204.234 144.412 203.325 143.101 203.523ZM140.967 215.218C139.378 215.461 138.285 216.959 138.525 218.561C138.766 220.166 140.249 221.269 141.841 221.026C143.43 220.783 144.523 219.289 144.283 217.683C144.042 216.082 142.557 214.977 140.967 215.218ZM138.836 226.917C136.972 227.199 135.687 228.958 135.97 230.84C136.252 232.723 137.991 234.019 139.861 233.736C141.725 233.451 143.01 231.695 142.727 229.81C142.445 227.926 140.702 226.632 138.836 226.917ZM136.705 238.613C134.562 238.942 133.09 240.96 133.414 243.118C133.738 245.281 135.738 246.766 137.879 246.438C140.02 246.113 141.496 244.096 141.17 241.935C140.848 239.773 138.846 238.286 136.705 238.613ZM159.905 183.803C160.176 183.761 160.36 183.507 160.322 183.232C160.28 182.959 160.028 182.771 159.757 182.813C159.486 182.854 159.299 183.11 159.339 183.383C159.378 183.656 159.63 183.844 159.905 183.803ZM158.81 195.382C158.723 194.802 158.187 194.401 157.611 194.489C157.041 194.577 156.641 195.12 156.728 195.699C156.815 196.28 157.351 196.677 157.925 196.589C158.499 196.5 158.895 195.961 158.81 195.382ZM155.468 206.166C154.589 206.298 153.985 207.128 154.117 208.015C154.252 208.898 155.072 209.507 155.949 209.375C156.827 209.242 157.431 208.414 157.298 207.527C157.166 206.64 156.345 206.035 155.468 206.166ZM153.324 217.842C152.141 218.024 151.329 219.138 151.509 220.327C151.687 221.519 152.789 222.341 153.97 222.161C155.152 221.98 155.965 220.868 155.786 219.675C155.608 218.482 154.506 217.662 153.324 217.842ZM151.179 229.52C149.696 229.747 148.674 231.148 148.898 232.644C149.121 234.141 150.51 235.173 151.994 234.946C153.479 234.72 154.5 233.321 154.276 231.825C154.051 230.326 152.664 229.294 151.179 229.52ZM149.036 241.197C147.248 241.47 146.016 243.154 146.287 244.958C146.558 246.763 148.225 248.005 150.016 247.732C151.804 247.456 153.036 245.776 152.765 243.968C152.494 242.166 150.827 240.926 149.036 241.197ZM170.018 197.203C169.747 197.243 169.562 197.499 169.603 197.772C169.643 198.046 169.895 198.233 170.166 198.191C170.439 198.151 170.624 197.897 170.585 197.621C170.543 197.348 170.287 197.159 170.018 197.203ZM167.785 208.85C167.173 208.942 166.752 209.519 166.845 210.136C166.938 210.753 167.51 211.176 168.12 211.084C168.73 210.988 169.152 210.415 169.058 209.796C168.967 209.18 168.395 208.76 167.785 208.85ZM165.549 220.499C164.598 220.644 163.942 221.54 164.086 222.502C164.23 223.461 165.119 224.124 166.074 223.975C167.025 223.832 167.68 222.934 167.534 221.974C167.39 221.015 166.502 220.355 165.549 220.499ZM163.315 232.149C162.021 232.346 161.133 233.564 161.328 234.867C161.523 236.171 162.73 237.067 164.022 236.872C165.314 236.673 166.204 235.458 166.009 234.152C165.814 232.849 164.607 231.951 163.315 232.149ZM161.082 243.798C159.449 244.049 158.325 245.585 158.573 247.235C158.82 248.88 160.345 250.015 161.976 249.765C163.609 249.515 164.734 247.978 164.486 246.329C164.238 244.681 162.715 243.55 161.082 243.798ZM58.432 231.301C58.0549 232.06 57.5302 232.74 56.8993 233.308C54.0101 230.177 51.0471 226.907 48.4819 223.935C48.3038 223.774 48.1257 223.612 47.9495 223.453C47.0231 222.628 46.1118 221.794 45.2195 220.946C45.1191 220.85 45.0186 220.759 44.9201 220.667L44.4067 222.765C44.4067 222.765 43.1374 234.244 37.6451 222.888C37.2852 222.144 36.9119 221.366 36.533 220.567C33.6401 214.482 30.2564 207.015 27.5529 200.842C27.5529 200.842 26.6303 198.724 26.2059 197.738C25.5997 196.773 25.0029 195.8 24.4269 194.822L23.0004 197.663C23.0004 197.663 19.1355 206.835 17.3433 196.108C15.9072 187.517 13.5637 174.964 12.3682 166.677C12.1428 165.884 11.923 165.089 11.7108 164.292L8.84249 167.457C8.84249 167.457 2.80272 174.874 4.31077 162.65C5.41718 153.723 6.56905 141.304 7.63189 133.416C7.62999 132.774 7.63378 132.136 7.64136 131.495L4.86208 132.933C4.86208 132.933 -2.91878 138.12 1.20563 127.444C4.29561 119.447 8.77997 108.033 11.9836 100.677C12.1485 100.085 12.3095 99.496 12.4819 98.9073L9.72345 99.4845C9.72345 99.4845 1.07679 101.893 6.76608 94.1025C11.8548 87.1361 19.7418 76.8194 25.0237 70.3767C25.3287 69.8722 25.6338 69.3657 25.9483 68.8611L19.594 68.1368C19.594 68.1368 13.666 67.164 21.9735 60.9831C29.5176 55.368 40.3903 47.962 46.7503 43.635L40.0796 41.85C40.0796 41.85 33.7518 40.3611 40.7787 37.6052C49.755 34.0847 65.5327 27.8102 73.8345 25.0408L66.0366 19.3512C66.0366 19.3512 61.9444 16.664 69.8522 16.2817C79.5541 15.8097 96.2241 14.9726 104.786 14.6056L104.732 14.6266C104.772 14.619 104.808 14.6113 104.846 14.6037L99.2308 7.81698C99.2308 7.81698 94.2406 2.54012 102.294 4.61379C112.15 7.15188 128.935 10.8539 137.389 12.876L133.107 4.63864C133.107 4.63864 128.786 -2.89154 135.657 1.23668C144.785 6.71995 161.377 15.6893 169.243 20.1023L166.17 6.81551C166.17 6.81551 163.493 -2.69469 170.562 5.40503C178.464 14.4565 191.546 29.3525 197.73 35.6366C205.264 41.4371 210.667 50.072 212.198 60.2702C215.324 81.1197 201.106 100.578 180.438 103.731C169.438 105.411 158.829 102.13 150.838 95.5512C141.841 89.7564 131.199 87.4553 120.546 89.0799C108.891 90.8592 98.6207 97.1089 91.6242 106.68C82.8923 118.631 80.9864 133.563 85.1657 146.728C85.7038 148.419 86.3441 150.08 87.083 151.705C87.1114 151.77 87.1398 151.829 87.1702 151.894C88.9321 155.728 91.2472 159.338 94.0966 162.591C93.1436 163.782 91.7947 164.651 90.2052 164.966C91.8459 165.941 93.0565 167.625 93.3634 169.67C93.9033 173.28 91.4423 176.646 87.8673 177.192C87.8541 177.194 87.8427 177.194 87.8276 177.196C89.5857 178.119 90.8986 179.845 91.2169 181.972C91.7493 185.516 89.3337 188.82 85.8213 189.355C85.6716 189.38 85.5219 189.39 85.3723 189.399C87.2838 190.252 88.7388 192.033 89.0742 194.271C89.5952 197.748 87.2232 200.995 83.7789 201.52C83.4341 201.572 83.0988 201.587 82.7654 201.583C84.9005 202.302 86.5715 204.171 86.9296 206.572C87.4411 209.981 85.1146 213.165 81.7328 213.683C78.5387 214.173 75.5491 212.103 74.797 208.997C73.8989 210.65 72.3625 211.929 70.4585 212.433C71.8945 213.446 72.9327 215.023 73.215 216.909C73.2321 217.028 73.2396 217.144 73.251 217.265C74.0732 215.438 75.7613 214.05 77.8699 213.729C81.1891 213.223 84.2829 215.526 84.7849 218.87C85.2889 222.219 83.006 225.342 79.6886 225.846C76.3713 226.351 73.2756 224.052 72.7755 220.705C72.7641 220.644 72.7641 220.585 72.7565 220.522C71.8832 222.59 70.0095 224.168 67.6432 224.531C67.5958 224.539 67.5466 224.539 67.4954 224.545C69.2346 225.447 70.5361 227.142 70.8506 229.242C71.3716 232.709 69.0035 235.949 65.5668 236.473C62.185 236.989 59.025 234.682 58.432 231.301ZM64.8184 211.48C63.6931 210.725 62.7951 209.651 62.2551 208.359C61.431 209.395 60.3379 210.216 59.0534 210.687C60.0631 211.556 60.8304 212.718 61.2188 214.073C62.0695 212.848 63.3217 211.915 64.8184 211.48ZM66.1181 199.085C65.3281 198.443 64.6707 197.639 64.197 196.71C63.5036 197.467 62.6568 198.082 61.7 198.514C62.4162 199.229 62.9921 200.095 63.3691 201.073C64.0966 200.205 65.0306 199.517 66.1181 199.085ZM67.5068 186.703C66.9801 186.204 66.5178 185.631 66.1446 184.994C65.599 185.522 64.9795 185.976 64.2955 186.332C64.7768 186.877 65.1841 187.49 65.4986 188.167C66.0764 187.576 66.7509 187.075 67.5068 186.703ZM68.9713 174.343C68.6511 174.003 68.3631 173.634 68.1036 173.242C67.7171 173.582 67.2984 173.888 66.8513 174.157C67.1374 174.519 67.3912 174.909 67.6167 175.32C68.0278 174.945 68.4825 174.618 68.9713 174.343ZM70.4679 161.975C70.1781 161.633 69.9147 161.268 69.6779 160.88C69.4657 161.091 69.2498 161.305 69.0376 161.515C69.2933 161.824 69.532 162.157 69.7442 162.505C69.9735 162.316 70.2141 162.138 70.4679 161.975ZM80.8576 201.266C79.0199 200.655 77.5232 199.208 76.8734 197.306C76.0227 198.652 74.7496 199.72 73.2055 200.284C74.3631 201.28 75.2005 202.659 75.515 204.265C76.4319 202.738 77.9911 201.618 79.88 201.329C80.2077 201.278 80.5336 201.264 80.8576 201.266ZM82.3031 188.885C80.8348 188.239 79.6299 187.052 78.9725 185.531C78.192 186.64 77.1215 187.538 75.8541 188.109C76.7502 189.006 77.4266 190.135 77.7714 191.425C78.73 190.124 80.1774 189.189 81.8939 188.927C82.0284 188.906 82.1648 188.897 82.3031 188.885ZM83.8964 176.527C82.7047 175.91 81.7177 174.928 81.0849 173.706C80.3858 174.622 79.4916 175.384 78.4534 175.929C79.143 176.713 79.6792 177.644 80.0107 178.685C80.9788 177.565 82.3239 176.768 83.8964 176.527ZM85.5769 164.194C84.6106 163.629 83.7922 162.828 83.2049 161.851C82.5911 162.602 81.8503 163.244 81.0034 163.749C81.5301 164.414 81.9659 165.161 82.2652 165.987C83.1443 165.1 84.2791 164.462 85.5769 164.194ZM38.5507 190.846C38.4806 190.911 38.4105 190.974 38.3404 191.041C38.4105 190.976 38.4806 190.913 38.5507 190.846ZM51.964 209.488C51.174 208.846 50.5147 208.041 50.0411 207.113C49.3477 207.869 48.5027 208.487 47.546 208.919C48.2602 209.632 48.8342 210.495 49.2131 211.478C49.9425 210.61 50.8766 209.92 51.964 209.488ZM53.3508 197.107C52.8222 196.61 52.3638 196.037 51.9886 195.401C51.4449 195.928 50.8235 196.381 50.1415 196.738C50.6208 197.281 51.0281 197.895 51.3445 198.571C51.9242 197.981 52.5968 197.478 53.3508 197.107ZM54.8153 184.746C54.4989 184.405 54.209 184.038 53.9476 183.647C53.5592 183.987 53.1424 184.293 52.6972 184.558C52.9833 184.921 53.2371 185.311 53.4626 185.722C53.8737 185.348 54.3246 185.023 54.8153 184.746ZM59.0477 226.903C59.9457 225.168 61.6167 225.112 63.6817 223.201L63.7007 223.201C62.1282 223.201 60.8835 221.342 60.3284 219.566C59.4095 220.965 58.0019 222.031 56.3044 222.481C57.7253 223.486 58.754 225.042 59.0477 226.903ZM81.0584 243.959C80.5544 240.603 77.4512 238.294 74.1244 238.804C71.294 239.236 69.2232 241.57 68.9769 244.328C71.1234 244.465 71.5592 241.535 71.6388 239.941C73.3647 240.857 75.1039 241.721 76.8563 242.541C78.2185 243.445 79.6489 244.374 81.1095 245.304C81.1399 244.865 81.1266 244.416 81.0584 243.959ZM92.6435 245.966C92.1755 242.841 89.2883 240.693 86.1888 241.165C83.8131 241.528 82.0113 243.334 81.5112 245.562C84.5595 247.506 87.7215 249.452 90.6618 251.21C92.1338 249.971 92.9523 248.016 92.6435 245.966ZM104.23 247.972C103.795 245.079 101.118 243.091 98.2551 243.531C95.3868 243.968 93.4146 246.667 93.8503 249.557C94.2841 252.45 96.9611 254.436 99.8238 253.998C101.12 253.8 102.226 253.14 103.018 252.21C102.935 251.833 102.836 251.474 102.738 251.16C103.033 251.221 103.331 251.275 103.624 251.332C104.168 250.346 104.409 249.176 104.23 247.972ZM115.812 249.979C115.414 247.321 112.951 245.49 110.318 245.891C107.679 246.294 105.865 248.779 106.265 251.435C106.286 251.577 106.316 251.715 106.35 251.854C107.356 252.032 108.364 252.2 109.376 252.351C111.083 252.873 112.866 253.4 114.669 253.918C115.571 252.878 116.033 251.455 115.812 249.979ZM127.397 251.988C127.035 249.559 124.784 247.888 122.38 248.255C119.974 248.624 118.316 250.889 118.682 253.316C118.792 254.056 119.08 254.721 119.489 255.285C121.296 255.789 123.07 256.277 124.763 256.739C126.569 255.967 127.706 254.037 127.397 251.988ZM134.443 250.619C132.268 250.952 130.769 253.001 131.097 255.199C131.426 257.393 133.457 258.905 135.636 258.576C135.913 258.534 136.18 258.459 136.432 258.367C137.786 257.272 136.519 254.792 135.598 253.354C136.644 253.28 137.684 253.184 138.726 253.079C138.05 251.397 136.301 250.335 134.443 250.619ZM175.707 234.881C174.667 235.037 173.953 236.018 174.108 237.067C174.268 238.116 175.238 238.835 176.278 238.678C177.318 238.518 178.032 237.541 177.873 236.49C177.718 235.442 176.744 234.722 175.707 234.881ZM188.086 237.508C187.342 237.623 186.832 238.323 186.942 239.07C186.997 239.433 187.194 239.737 187.459 239.945C187.742 240.167 188.107 240.28 188.488 240.22C188.996 240.144 189.38 239.783 189.547 239.328C189.621 239.12 189.666 238.894 189.632 238.657C189.519 237.91 188.825 237.396 188.086 237.508ZM190.157 225.938C189.799 225.992 189.551 226.332 189.606 226.695C189.657 227.06 189.996 227.308 190.356 227.257C190.716 227.199 190.964 226.863 190.909 226.498C190.858 226.131 190.521 225.883 190.157 225.938ZM177.837 223.142C177.053 223.262 176.513 224 176.63 224.791C176.748 225.582 177.481 226.127 178.265 226.009C179.049 225.89 179.589 225.149 179.472 224.357C179.354 223.568 178.621 223.021 177.837 223.142ZM179.968 211.671C179.663 211.717 179.455 212.003 179.5 212.309C179.546 212.613 179.83 212.827 180.135 212.777C180.434 212.733 180.647 212.447 180.597 212.141C180.552 211.835 180.271 211.625 179.968 211.671Z" fill="#D93232"/>
<path d="M347.336 108.075L347.336 112.171C347.336 114.568 345.772 116.118 343.432 116.118C341.015 116.118 339.531 114.568 339.531 112.171L339.531 106.758C339.531 103.59 337.813 102.04 335.078 102.04C332.348 102.04 330.708 103.59 330.708 106.758L330.708 139.547C330.708 142.717 332.348 144.264 335.078 144.264C337.81 144.264 339.531 142.717 339.531 139.547L339.531 134.133C339.531 131.736 341.015 130.189 343.432 130.189C345.775 130.189 347.336 131.736 347.336 134.133L347.336 138.232C347.336 146.117 343.042 151.299 335 151.299C326.804 151.299 322.429 146.275 322.429 138.232L322.429 108.072C322.429 100.03 326.801 95.0029 335 95.0029C343.042 95.0029 347.336 100.184 347.336 108.075Z" fill="white"/>
<path d="M374.976 107.918C374.976 100.11 379.973 95.0029 387.937 95.0029C395.899 95.0029 400.896 100.11 400.896 107.918L400.896 138.387C400.896 146.197 395.899 151.301 387.937 151.301C379.973 151.301 374.976 146.197 374.976 138.387L374.976 107.918V107.918ZM392.622 106.758C392.622 103.974 390.823 102.04 387.937 102.04C385.048 102.04 383.252 103.974 383.252 106.758L383.252 139.547C383.252 142.331 385.048 144.264 387.937 144.264C390.823 144.264 392.622 142.331 392.622 139.547L392.622 106.758Z" fill="white"/>
<path d="M434.394 96.0874L441.577 96.0874C451.259 96.0874 455.79 101.733 455.79 110.394L455.79 135.914C455.79 144.575 451.259 150.22 441.577 150.22L434.394 150.22C431.973 150.22 430.258 148.519 430.258 146.122L430.258 100.186C430.258 97.7859 431.973 96.0874 434.394 96.0874ZM441.658 143.028C445.562 143.028 447.514 140.706 447.514 137.148L447.514 109.154C447.514 105.597 445.565 103.277 441.658 103.277L438.535 103.277L438.535 143.028L441.658 143.028Z" fill="white"/>
<path d="M485.148 99.4131C485.148 97.0158 486.788 95.3145 489.286 95.3145C491.704 95.3145 493.422 97.0158 493.422 99.4131L493.422 146.893C493.422 149.29 491.704 150.991 489.286 150.991C486.788 150.991 485.148 149.29 485.148 146.893L485.148 99.4131Z" fill="white"/>
<path d="M547.686 108.075L547.686 112.171C547.686 114.568 546.122 116.118 543.782 116.118C541.364 116.118 539.881 114.568 539.881 112.171L539.881 106.758C539.881 103.59 538.163 102.04 535.428 102.04C532.698 102.04 531.058 103.59 531.058 106.758L531.058 139.547C531.058 142.717 532.698 144.264 535.428 144.264C538.16 144.264 539.881 142.717 539.881 139.547L539.881 134.133C539.881 131.736 541.364 130.189 543.782 130.189C546.125 130.189 547.686 131.736 547.686 134.133L547.686 138.232C547.686 146.117 543.392 151.299 535.35 151.299C527.154 151.299 522.779 146.275 522.779 138.232L522.779 108.072C522.779 100.03 527.151 95.0029 535.35 95.0029C543.392 95.0029 547.686 100.184 547.686 108.075Z" fill="white"/>
<path d="M576.42 100.183C576.42 97.786 578.137 96.0874 580.555 96.0874L596.174 96.0874C598.36 96.0874 599.841 97.6341 599.841 99.7193C599.841 101.885 598.36 103.354 596.174 103.354L584.696 103.354L584.696 119.13L593.595 119.13C595.705 119.13 597.264 120.677 597.264 122.762C597.264 124.927 595.703 126.396 593.595 126.396L584.696 126.396L584.696 142.946L596.255 142.946C598.438 142.946 599.925 144.492 599.925 146.577C599.925 148.668 598.438 150.212 596.255 150.212L580.558 150.212C578.14 150.212 576.422 148.511 576.422 146.114L576.422 100.183L576.42 100.183Z" fill="white"/>
<path d="M635.921 128.877L635.921 146.892C635.921 149.29 634.2 150.991 631.782 150.991C629.362 150.991 627.644 149.29 627.644 146.892L627.644 100.183C627.644 97.786 629.362 96.0874 631.782 96.0874L639.122 96.0874C647.633 96.0874 652.549 100.341 652.549 109.311L652.549 115.495C652.549 123.615 647.086 128.877 638.966 128.877L635.921 128.877ZM644.272 109.154C644.272 105.522 642.396 103.354 638.885 103.354L635.921 103.354L635.921 121.602L638.732 121.602C642.245 121.602 644.272 119.514 644.272 115.802L644.272 109.154V109.154Z" fill="white"/>
<path d="M680.264 99.4131C680.264 97.0158 681.981 95.3145 684.402 95.3145C686.819 95.3145 688.54 97.0158 688.54 99.4131L688.54 142.952L698.688 142.952C700.799 142.952 702.357 144.498 702.357 146.583C702.357 148.674 700.796 150.218 698.688 150.218L684.402 150.218C681.981 150.218 680.264 148.517 680.264 146.119L680.264 99.4131V99.4131Z" fill="white"/>
<path d="M754.985 146.045C755.612 149.213 753.345 150.994 751.084 150.994C749.21 150.994 747.333 149.757 746.948 147.127L745.618 137.693L737.422 137.693L736.17 147.127C735.783 149.757 734.062 150.994 732.035 150.994C729.771 150.994 727.506 149.213 728.134 146.045L737.191 99.1811C737.735 96.5518 739.065 95.3145 741.561 95.3145C744.056 95.3145 745.387 96.5518 745.93 99.1811L754.985 146.045ZM738.435 130.575L744.681 130.575L741.87 109.85C741.792 109.154 741.636 108.226 741.558 107.221C741.48 108.226 741.324 109.234 741.246 109.85L738.435 130.575Z" fill="white"/>
<path d="M781.612 136.528C781.612 133.899 783.093 132.584 785.435 132.584C787.934 132.584 789.42 134.131 789.42 136.528L789.42 138.384C789.42 141.787 790.513 144.419 794.024 144.419C797.225 144.419 798.556 142.096 798.556 138.31C798.556 132.507 795.354 129.494 791.682 126.169C785.985 121.065 781.219 115.883 781.219 108.15C781.219 99.4141 785.985 95.0034 793.556 95.0034C800.817 95.0034 805.583 99.6461 805.583 107.145L805.583 109.849C805.583 112.169 804.018 113.638 801.679 113.638C799.414 113.638 797.775 112.169 797.775 109.849L797.775 107.374C797.775 104.049 796.369 102.035 793.558 102.035C790.513 102.035 789.342 104.201 789.342 107.526C789.342 112.552 792.153 115.568 795.747 118.894C800.198 123.07 806.679 128.947 806.679 137.531C806.679 145.574 801.679 151.293 793.868 151.293C786.141 151.293 781.612 145.88 781.612 138.691L781.612 136.528V136.528Z" fill="white"/>
<path d="M848.06 103.357L848.06 146.896C848.06 149.293 846.339 150.994 843.921 150.994C841.423 150.994 839.783 149.293 839.783 146.896L839.783 103.357L833.927 103.357C831.819 103.357 830.257 101.888 830.257 99.7227C830.257 97.6347 831.822 96.0908 833.927 96.0908L853.916 96.0908C856.099 96.0908 857.585 97.6374 857.585 99.7227C857.585 101.888 856.099 103.357 853.916 103.357L848.06 103.357Z" fill="white"/>
<path d="M883.898 99.4131C883.898 97.0158 885.537 95.3145 888.03 95.3145C890.454 95.3145 892.171 97.0158 892.171 99.4131L892.171 146.893C892.171 149.29 890.454 150.991 888.03 150.991C885.535 150.991 883.898 149.29 883.898 146.893L883.898 99.4131Z" fill="white"/>
<path d="M946.436 108.075L946.436 112.171C946.436 114.568 944.872 116.118 942.533 116.118C940.115 116.118 938.629 114.568 938.629 112.171L938.629 106.758C938.629 103.59 936.914 102.04 934.178 102.04C931.448 102.04 929.805 103.59 929.805 106.758L929.805 139.547C929.805 142.717 931.448 144.264 934.178 144.264C936.911 144.264 938.629 142.717 938.629 139.547L938.629 134.133C938.629 131.736 940.115 130.189 942.533 130.189C944.875 130.189 946.436 131.736 946.436 134.133L946.436 138.232C946.436 146.117 942.142 151.299 934.1 151.299C925.904 151.299 921.529 146.275 921.529 138.232L921.529 108.072C921.529 100.03 925.901 95.0029 934.1 95.0029C942.142 95.0029 946.436 100.184 946.436 108.075Z" fill="white"/>
<path d="M974.08 107.918C974.08 100.11 979.075 95.0029 987.039 95.0029C995.003 95.0029 1000 100.11 1000 107.918L1000 138.387C1000 146.197 995.003 151.301 987.039 151.301C979.075 151.301 974.08 146.197 974.08 138.387L974.08 107.918ZM991.726 106.758C991.726 103.974 989.928 102.04 987.039 102.04C984.15 102.04 982.354 103.974 982.354 106.758L982.354 139.547C982.354 142.331 984.15 144.264 987.039 144.264C989.928 144.264 991.726 142.331 991.726 139.547L991.726 106.758Z" fill="white"/>
</svg>
