<svg width="135" height="36" xmlns="http://www.w3.org/2000/svg"><path d="M.487 13.645v21.63H8.28v-21.63H.487zm-.487-9C0 7.065 1.948 9 4.383 9 6.82 9 8.767 7.065 8.767 4.645 8.767 2.225 6.819.29 4.383.29 1.948.29 0 2.226 0 4.645zm11.424 30.63h7.793V23.66c0-1.306.487-2.71 1.266-3.435.633-.58 1.656-1.016 2.874-1.016.78 0 1.753.145 2.484.919 1.023 1.065.974 2.952.974 4.21v10.935h7.793V21.532c0-2.37-.195-4.21-2.046-6.048-1.802-1.79-4.189-2.323-6.429-2.323-1.9 0-4.773.387-6.916 3.194v-2.71h-7.793v21.63zm42.79-6.969c-1.412 1.21-2.873 1.452-3.994 1.452-1.996 0-3.263-.87-3.993-1.645-.926-1.016-1.364-2.42-1.364-3.63 0-1.257.438-2.66 1.51-3.725.779-.774 1.948-1.5 3.799-1.5 1.656 0 3.02.677 4.042 1.403v-6.484c-1.948-.967-3.701-1.21-5.065-1.21-3.702 0-6.721 1.356-8.767 3.291-2.192 2.13-3.507 5.177-3.507 8.371 0 3.194 1.315 6.097 3.36 8.08 1.56 1.5 4.336 3.291 8.573 3.291 1.607 0 3.312-.194 5.406-1.21v-6.484zM68.707 19.5c-1.267 0-2.63.58-3.507 1.403-.974.92-1.51 2.274-1.51 3.532 0 1.307.633 2.565 1.51 3.436a4.996 4.996 0 003.507 1.452c1.266 0 2.532-.533 3.458-1.452.974-.92 1.51-2.177 1.51-3.436 0-1.16-.536-2.564-1.51-3.532-.877-.822-2.24-1.403-3.458-1.403zm13.053 4.935c0 2.904-.974 5.662-3.36 7.984C75.525 35.226 72.164 36 68.657 36c-3.166 0-6.673-.629-9.692-3.58-2.387-2.323-3.36-5.081-3.36-7.985 0-3.87 1.752-6.387 3.36-7.935 1.802-1.742 4.968-3.58 9.692-3.58 4.822 0 7.939 1.886 9.741 3.58 1.607 1.548 3.36 4.065 3.36 7.935zM108.72 0v35.274h-7.792v-2.37C98.736 35.71 95.863 36 94.353 36c-3.117 0-5.601-1.016-7.647-3-2.192-2.129-3.507-5.177-3.507-8.613 0-3.677 1.559-6.677 3.556-8.564 2.143-2.033 5.016-2.904 7.695-2.904 2.971 0 5.066 1.307 6.478 2.807V0h7.793zM96.156 29.42c1.266 0 2.533-.581 3.36-1.307 1.023-.92 1.657-2.371 1.657-3.678 0-1.21-.682-2.66-1.462-3.483-.876-.92-2.094-1.452-3.555-1.452-1.656 0-2.776.726-3.458 1.403-.877.871-1.51 2.226-1.51 3.678 0 1.113.487 2.37 1.51 3.387 1.071 1.064 2.338 1.451 3.458 1.451zM135 25.064v.822h-16.219c0 1.161.439 2.71 1.364 3.63.487.483 1.461 1.064 3.214 1.064.195 0 1.559-.049 2.533-.581a3.613 3.613 0 001.364-1.452h7.452c-.341 1.21-1.023 2.904-2.63 4.452-1.608 1.548-4.14 3-8.865 3-2.873 0-6.331-.629-9.01-3.29-1.413-1.404-3.215-4.065-3.215-8.178 0-3.629 1.364-6.532 3.264-8.37 1.802-1.743 4.627-3.146 8.913-3.146 2.532 0 5.796.532 8.377 2.952C134.61 18.87 135 22.645 135 25.065zm-15.975-3.63h8.815c-.194-.822-.682-1.741-1.266-2.322-1.023-1.016-2.435-1.161-3.215-1.161-1.315 0-2.337.338-3.165 1.16-.536.582-1.023 1.356-1.17 2.323z" fill="#FFF" fill-rule="evenodd"/></svg>