<?xml version="1.0" encoding="UTF-8"?><svg id="Livello_1" xmlns="http://www.w3.org/2000/svg" viewBox="0 0 563.03 128.67"><g fill="none" opacity=".8"><path d="m86.66,64.34c0,17.56,9.31,32.95,23.26,41.5,4.89-5.79,8.78-12.45,11.4-19.72-7.16-4.61-11.9-12.64-11.9-21.78s4.74-17.18,11.9-21.78c-2.62-7.27-6.51-13.93-11.4-19.72-13.95,8.55-23.26,23.94-23.26,41.5Z" fill="#9e9e9e"/></g><g fill="none" opacity=".8"><path d="m99.22,25.89c-13.88,0-25.21-10.93-25.86-24.65-4.07-.81-8.28-1.24-12.58-1.24-3.74,0-7.4.34-10.96.95.51,26.43,22.07,47.7,48.62,47.7,8.32,0,16.15-2.09,22.99-5.77-2.54-7.17-6.3-13.76-11.05-19.5-3.38,1.62-7.16,2.52-11.16,2.52Z" fill="#2fac66"/></g><g fill="none" opacity=".8"><path d="m49.83,127.73c3.56.61,7.21.95,10.94.95,4.31,0,8.51-.43,12.58-1.24.65-13.72,11.98-24.65,25.86-24.65,4,0,7.78.91,11.16,2.52,4.6-5.57,8.29-11.92,10.82-18.84-6.79-3.61-14.54-5.66-22.77-5.66-26.29,0-47.69,20.85-48.6,46.92Z" fill="#e8412b"/></g><g fill="none" opacity=".8"><path d="m22.33,80.81c-7.96,0-15.47,1.92-22.1,5.31,2.58,7.16,6.39,13.73,11.18,19.45,3.52-1.79,7.49-2.8,11.71-2.8,13.93,0,25.29,11,25.86,24.79,3.83.71,7.77,1.1,11.8,1.1,3.46,0,6.85-.28,10.16-.81-.84-26.13-22.27-47.05-48.6-47.05Z" fill="#fdc300"/></g><g fill="none" opacity=".5"><path d="m34.09,64.34c0-17.35-9.09-32.56-22.75-41.17C6.49,28.99,2.65,35.68.08,42.98c6.8,4.67,11.26,12.49,11.26,21.36S6.88,81.03.08,85.7c2.57,7.3,6.41,13.99,11.26,19.81,13.67-8.61,22.75-23.83,22.75-41.17Z" fill="#9e9e9e"/></g><g fill="none" opacity=".8"><path d="m70.95.81c-3.32-.53-6.71-.81-10.18-.81-4.17,0-8.24.41-12.19,1.17-.61,13.76-11.95,24.72-25.86,24.72-4.11,0-7.99-.96-11.44-2.66C6.4,29.1,2.56,35.86,0,43.21c6.69,3.46,14.27,5.43,22.33,5.43,26.59,0,48.19-21.34,48.62-47.84Z" fill="#009fe3"/></g><path d="m185.72,75.53v-41.77h12.21v43.75c0,5.65-1.75,10.34-5.24,14.07-1.69,1.8-3.81,3.2-6.36,4.19-2.55.99-5.34,1.48-8.38,1.48-2.66,0-5.1-.36-7.32-1.08-2.3-.74-4.44-1.96-6.4-3.66-1.96-1.7-3.57-3.8-4.83-6.31l8.13-5.99c2.16,3.74,5.21,5.62,9.15,5.62,2.77,0,4.97-.86,6.59-2.59,1.64-1.71,2.46-4.28,2.46-7.7Z" fill="#fff"/><path d="m237,52.33h11.94v44.01h-9.75l-.86-5.51c-3.02,4.27-7.56,6.4-13.61,6.4-3.56,0-6.55-.76-8.96-2.29-4.68-2.95-7.02-8.24-7.02-15.85v-26.76h11.93v26.11c0,2.61.65,4.62,1.96,6.03,1.3,1.41,3.21,2.12,5.71,2.12,2.77,0,4.91-.85,6.4-2.57,1.51-1.69,2.27-4,2.27-6.94v-24.76Z" fill="#fff"/><path d="m274.83,87.87l-1.54,9.37c-3.67,0-6.84-.93-9.51-2.78-1.31-.92-2.34-2.11-3.08-3.58s-1.11-3.1-1.11-4.9V31.76h11.88v49.42c0,1.89.22,3.31.67,4.27.47.94,1.36,1.75,2.67,2.43Z" fill="#fff"/><path d="m296.57,38.59c0,1.98-.7,3.67-2.11,5.08-1.39,1.4-3.07,2.11-5.05,2.11s-3.67-.7-5.08-2.11c-1.4-1.4-2.11-3.1-2.11-5.08s.7-3.68,2.11-5.05c1.4-1.4,3.1-2.11,5.08-2.11s3.66.7,5.05,2.11c1.4,1.4,2.11,3.09,2.11,5.05Zm-1.24,57.76h-11.91v-44.01h11.91v44.01Z" fill="#fff"/><path d="m345.9,88.73l-1.38,8.43c-1.64,0-3.15-.12-4.52-.35-1.38-.23-2.62-.59-3.73-1.07-1.11-.48-2.02-1.11-2.73-1.9-.71-.79-1.17-1.72-1.36-2.78-1.39,2.12-3.28,3.68-5.67,4.67-2.43,1.01-4.97,1.51-7.62,1.51-2.86,0-5.47-.54-7.83-1.62-2.38-1.1-4.28-2.7-5.7-4.81-1.44-2.14-2.16-4.63-2.16-7.45,0-4.37,1.69-7.88,5.08-10.53,3.37-2.65,7.99-3.97,13.88-3.97,2.86,0,5.84.31,8.94.94v-1.78c0-2.41-.82-4.17-2.46-5.27-1.62-1.13-3.83-1.7-6.62-1.7-2.14,0-4.28.28-6.4.84-2.14.56-4.1,1.31-5.86,2.27l-3.51-7.75c2.38-1.67,5.17-2.92,8.37-3.75,3.17-.81,6.39-1.21,9.67-1.21,6.03,0,10.63,1.33,13.81,4,3.18,2.66,4.77,6.58,4.77,11.75v15.04c0,1.82.21,3.2.62,4.13.41.9,1.21,1.69,2.4,2.38Zm-14.8-8.61v-2.38c-2.45-.56-4.91-.84-7.37-.84-3.02,0-5.3.49-6.83,1.47-1.53.98-2.29,2.41-2.29,4.28s.63,3.11,1.89,4c1.28.86,2.83,1.3,4.67,1.3,1.62,0,3.17-.3,4.64-.89,1.51-.63,2.76-1.55,3.75-2.75,1.03-1.22,1.54-2.62,1.54-4.19Z" fill="#fff"/><path d="m384.68,97.24c-4.45,0-8.65-.83-12.61-2.48-3.92-1.64-7.29-3.89-10.1-6.75-2.79-2.84-5-6.26-6.62-10.23-1.62-4-2.43-8.24-2.43-12.75s.82-8.85,2.46-12.83c1.64-4,3.88-7.4,6.72-10.21,2.81-2.81,6.19-5.03,10.15-6.67,3.92-1.64,8.11-2.46,12.56-2.46s8.58.8,12.45,2.4,7.25,3.85,10.13,6.75c2.88,2.88,5.12,6.29,6.71,10.23,1.59,3.94,2.39,8.17,2.39,12.69,0,3.6-.51,7.06-1.54,10.38-1.03,3.32-2.51,6.3-4.46,8.95-2.84,4.01-6.53,7.19-11.07,9.52-4.54,2.33-9.45,3.48-14.74,3.44Zm22.74-32.19c0-3.47-.58-6.7-1.73-9.67-1.19-3.04-2.76-5.62-4.73-7.72-2.03-2.18-4.45-3.86-7.24-5.05-2.81-1.24-5.82-1.86-9.05-1.86-4.28,0-8.17,1.05-11.67,3.16-3.44,2.05-6.16,4.95-8.16,8.7-1.96,3.69-2.94,7.84-2.94,12.45,0,3.42.57,6.64,1.7,9.67,1.19,3.04,2.76,5.62,4.73,7.72,2.02,2.16,4.43,3.85,7.24,5.08,2.83,1.24,5.86,1.86,9.1,1.86s6.26-.62,9.07-1.86c2.81-1.22,5.22-2.92,7.24-5.08,2-2.16,3.56-4.74,4.7-7.75,1.15-2.97,1.73-6.18,1.73-9.64Z" fill="#fff"/><path d="m434.69,71.78v24.57h-8.64v-44.01h7.16l.78,6.32c1.35-2.27,3.26-4.04,5.72-5.32,2.45-1.26,5.08-1.89,7.91-1.89s5.65.69,8.1,2.08c2.43,1.37,4.26,3.36,5.48,5.97,1.6-2.61,3.72-4.6,6.36-5.98,2.64-1.38,5.6-2.07,8.9-2.07,2.63,0,4.93.44,6.9,1.32,1.97.88,3.56,2.14,4.77,3.77s2.11,3.54,2.7,5.72c.59,2.19.89,4.65.89,7.38v26.71h-8.64v-26.3c0-3.51-.75-6.19-2.25-8.05-1.5-1.85-3.79-2.79-6.85-2.81-3.53-.02-6.21,1.13-8.05,3.43-1.84,2.29-2.75,5.34-2.75,9.15v24.57h-8.61v-26.3c0-3.47-.76-6.15-2.27-8.03-1.51-1.88-3.78-2.82-6.8-2.82-3.47,0-6.14,1.17-7.99,3.51-1.87,2.36-2.81,5.38-2.81,9.07Z" fill="#fff"/><path d="m511.94,41.94c-1.1,1.1-2.43,1.65-4,1.65s-2.93-.55-4.02-1.65c-1.1-1.1-1.65-2.44-1.65-4.02s.55-2.9,1.65-4c1.12-1.12,2.46-1.67,4.02-1.67s2.88.56,4,1.67,1.67,2.45,1.67,4-.56,2.91-1.67,4.02Zm.3,54.41h-8.61v-44.01h8.61v44.01Z" fill="#fff"/><path d="m528.87,96.35h-9.83l16.71-22.68-15.55-21.33h10.34l10.34,14.85,10.5-14.85h9.67l-15.2,20.9,17.17,23.11h-10.4l-11.88-16.61-11.88,16.61Z" fill="#fff"/></svg>