<?xml version="1.0" encoding="utf-8"?>
<!-- Generator: Adobe Illustrator 27.5.0, SVG Export Plug-In . SVG Version: 6.00 Build 0)  -->
<svg version="1.1" id="Layer_1" xmlns="http://www.w3.org/2000/svg" xmlns:xlink="http://www.w3.org/1999/xlink" x="0px" y="0px"
	 viewBox="0 0 800 315" style="enable-background:new 0 0 800 315;" xml:space="preserve">
<style type="text/css">
	.st0{fill:#FFFFFF;}
	.st1{fill:#FFC107;}
	.st2{fill:#C6002B;}
</style>
<path class="st0" d="M71.6,190.2c-8,0.1-15.9-1.3-23.4-4c-7.7-2.9-14.7-7.2-20.7-12.8l11-13.3c4.7,4.1,9.9,7.5,15.6,10.2
	c5.6,2.5,11.7,3.7,17.9,3.6c4.8,0.3,9.6-1,13.7-3.6c1.6-1.1,2.9-2.5,3.8-4.2s1.3-3.6,1.3-5.5v-0.4c0-1.7-0.3-3.5-1-5.1
	c-0.9-1.6-2.1-3-3.6-4c-2.3-1.5-4.7-2.8-7.3-3.6c-3.9-1.4-7.9-2.5-12-3.4c-5.1-1.1-10.2-2.6-15.1-4.4c-4-1.4-7.7-3.5-11.1-6.1
	c-2.9-2.3-5.3-5.3-6.8-8.7c-1.6-3.9-2.4-8.1-2.3-12.4v-0.3c0-4.2,0.8-8.4,2.6-12.2s4.3-7.2,7.5-9.9c3.4-2.8,7.2-4.9,11.4-6.3
	c4.7-1.5,9.6-2.3,14.5-2.3c7.1-0.1,14.2,1,20.9,3.4c6.3,2.3,12.2,5.7,17.5,9.9l-10,14c-4.4-3.3-9.3-6-14.4-8.1
	c-4.6-1.8-9.4-2.8-14.3-2.8c-4.5-0.3-8.9,1-12.6,3.6c-1.4,1-2.5,2.4-3.3,3.9c-0.8,1.6-1.2,3.3-1.2,5v0.3c0,1.8,0.3,3.7,1.1,5.4
	c0.9,1.7,2.3,3.1,4,4c2.4,1.5,4.9,2.7,7.5,3.6c3.3,1.1,7.4,2.3,12.5,3.5c5,1.2,10,2.8,14.8,4.7c3.9,1.5,7.5,3.6,10.7,6.3
	c2.8,2.4,5,5.4,6.5,8.8c1.5,3.6,2.3,7.5,2.2,11.4v0.3c0.1,4.6-0.9,9.1-2.8,13.3c-1.8,3.9-4.4,7.3-7.7,10c-3.5,2.8-7.6,4.9-11.9,6.2
	C82,189.6,76.8,190.3,71.6,190.2z"/>
<path class="st0" d="M124.5,108.9H143v13.3c2.9-4.2,6.6-7.8,10.8-10.6c4.8-3,10.5-4.5,16.2-4.3c4.8,0,9.5,1,13.9,2.8
	s8.4,4.5,11.7,7.9c3.6,3.7,6.5,8.1,8.4,13c2.2,5.6,3.3,11.7,3.2,17.7v0.3c0.1,6-0.9,12-3.1,17.7c-1.8,4.8-4.6,9.2-8.1,13
	c-3.4,3.5-7.6,6.3-12.1,8.1c-4.4,1.8-9.1,2.7-13.8,2.7c-5.7,0.2-11.3-1.2-16.2-4c-4.2-2.7-7.9-6.2-10.8-10.2v36.4h-18.5L124.5,108.9
	L124.5,108.9z M165.8,174.5c3,0,6.1-0.6,8.9-1.8c2.7-1.2,5.2-2.9,7.3-5.1c2.2-2.3,3.8-5.1,4.9-8.1c1.3-3.4,1.9-7,1.8-10.6v-0.3
	c0-3.6-0.6-7.1-1.8-10.5c-1.1-3-2.8-5.7-4.9-8.1c-2.1-2.2-4.6-4-7.4-5.2c-2.8-1.2-5.8-1.8-8.8-1.8s-6,0.6-8.8,1.9
	c-2.8,1.2-5.3,3-7.4,5.2c-2.2,2.4-3.9,5.1-5.1,8.1c-1.3,3.3-1.9,6.9-1.9,10.4v0.3c0,3.6,0.6,7.1,1.9,10.5c1.1,3,2.9,5.7,5.1,8.1
	c2.1,2.2,4.6,3.9,7.4,5.1C159.8,173.8,162.8,174.5,165.8,174.5z"/>
<path class="st0" d="M221.3,108.9h18.4v18c2.2-5.7,5.9-10.7,10.8-14.5c5-3.7,11.3-5.4,17.5-4.9v19.4h-1.1c-3.8,0-7.5,0.6-11,1.9
	c-3.3,1.3-6.2,3.3-8.6,5.9c-2.6,2.9-4.5,6.2-5.6,9.9c-1.4,4.5-2.1,9.1-2,13.8v30.4h-18.4L221.3,108.9L221.3,108.9z"/>
<path class="st0" d="M315.7,190.5c-5.5,0.1-11-1-16.2-3c-4.9-1.9-9.3-4.8-13-8.4c-3.7-3.7-6.7-8.2-8.7-13.1
	c-2.2-5.4-3.2-11.1-3.2-16.9v-0.3c-0.1-5.5,0.9-11,2.9-16.2c1.8-4.9,4.6-9.4,8.1-13.3c3.4-3.7,7.5-6.8,12.1-8.9
	c4.9-2.2,10.3-3.3,15.7-3.3c5.8-0.1,11.5,1.1,16.7,3.5c4.7,2.2,8.8,5.4,12.1,9.4c3.3,4,5.8,8.7,7.4,13.7c1.6,5.3,2.5,10.8,2.4,16.4
	c0,0.8,0,1.7,0,2.5s0,1.7-0.2,2.7H293c0.6,5.8,3.4,11.2,7.8,15c4.3,3.5,9.7,5.4,15.2,5.2c4.1,0.1,8.1-0.7,11.8-2.4
	c3.6-1.8,6.9-4.2,9.7-7.1l10.8,9.5c-3.8,4.5-8.4,8.2-13.7,10.9C328.8,189.3,322.3,190.7,315.7,190.5z M333.9,143.2
	c-0.3-2.8-1-5.5-2-8.1c-0.9-2.5-2.3-4.7-4-6.7c-1.7-1.9-3.8-3.4-6.1-4.4c-3.7-1.6-7.7-2.1-11.7-1.4c-3.9,0.7-7.6,2.6-10.4,5.4
	c-3.8,4.2-6.2,9.5-6.7,15.2H333.9z"/>
<path class="st0" d="M414.8,188.7v-9.8c-2.9,3.3-6.5,6.1-10.4,8.1c-4.8,2.3-10.1,3.5-15.4,3.3c-3.7,0-7.3-0.5-10.9-1.5
	c-3.3-1-6.3-2.6-9-4.7c-2.6-2.1-4.7-4.8-6.2-7.8c-1.6-3.3-2.4-7-2.3-10.6v-0.3c-0.1-4,0.7-7.9,2.4-11.6c1.6-3.2,3.9-5.9,6.7-8.1
	c3.1-2.3,6.6-3.9,10.3-4.9c4.2-1.1,8.5-1.6,12.9-1.6c4.1-0.1,8.3,0.3,12.3,0.9c3.3,0.6,6.5,1.4,9.7,2.4V141c0.2-2.4-0.2-4.7-1.1-6.9
	s-2.2-4.2-4-5.8c-4.2-3.2-9.4-4.7-14.6-4.4c-4.1,0-8.2,0.4-12.1,1.4c-3.6,1-7.2,2.2-10.7,3.6l-5-14.7c4.4-2,8.9-3.6,13.6-4.8
	c5.5-1.3,11.1-2,16.8-1.9c11.9,0,20.7,2.9,26.4,8.8c3,3.4,5.3,7.3,6.8,11.6c1.5,4.3,2.1,8.8,1.8,13.3v47.3L414.8,188.7z
	 M415.2,155.3c-2.6-1-5.3-1.8-8.1-2.3c-3.3-0.6-6.7-0.9-10.1-0.9c-4.7-0.3-9.4,0.9-13.4,3.3c-1.5,1-2.8,2.3-3.6,3.9
	c-0.9,1.6-1.3,3.4-1.2,5.2v0.3c-0.1,1.7,0.3,3.4,1.1,5c0.8,1.5,1.9,2.8,3.4,3.8c3.3,2.1,7.1,3.2,11,3c2.8,0,5.7-0.4,8.4-1.2
	c2.3-0.7,4.6-1.8,6.5-3.2s3.4-3.2,4.5-5.3s1.6-4.5,1.6-6.9L415.2,155.3L415.2,155.3z"/>
<path class="st0" d="M450.1,78.4h18.4v65.9l33.1-35.4h22.2L492,141.2l32.8,47.3h-21.2l-24-34.5l-11.2,11.6v22.9H450V78.4H450.1z"/>
<path class="st0" d="M570.1,190.5c-5.5,0.1-11-1-16.2-3c-4.9-1.9-9.4-4.8-13.1-8.5c-3.7-3.7-6.7-8.1-8.6-13
	c-2.2-5.4-3.2-11.1-3.2-16.9v-0.3c-0.1-5.5,0.9-11,2.9-16.2c1.8-4.9,4.6-9.4,8.1-13.3c3.4-3.7,7.5-6.8,12.1-8.9
	c4.9-2.2,10.3-3.3,15.7-3.3c5.8-0.1,11.5,1.1,16.7,3.5c4.6,2.2,8.7,5.4,11.9,9.4c3.3,4.1,5.7,8.7,7.2,13.7
	c1.6,5.3,2.5,10.8,2.4,16.4c0,0.8,0,1.7,0,2.5s0,1.7-0.2,2.7h-58.4c0.6,5.8,3.4,11.2,7.8,15c4.3,3.5,9.7,5.4,15.2,5.2
	c4.1,0.1,8.1-0.7,11.8-2.4c3.7-1.8,7.1-4.2,10-7.1l10.7,9.5c-3.8,4.5-8.5,8.2-13.7,10.9C583.3,189.3,576.7,190.7,570.1,190.5z
	 M588.2,143.2c-0.3-2.8-1-5.5-2-8.1c-0.9-2.5-2.3-4.7-4-6.7c-1.7-2-3.8-3.6-6.1-4.7c-2.5-1.1-5.3-1.7-8.1-1.7
	c-2.6-0.1-5.2,0.4-7.6,1.4c-2.4,1-4.6,2.5-6.4,4.4c-3.8,4.2-6.2,9.5-6.7,15.2L588.2,143.2z"/>
<path class="st0" d="M620.5,108.9h18.4v18c2.2-5.7,5.9-10.7,10.7-14.5c5-3.6,11.2-5.4,17.3-4.9v19.4h-1.1c-3.8,0-7.5,0.6-11,1.9
	c-3.3,1.3-6.2,3.3-8.6,5.9c-2.5,2.8-4.4,6.1-5.6,9.7c-1.4,4.5-2.1,9.1-2,13.8v30.4h-18.2L620.5,108.9L620.5,108.9z"/>
<path class="st1" d="M704,114.6l-38.8,38.8l38.8-11.9l30.2,34l1.9-44.5l40.2-16.4L737,98.1l-4.9-42l-25.5,32.1l-41.2-7.4L704,114.6z
	"/>
<path class="st2" d="M538.5,213c-3.5,0-7,0.9-10.1,2.6s-5.7,4.1-7.7,7c-1.9-2.9-4.6-5.3-7.7-7c-3.1-1.7-6.6-2.6-10.1-2.6
	c-5.6,0-11,2.2-15,6.2s-6.2,9.4-6.2,15c0,7.5,4.7,12.9,9.6,17.8l19.3,18.2c0.2,0.2,0.5,0.4,0.8,0.4c0.3,0.1,0.6,0,0.9-0.1
	c0.3-0.1,0.5-0.3,0.7-0.6c0.2-0.3,0.3-0.6,0.2-0.9v-14.2c0-2,0.8-3.9,2.2-5.3s3.3-2.2,5.3-2.2s3.9,0.8,5.3,2.2
	c1.4,1.4,2.2,3.3,2.2,5.3V269c0,0.3,0.1,0.6,0.2,0.9c0.2,0.3,0.4,0.5,0.7,0.6s0.6,0.2,0.9,0.1c0.3-0.1,0.6-0.2,0.8-0.4l19.3-18.2
	c4.9-5,9.7-10.3,9.7-17.8c0-2.8-0.5-5.6-1.6-8.1c-1.1-2.6-2.6-4.9-4.6-6.9s-4.3-3.5-6.9-4.6C544,213.6,541.3,213,538.5,213z
	 M501.4,250.7c-0.1,0.2-0.3,0.3-0.5,0.4s-0.4,0.1-0.6,0.1c-0.4,0-0.7-0.1-1-0.4c-2.8-2.1-5-4.7-6.7-7.7c-1.6-3-2.6-6.3-2.9-9.8
	c0.1-2.7,0.8-5.3,2-7.6c1.3-2.4,3-4.4,5.2-5.9c0.2-0.1,0.3-0.2,0.5-0.2s0.4,0,0.6,0s0.4,0.1,0.5,0.2c0.2,0.1,0.3,0.2,0.4,0.4
	c0.1,0.2,0.2,0.3,0.2,0.5s0,0.4,0,0.6s-0.1,0.4-0.2,0.5c-0.1,0.2-0.2,0.3-0.4,0.4c-1.8,1.3-3.2,2.9-4.2,4.9c-1,1.9-1.6,4-1.7,6.2
	c0.3,3,1.2,5.9,2.7,8.6c1.5,2.6,3.5,4.9,6,6.7c0.1,0.1,0.3,0.3,0.3,0.5c0.1,0.2,0.1,0.4,0.1,0.6s0,0.4-0.1,0.6
	C501.6,250.4,501.5,250.6,501.4,250.7z M510.9,245.2c-0.1,0.2-0.3,0.4-0.5,0.5s-0.5,0.2-0.7,0.2c-0.2,0.1-0.5,0.1-0.7,0
	c-2.1-1.2-3.9-2.9-5.2-4.9c-1.3-2.1-2-4.4-2.1-6.9c0-2.2,0.6-4.3,1.7-6.1c1.1-1.9,2.7-3.4,4.7-4.4c0.3-0.2,0.8-0.2,1.1-0.1
	c0.4,0.1,0.7,0.4,0.9,0.7c0.2,0.3,0.2,0.7,0.1,1.1s-0.4,0.7-0.7,0.9c-1.5,0.8-2.7,1.9-3.6,3.4c-0.9,1.4-1.3,3.1-1.2,4.7
	c0.1,1.9,0.6,3.7,1.6,5.4c1,1.6,2.4,2.9,4.1,3.9c0.3,0.2,0.5,0.4,0.6,0.7C511,244.6,511,244.9,510.9,245.2z M520.7,241.5
	c-1.3,0-2.5-0.4-3.6-1.1s-1.9-1.7-2.4-2.9c-0.5-1.2-0.6-2.5-0.4-3.7c0.2-1.3,0.9-2.4,1.8-3.3c0.9-0.9,2-1.5,3.3-1.8
	c1.3-0.2,2.5-0.1,3.7,0.4s2.2,1.3,2.9,2.4s1.1,2.3,1.1,3.6c0,0.8-0.2,1.7-0.5,2.4c-0.3,0.8-0.8,1.5-1.4,2.1
	c-0.6,0.6-1.3,1.1-2.1,1.4C522.4,241.3,521.5,241.5,520.7,241.5z M532.5,245.8c-0.2,0.1-0.5,0.1-0.7,0c-0.3,0-0.5-0.1-0.7-0.2
	s-0.4-0.3-0.5-0.5c-0.2-0.3-0.2-0.7-0.1-1.1c0.1-0.4,0.3-0.7,0.7-0.9c1.7-0.9,3.1-2.2,4.1-3.8c1-1.6,1.6-3.5,1.7-5.4
	c0-1.7-0.4-3.3-1.2-4.7c-0.9-1.4-2.1-2.6-3.6-3.4c-0.2-0.1-0.3-0.2-0.4-0.4c-0.1-0.1-0.2-0.3-0.3-0.5s-0.1-0.4-0.1-0.6
	s0.1-0.4,0.2-0.5c0.1-0.2,0.2-0.3,0.4-0.5c0.1-0.1,0.3-0.2,0.5-0.3c0.2-0.1,0.4-0.1,0.6-0.1c0.2,0,0.4,0.1,0.6,0.2
	c1.9,1,3.5,2.5,4.6,4.4c1.1,1.8,1.7,4,1.8,6.1c0,2.5-0.7,4.9-2,7C536.5,242.8,534.7,244.6,532.5,245.8z M551.8,233.4
	c-0.2,3.4-1.2,6.8-2.9,9.8s-3.9,5.6-6.7,7.7c-0.1,0.1-0.3,0.2-0.5,0.3c-0.2,0.1-0.4,0.1-0.6,0.1c-0.2,0-0.4,0-0.6-0.1
	c-0.2-0.1-0.3-0.2-0.5-0.3c-0.1-0.1-0.2-0.3-0.3-0.5s-0.1-0.4-0.1-0.6s0-0.4,0.1-0.6s0.2-0.3,0.3-0.5c2.4-1.8,4.5-4.1,5.9-6.7
	c1.5-2.6,2.4-5.6,2.6-8.6c-0.1-2.2-0.6-4.3-1.7-6.2c-1-1.9-2.5-3.6-4.2-4.9c-0.2-0.1-0.3-0.2-0.4-0.4c-0.1-0.2-0.2-0.3-0.2-0.5
	s-0.1-0.4,0-0.6c0-0.2,0.1-0.4,0.2-0.5c0.1-0.2,0.2-0.3,0.4-0.4s0.3-0.2,0.5-0.2s0.4,0,0.6,0c0.2,0,0.4,0.1,0.5,0.2
	c2.2,1.5,4,3.6,5.2,5.9c1.3,2.4,2,5,2,7.6L551.8,233.4z"/>
<path class="st0" d="M585.8,226.4h10.8v14.5h13.9v-14.5h10.8v39h-10.8v-14.8h-13.9v14.8h-10.8V226.4z"/>
<path class="st0" d="M624.5,250.5c-0.1-2.1,0.2-4.1,1-6c0.7-1.9,1.8-3.7,3.3-5.1c1.4-1.5,3.1-2.7,5-3.4c1.9-0.8,3.9-1.2,6-1.2
	c10.4,0,15.2,7.6,15.2,16.5c0,0.6,0,1.4,0,2.1h-20.2c0.3,1.5,1.1,2.8,2.3,3.7c1.2,0.9,2.7,1.4,4.2,1.3c1.3,0,2.5-0.3,3.7-0.8
	c1.1-0.5,2.2-1.3,3-2.2l5.9,4.9c-1.6,2-3.5,3.6-5.8,4.6c-2.3,1.1-4.8,1.5-7.3,1.4c-2.1,0.1-4.2-0.2-6.2-0.9c-2-0.7-3.8-1.9-5.3-3.4
	s-2.7-3.3-3.5-5.2C624.8,254.7,624.5,252.6,624.5,250.5z M645,247.7c0-0.7-0.1-1.4-0.3-2.1s-0.6-1.3-1.1-1.8s-1.1-0.9-1.7-1.2
	c-0.6-0.3-1.3-0.4-2-0.4c-1.4,0-2.7,0.6-3.7,1.6s-1.5,2.3-1.5,3.7H645V247.7z"/>
<path class="st0" d="M690.5,235.3h10.6v6.1c0.6-2,1.9-3.8,3.6-5c1.7-1.2,3.8-1.8,5.9-1.6V246h-0.9c-5.5,0-8.7,3.2-8.7,10.1v9.4
	h-10.6v-30.2H690.5z"/>
<path class="st0" d="M717.2,256v-12.1h-3.6v-8.6h3.6v-7.6h10.6v7.6h7v8.5h-7V254c0,2.1,1,3,2.9,3c1.4,0,2.8-0.4,4-1v8.1
	c-2.3,1.2-4.8,1.8-7.4,1.7c-1.3,0.2-2.7,0.1-4-0.3s-2.5-1.1-3.5-2.1c-1-0.9-1.7-2.1-2.2-3.4C717.2,258.8,717.1,257.4,717.2,256z"/>
<path class="st0" d="M575.4,223.6c-1.1,0-2.2,0.3-3.1,0.9c-0.9,0.6-1.6,1.5-2.1,2.5c-0.4,1-0.5,2.2-0.3,3.2c0.2,1.1,0.8,2.1,1.5,2.9
	c0.8,0.8,1.8,1.3,2.9,1.5c1.1,0.2,2.2,0.1,3.2-0.3s1.9-1.1,2.5-2.1c0.6-0.9,0.9-2,0.9-3.1c0-1.5-0.6-2.9-1.6-4
	C578.3,224.2,576.9,223.6,575.4,223.6z"/>
<path class="st0" d="M686.4,250.3c0.1-2.1-0.3-4.2-1.1-6.2s-2-3.7-3.5-5.2s-3.3-2.6-5.3-3.4c-2-0.7-4.1-1-6.2-0.9
	c-2.5-0.1-5,0.5-7.3,1.6s-4.3,2.7-5.8,4.8l5.9,4.9c0.8-0.9,1.9-1.7,3-2.2c1.2-0.5,2.4-0.8,3.7-0.8c1.5-0.1,3,0.3,4.2,1.2
	s2,2.2,2.4,3.6v0.2h-7c-8.7,0-13.2,3.4-13.2,9.5c0,6.1,4,9.1,11.4,9.1c1.7,0,3.3-0.3,4.9-0.9c1.5-0.6,2.9-1.6,4.1-2.8v2.9h10v-15.4
	H686.4z M670.6,259.4c-2.7,0-4.4-1.5-4.4-3.4c0-1.9,1.5-2.8,4-2.8h6.1v0.3c0,0.8-0.1,1.5-0.4,2.2c-0.3,0.7-0.7,1.3-1.2,1.9
	c-0.5,0.5-1.2,1-1.9,1.3C672.1,259.2,671.3,259.4,670.6,259.4z"/>
<path class="st0" d="M575.6,237.5h-0.4c-0.7,0-1.4,0.1-2.1,0.4c-0.7,0.3-1.3,0.7-1.8,1.2s-0.9,1.1-1.2,1.8c-0.3,0.7-0.4,1.4-0.4,2.1
	v22.4h11.4V243c0-0.7-0.1-1.4-0.4-2.1c-0.3-0.7-0.7-1.3-1.2-1.8s-1.1-0.9-1.8-1.2C577,237.6,576.3,237.5,575.6,237.5z"/>
<path class="st0" d="M360.6,225.8c0-0.4,0.1-0.7,0.2-1s0.3-0.6,0.6-0.9c0.2-0.2,0.5-0.4,0.9-0.6c0.3-0.1,0.7-0.2,1-0.2h17.6
	c0.3,0,0.7,0,1,0.1s0.6,0.3,0.9,0.5s0.5,0.5,0.6,0.8s0.2,0.7,0.2,1s-0.1,0.7-0.2,1s-0.3,0.6-0.6,0.8c-0.3,0.2-0.6,0.4-0.9,0.5
	s-0.7,0.1-1,0.1h-15v8.1H379c0.6,0,1.3,0.3,1.7,0.7c0.5,0.5,0.7,1.1,0.7,1.7s-0.3,1.3-0.7,1.7c-0.5,0.5-1.1,0.7-1.7,0.7h-13.1v9.9
	c0,0.3-0.1,0.7-0.2,1s-0.3,0.6-0.6,0.9c-0.2,0.2-0.5,0.4-0.9,0.6c-0.3,0.1-0.7,0.2-1,0.2s-0.7-0.1-1-0.2s-0.6-0.3-0.9-0.6
	c-0.2-0.2-0.4-0.5-0.6-0.9c-0.1-0.3-0.2-0.7-0.2-1L360.6,225.8z"/>
<path class="st0" d="M388.3,232.8c0-0.3,0.1-0.7,0.2-1s0.3-0.6,0.6-0.9c0.2-0.2,0.5-0.4,0.8-0.6c0.3-0.1,0.7-0.2,1-0.2
	s0.7,0.1,1,0.2s0.6,0.3,0.9,0.6c0.2,0.2,0.4,0.5,0.6,0.9c0.1,0.3,0.2,0.7,0.2,1v2.3c0.4-1.3,1.1-2.4,2.2-3.3c1-0.9,2.3-1.5,3.6-1.7
	c0.3,0,0.7,0,1,0.1s0.6,0.3,0.9,0.6c0.2,0.2,0.4,0.5,0.6,0.9c0.1,0.3,0.2,0.7,0.1,1c0,0.6-0.2,1.2-0.6,1.6c-0.4,0.5-0.9,0.8-1.5,0.9
	c-3.7,0.6-6.3,3.5-6.3,8.9v6.7c0,0.7-0.3,1.3-0.8,1.8s-1.2,0.8-1.8,0.8c-0.7,0-1.3-0.3-1.8-0.8s-0.8-1.1-0.8-1.8v-18H388.3z"/>
<path class="st0" d="M404.1,242c0-3.2,1.3-6.3,3.6-8.6c2.3-2.3,5.4-3.6,8.6-3.6s6.3,1.3,8.6,3.6c2.3,2.3,3.5,5.4,3.5,8.6
	c-0.1,3.2-1.4,6.2-3.6,8.4c-2.3,2.2-5.3,3.5-8.5,3.5c-1.6,0-3.2-0.2-4.6-0.8c-1.5-0.6-2.8-1.4-3.9-2.6c-1.1-1.1-2-2.4-2.6-3.9
	C404.4,245.2,404.1,243.6,404.1,242z M423.2,242c0-0.9-0.1-1.9-0.4-2.8s-0.8-1.7-1.5-2.4c-0.7-0.7-1.4-1.2-2.3-1.6s-1.8-0.6-2.7-0.6
	c-0.9,0-1.9,0.2-2.7,0.5c-0.9,0.4-1.6,0.9-2.3,1.6c-0.6,0.7-1.1,1.5-1.5,2.4c-0.3,0.9-0.5,1.8-0.4,2.7c0,0.9,0.1,1.9,0.4,2.8
	s0.8,1.7,1.5,2.4c0.6,0.7,1.4,1.2,2.3,1.6s1.8,0.6,2.7,0.6c0.9,0,1.9-0.2,2.7-0.5c0.9-0.4,1.6-0.9,2.3-1.6c0.6-0.7,1.1-1.5,1.5-2.4
	C423.1,243.9,423.2,242.9,423.2,242z"/>
<path class="st0" d="M433.7,232.8c0-0.3,0-0.7,0.2-1c0.1-0.3,0.3-0.6,0.6-0.9c0.2-0.2,0.5-0.4,0.8-0.6c0.3-0.1,0.7-0.2,1-0.2
	s0.7,0.1,1,0.2s0.6,0.3,0.9,0.6c0.2,0.2,0.4,0.5,0.6,0.9c0.1,0.3,0.2,0.7,0.2,1v1.1c0.7-1.2,1.7-2.2,2.9-2.9c1.2-0.7,2.6-1.1,4-1.1
	c1.4-0.1,2.8,0.3,4,1s2.2,1.8,2.8,3c0.8-1.3,2-2.3,3.3-3s2.8-1.1,4.3-1.1c1.1-0.1,2.3,0.1,3.3,0.5c1.1,0.4,2,1.1,2.8,1.9
	s1.3,1.8,1.7,2.9c0.3,1.1,0.4,2.2,0.3,3.4v12.1c-0.1,0.6-0.4,1.2-0.9,1.6s-1.1,0.7-1.7,0.7s-1.3-0.2-1.7-0.7c-0.5-0.4-0.8-1-0.9-1.6
	v-10.4c0-3.6-1.7-5.6-4.6-5.6s-4.8,2-4.8,5.7v10.5c-0.1,0.6-0.4,1.2-0.9,1.6s-1.1,0.7-1.7,0.7s-1.3-0.2-1.7-0.7
	c-0.5-0.4-0.8-1-0.9-1.6v-10.6c0-3.6-1.7-5.5-4.6-5.5s-4.9,2.1-4.9,5.7v10.5c0,0.3-0.1,0.7-0.2,1s-0.3,0.6-0.6,0.8
	c-0.2,0.2-0.5,0.4-0.9,0.6c-0.3,0.1-0.7,0.2-1,0.2s-0.7-0.1-1-0.2s-0.6-0.3-0.8-0.6c-0.2-0.2-0.4-0.5-0.6-0.8
	c-0.1-0.3-0.2-0.7-0.2-1L433.7,232.8z"/>
</svg>
