<svg width="902" height="200" viewBox="0 0 902 200" fill="none" xmlns="http://www.w3.org/2000/svg">
<g clip-path="url(#clip0_367_2)">
<mask id="mask0_367_2" style="mask-type:luminance" maskUnits="userSpaceOnUse" x="0" y="0" width="902" height="200">
<path d="M0 0H902V200H0V0Z" fill="white"/>
</mask>
<g mask="url(#mask0_367_2)">
<path d="M186.453 92.7277L153.435 80.3659L140.535 75.5346L153.75 40.2344L100 60.3605L46.2477 40.2344L59.4651 75.5365L46.5654 80.3678L13.5473 92.7296L10.1562 93.9984L63.1309 113.113C69.307 115.343 74.5007 119.54 77.9737 124.97C79.1449 126.802 80.1213 128.772 80.8736 130.856L100 183.797L119.126 130.856C119.879 128.772 120.855 126.8 122.026 124.97C125.501 119.54 130.695 115.341 136.869 113.113L189.844 93.9984L186.453 92.7296V92.7277ZM129.869 104.021C120.545 107.385 113.204 114.727 109.84 124.05L100.088 151.081L78.2387 92.7277L73.6101 80.3659L70.2853 71.4848L66.0854 60.267L83.1675 66.6632L119.77 80.3678L136.395 86.5926L152.786 92.7296L156.9 94.2693L129.869 104.023V104.021Z" fill="white"/>
<path fill-rule="evenodd" clip-rule="evenodd" d="M286.997 127.497H287.278L316.174 49H336.415V148.869H321.337V71.3469H321.059L293.559 148.869H280.854L253.357 71.3469H253.076V148.869H238V49H258.242L286.997 127.497ZM377.864 139.228C389.591 139.228 397.128 132.106 397.128 121.353V121.35V77.6312H410.807V148.866H397.128V139.925H396.85C393.08 145.372 385.681 150.819 373.397 150.819C360.274 150.819 349.667 143.278 349.667 126.934V77.6312H363.484V123.166C363.484 132.806 367.673 139.228 377.864 139.228ZM437.601 49H423.922V148.869H437.601V49ZM469.008 88.9469V129.172L469.011 129.175C469.011 136.716 471.104 138.394 476.966 138.394C479.199 138.394 480.317 138.253 482.828 137.834V148.869C479.199 149.569 477.104 149.706 474.033 149.706C462.446 149.706 455.328 145.238 455.328 128.756V88.95H444.997V77.6344H455.328V54.7281H469.008V77.6313H482.688V88.9469H469.008ZM506.409 77.6312H492.729V148.866H506.409V77.6312ZM491.754 50.1188H507.252V64.9219H491.754V50.1188ZM555.265 75.5375C544.096 75.5375 537.257 80.9844 533.349 86.0125H533.068V77.6312H519.389V173.587H533.068V140.066H533.349C537.257 145.794 544.096 150.819 555.265 150.819C573.411 150.819 587.231 136.712 587.231 113.244C587.231 89.775 573.411 75.5312 555.265 75.5312V75.5375ZM553.032 139.509C540.748 139.509 533.209 129.312 533.209 113.25C533.209 97.1875 540.748 86.9906 553.032 86.9906C566.434 86.9906 572.855 99.2844 572.855 113.25C572.855 127.216 566.434 139.509 553.032 139.509ZM596.298 49H609.977V148.659H596.298V49ZM680.05 132.666V99.9812C680.05 81.5438 668.322 75.3969 653.665 75.3969C631.89 75.3969 622.954 86.1531 622.258 99.8406H636.215C636.915 90.3438 640.685 86.4313 653.106 86.4313C663.575 86.4313 666.645 90.7625 666.645 95.9281C666.645 102.909 659.805 104.309 648.64 106.403C630.909 109.894 618.903 114.503 618.903 130.428C618.903 142.581 627.976 150.822 642.215 150.822C653.802 150.822 661.898 146.213 666.642 138.809H666.923C667.622 146.913 671.389 149.566 678.091 149.566C680.324 149.566 682.698 149.284 685.069 148.725V140.344C684.232 140.484 683.813 140.484 683.395 140.484C680.743 140.484 680.043 137.831 680.043 132.662L680.05 132.666ZM666.648 121.072C666.648 133.503 657.575 139.787 645.291 139.787C636.774 139.787 633.286 136.156 633.286 129.453C633.286 122.05 638.452 118.697 651.013 116.047C658.271 114.509 664.415 112.975 666.648 110.878V121.072ZM718.852 132.106L738.535 77.6312H738.538H752.777L724.718 150.544C717.737 168.141 710.898 173.869 699.87 173.869C696.796 173.869 694.704 173.591 691.075 172.891V161.719C693.445 161.997 694.704 162.138 696.937 162.138C702.518 162.138 708.802 159.344 711.732 148.169L682.836 77.6312H697.774L718.571 132.106H718.852ZM787.666 75.3969C765.891 75.3969 752.489 90.7625 752.489 113.109C752.489 135.456 765.054 150.963 787.666 150.963C806.374 150.963 816.843 140.628 820.472 126.938H806.652C805.256 131.688 800.512 139.787 787.947 139.787C773.846 139.787 766.869 128.894 766.588 116.881H821.309C821.45 115.763 821.45 113.669 821.45 111.713C821.45 89.6437 809.304 75.3937 787.666 75.3937V75.3969ZM766.588 106.125C767.428 94.3906 775.801 86.5719 787.248 86.5719C799.394 86.5719 807.071 94.9531 807.071 106.125H766.588ZM844.334 91.1812H844.615C848.244 82.2437 854.106 75.9594 863.738 75.9594C866.249 75.9594 868.207 76.1 870.3 76.3781V89.5062C868.482 89.225 867.23 89.0844 865.693 89.0844C853.269 89.0844 844.334 98.4469 844.334 111.994V148.869H830.654V77.6344H844.334V91.1812Z" fill="white"/>
<path d="M885.65 76.775C882.062 76.775 879.226 79.5563 879.226 83.3094C879.226 87.0625 882.059 89.8438 885.65 89.8438C889.242 89.8438 892.1 87.0625 892.1 83.3094C892.1 79.5563 889.267 76.775 885.65 76.775ZM885.65 88.7375C882.708 88.7375 880.497 86.4688 880.497 83.3094C880.497 80.15 882.712 77.8813 885.65 77.8813C888.589 77.8813 890.832 80.15 890.832 83.3094C890.832 86.4688 888.617 88.7375 885.65 88.7375Z" fill="white"/>
<path d="M887.028 83.6344V83.6063C887.918 83.3906 888.539 82.7969 888.539 81.7969C888.539 80.4469 887.649 79.6906 885.947 79.6906H882.952V86.875H884.732V84.3375H885.407C887.106 84.3375 886.512 86.5531 886.865 86.875H888.674V86.7938C888.268 86.6594 888.836 83.9313 887.028 83.6344ZM885.488 82.9063H884.732V81.0438H885.488C886.191 81.0438 886.837 81.1781 886.837 81.9625C886.837 82.7469 886.191 82.9094 885.488 82.9094V82.9063Z" fill="white"/>
</g>
</g>
<defs>
<clipPath id="clip0_367_2">
<rect width="902" height="200" fill="white"/>
</clipPath>
</defs>
</svg>
