<svg xmlns="http://www.w3.org/2000/svg" width="324.637" height="47.466" viewBox="0 0 324.637 47.466">
  <g id="Raggruppa_28" data-name="Raggruppa 28" transform="translate(-257.502 -127.66)">
    <path id="Tracciato_164" data-name="Tracciato 164" d="M305.558,800.537,292.947,784.02V766.938h10.422a2.189,2.189,0,0,1,2.189,2.19Zm-2.063,7.019h-9.44a6.827,6.827,0,0,1-5.419-2.676l-27.038-35.3a1.642,1.642,0,0,1,1.305-2.641h9.4a6.826,6.826,0,0,1,5.417,2.673l27.076,35.3a1.643,1.643,0,0,1-1.3,2.642Zm-30.07,0H263a2.191,2.191,0,0,1-2.19-2.19V773.861l12.612,16.583ZM303.3,763.53H291.407a1.712,1.712,0,0,0-1.707,1.707V779.8l-9.335-12.259a10.176,10.176,0,0,0-8.1-4.011h-9.228a5.54,5.54,0,0,0-5.539,5.539v36.388A5.539,5.539,0,0,0,263.041,811h11.924a1.707,1.707,0,0,0,1.707-1.707V794.574l9.286,12.359A10.178,10.178,0,0,0,294.093,811H303.3a5.538,5.538,0,0,0,5.538-5.539V769.069a5.539,5.539,0,0,0-5.538-5.539Z" transform="translate(0 -635.87)" fill="#f2f2f0" fill-rule="evenodd"/>
    <path id="Tracciato_165" data-name="Tracciato 165" d="M372.3,806.925h-7.575l-18.852-21.57v21.57H336.1V767.6h7.46l18.967,22.148V767.6H372.3Z" transform="translate(0 -635.87)" fill="#f2f2f0" fill-rule="evenodd"/>
    <path id="Tracciato_166" data-name="Tracciato 166" d="M382.734,790.156h11.449a5.2,5.2,0,0,0-5.551-4.685,5.727,5.727,0,0,0-5.9,4.685m20.066,5.32-.053.173h-19.9a6.057,6.057,0,0,0,6.3,4.51,4.828,4.828,0,0,0,4.28-2.023h9.252c-1.33,5.783-6.708,9.425-13.647,9.425-9.195,0-15.324-6.129-15.324-14.688,0-8.5,5.956-14.63,14.919-14.63,8.154,0,14.341,5.609,14.341,14.052a19.615,19.615,0,0,1-.173,3.181" transform="translate(0 -635.87)" fill="#f2f2f0" fill-rule="evenodd"/>
    <path id="Tracciato_167" data-name="Tracciato 167" d="M425.6,797.209v-8.673a7.263,7.263,0,0,0-5.841-2.66,6.979,6.979,0,0,0,0,13.936,7.2,7.2,0,0,0,5.841-2.6Zm9.368,9.716H425.6v-1.562a14,14,0,0,1-7.691,2.14c-7.575,0-13.936-6.3-13.936-14.63,0-8.386,6.361-14.631,13.936-14.631a14,14,0,0,1,7.691,2.14v-1.5h9.368Z" transform="translate(0 -635.87)" fill="#f2f2f0" fill-rule="evenodd"/>
    <path id="Tracciato_168" data-name="Tracciato 168" d="M456.161,787.322c-4.568.173-7.46,1.387-9.657,3.585v16.018h-9.368V778.88H446.5v3.006a14.03,14.03,0,0,1,9.657-3.471Z" transform="translate(0 -635.87)" fill="#f2f2f0" fill-rule="evenodd"/>
    <path id="Tracciato_169" data-name="Tracciato 169" d="M486.8,776.22V767.6H457.48v39.324h9.778v-13.88h14.663v-.171a16.982,16.982,0,0,1,2.1-8.334H467.258V776.22Z" transform="translate(0 -635.87)" fill="#f2f2f0" fill-rule="evenodd"/>
    <path id="Tracciato_170" data-name="Tracciato 170" d="M534.024,787.322c-4.568.173-7.459,1.387-9.657,3.585v16.018H515V778.88h9.368v3.006a14.029,14.029,0,0,1,9.657-3.471Z" transform="translate(0 -635.87)" fill="#f2f2f0" fill-rule="evenodd"/>
    <path id="Tracciato_171" data-name="Tracciato 171" d="M582.139,790.907v16.018h-9.427V792.41c0-3.99-1.907-5.9-5.031-5.9a5.464,5.464,0,0,0-4.279,2.313c.059.693.117,1.388.117,2.082v16.018h-9.368V792.41c0-3.99-1.966-5.9-5.031-5.9-1.445,0-2.835.694-4.223,2.487v17.926H535.53V778.88H544.9v1.676a9.876,9.876,0,0,1,7-2.544,11.023,11.023,0,0,1,8.615,3.758,13.691,13.691,0,0,1,9.946-3.758c6.708,0,11.682,4.915,11.682,12.895" transform="translate(0 -635.87)" fill="#f2f2f0" fill-rule="evenodd"/>
    <path id="Tracciato_172" data-name="Tracciato 172" d="M505,792.93a6.337,6.337,0,1,0-12.664,0c0,3.76,2.545,6.767,6.361,6.767,3.759,0,6.3-3.007,6.3-6.767m8.848-.057c0,8.558-6.361,14.92-15.209,14.92s-15.208-6.362-15.208-14.92c0-8.443,6.361-14.631,15.208-14.631s15.209,6.188,15.209,14.631" transform="translate(0 -635.87)" fill="#f2f2f0" fill-rule="evenodd"/>
  </g>
</svg>
