<svg width="803" height="143" viewBox="0 0 803 143" fill="none" xmlns="http://www.w3.org/2000/svg">
<path d="M503.5 134.9C497.2 134.9 491 134.9 484.4 134.9C484.4 103.7 484.4 72.6 484.4 41.4C484.1 41.2 483.9 41 483.6 40.9C482.8 41.6 481.9 42.2 481.3 43C474.2 52.8 467.2 62.7 460.2 72.5C459.8 73.1 459.3 73.7 458.6 74.6C455.1 69.7 451.8 65.1 448.4 60.3C444.3 54.5 440.2 48.7 436 43C435.4 42.1 434.4 41.5 433.6 40.8C433.3 41 433.1 41.1 432.8 41.3C432.8 72.4 432.8 103.6 432.8 134.9C426.3 134.9 420.1 134.9 413.7 134.9C413.7 92.1 413.7 49.2 413.7 6.1C419.8 6.1 425.9 6 431.9 6.2C432.7 6.2 433.6 7.3 434.2 8.1C441.3 18 448.3 28 455.3 37.9C457.5 41.1 459.6 41.1 461.9 37.8C468.8 28 475.8 18.2 482.6 8.4C483.9 6.6 485.2 6 487.3 6C492.6 6.1 498 6 503.5 6C503.5 49.2 503.5 92 503.5 134.9Z" fill="white"/>
<path d="M609.1 6.39999C621.4 6.39999 633.6 5.19999 645.5 6.69999C667.9 9.39999 682 36.8 665 56.8C664.8 57 664.7 57.3 665.3 56.8C668 59.9 670.6 63 673.3 66.2C691.3 88 683.4 118.8 657.9 131.2C652.3 133.9 646.4 135.3 640.1 135.2C629.8 135.1 619.6 135.2 609.1 135.2C609.1 92.1 609.1 49.3 609.1 6.39999ZM628.2 117.5C634.6 117.1 640.9 117.6 646.7 116.2C659.2 113.2 666.2 100.1 663.2 86.8C661.1 77.3 655.6 70.9 646 68.9C641.9 68 637.4 68.3 633.1 68.2C629.3 68.1 628.1 69.3 628.1 73.1C628.1 86.7 628.1 100.4 628.1 114C628.2 114.9 628.2 115.9 628.2 117.5ZM628.2 24.2C628.2 31.9 628.1 39.1 628.3 46.4C628.3 48.7 629.8 50.3 632.4 50.3C635.6 50.3 638.7 50.4 641.9 50.3C647.7 50.1 651.9 46.4 653 40.9C654.8 32.3 650.9 25.3 643.2 24.4C638.3 23.7 633.4 24.2 628.2 24.2Z" fill="white"/>
<path d="M279.2 6.10001C284.8 6.10001 290.1 6.20001 295.3 6.10001C297 6.10001 297.3 7.10001 297.6 8.40001C300.9 21.3 304.3 34.2 307.6 47.1C315.1 75.9 322.5 104.8 330 133.6C330.1 134 330.2 134.3 330.3 135.2C324.2 135.2 318.2 135.3 312.2 135.1C311.7 135.1 310.9 133.9 310.7 133.2C309.3 128.1 308 123 306.8 117.9C306.4 116.2 305.6 115.6 303.9 115.7C293.3 115.8 282.8 115.8 272.2 115.7C270.4 115.7 269.7 116.4 269.3 118C267.9 123.7 266.5 129.3 265 135.1C258.6 135.1 252.3 135.1 245.8 135.1C257 92 268 49.2 279.2 6.10001ZM288.3 46.2C287.9 47 287.8 47.2 287.8 47.3C283.8 62.8 279.8 78.3 275.8 93.8C275.2 96.1 276.5 97.5 279.1 97.5C284.9 97.6 290.6 97.5 296.4 97.5C300.5 97.5 301.4 96.4 300.4 92.5C297.3 80.6 294.3 68.8 291.2 56.9C290.3 53.6 289.3 50.2 288.3 46.2Z" fill="white"/>
<path d="M532.9 135C526.4 135 520.2 135 513.7 135C524.8 92 535.9 49.2 547 6.10001C552.6 6.10001 558 6.00001 563.5 6.20001C564.2 6.20001 565.2 7.50001 565.4 8.40001C569.6 24.2 573.7 40.1 577.8 55.9C584.5 81.7 591.1 107.5 597.8 133.3C597.9 133.8 598 134.2 598.2 135.1C592 135.1 586 135.2 580 135C579.5 135 578.7 133.8 578.5 133C577.1 128.1 575.7 123.2 574.7 118.2C574.2 115.8 573.1 115.4 571 115.4C560.8 115.5 550.7 115.5 540.5 115.4C538.2 115.4 537.4 116.2 536.9 118.3C535.9 123.9 534.4 129.3 532.9 135ZM556 45.8C555.3 48.2 554.9 49.7 554.5 51.3C551 65.1 547.5 79 543.9 92.8C543 96.3 543.9 97.5 547.6 97.6C553.2 97.6 558.7 97.6 564.3 97.6C568.2 97.6 569.1 96.5 568.2 92.8C565.1 80.8 562 68.9 558.9 56.9C558.1 53.5 557.2 50.1 556 45.8Z" fill="white"/>
<path d="M213.4 135C206.8 135 200.6 135 194.3 135C194.3 92.1 194.3 49.3 194.3 6.29999C195 6.19999 195.6 6.09999 196.3 6.09999C206.4 6.09999 216.4 5.99999 226.5 6.09999C240.2 6.19999 251.9 15 256.1 28C260.2 40.7 255.6 54.7 244.6 62.8C239.3 66.7 233.2 68.7 226.6 68.8C224 68.8 221.4 68.8 218.8 68.8C214.3 68.8 213.4 69.7 213.4 74.1C213.4 93.2 213.4 112.3 213.4 131.4C213.4 132.5 213.4 133.6 213.4 135ZM213.4 24.1C213.4 32 213.3 39.6 213.5 47.1C213.6 49.3 215.2 50.7 217.5 50.7C220.6 50.7 223.6 50.8 226.7 50.7C233.7 50.5 239.1 45.4 239.5 38.5C239.9 31.1 235.1 24.9 227.9 24.2C223.2 23.8 218.5 24.1 213.4 24.1Z" fill="white"/>
<path d="M338.8 135C338.8 92 338.8 49.2 338.8 6.29999C345.1 6.29999 351.3 6.29999 358 6.29999C358 7.39999 358 8.49999 358 9.59999C358 43.6 358 77.5 358 111.5C358 115.9 359.3 117.2 363.6 117.2C375.2 117.2 386.8 117.2 398.4 117.2C399.5 117.2 400.7 117.2 402 117.2C402 123.3 402 129.1 402 135C380.9 135 360 135 338.8 135Z" fill="white"/>
<path d="M780.3 135C773.8 135 767.7 135 761.3 135C761.3 133.7 761.3 132.5 761.3 131.3C761.3 97.5 761.3 63.7 761.3 29.9C761.3 25.4 760 24.1 755.5 24.1C749.9 24.1 744.4 24.1 738.6 24.1C738.6 18.2 738.6 12.4 738.6 6.39999C759.9 6.39999 781.2 6.39999 802.7 6.39999C802.7 12.2 802.7 17.9 802.7 24.1C799.1 24.1 795.5 24.1 791.8 24.1C789.7 24.1 787.6 24.1 785.5 24.1C781.6 24.1 780.3 25.5 780.3 29.5C780.3 63.5 780.3 97.5 780.3 131.5C780.3 132.5 780.3 133.6 780.3 135Z" fill="white"/>
<path d="M726.7 117.4C726.7 123.3 726.7 129.1 726.7 134.9C715.9 134.9 705.2 134.9 694.3 134.9C694.3 129.1 694.3 123.4 694.3 117.4C695 117.3 695.8 117.2 696.5 117.1C699 116.9 700.8 115.1 700.8 112.7C700.8 83.6 700.8 54.5 700.8 25.5C700.8 25.1 700.7 24.8 700.6 24.1C698.5 24 696.5 23.9 694.3 23.8C694.3 17.9 694.3 12.2 694.3 6.20001C705 6.20001 715.7 6.20001 726.6 6.20001C726.6 12 726.6 17.8 726.6 23.9C724.5 23.9 722.4 23.9 720 23.9C720 25.5 720 26.7 720 27.9C720 55.2 720.1 82.6 719.9 109.9C719.9 114.7 720.2 117.2 726.7 117.4Z" fill="white"/>
<path d="M1.60001 60.9V43.5H22.2V36.4H43.8V31.9H63.3V28H72.9V37.5H56.3V44.5H39.9V53.7H18.3V60.9H1.60001Z" fill="white"/>
<path d="M11.6 19.9H39.5V13H56V9.6H64.1V13H71.5V19.9H76.4V23H85.5V10.3H72.9V2.7H54.6V0H42.6V2.8H22.8V16.1H11.6V19.9Z" fill="white"/>
<path d="M9.1 23H2.5V29.6H9.1V23Z" fill="white"/>
<path d="M6.69999 68.9H0.399994V75.2H6.69999V68.9Z" fill="white"/>
<path d="M91 42.1H84.2V48.9H91V42.1Z" fill="white"/>
<path d="M94.1 34.5H91V37.6H94.1V34.5Z" fill="white"/>
<path d="M148.3 90.9H142.2V97H148.3V90.9Z" fill="white"/>
<path d="M105.5 29.7V20.2H109.4V12.7H124.8V6.79999H137V12.7H158.9V33.1H172V48.1H173.9V55.3H177.3V66.6H166.4V50.3H154.2V36.1H149V29.7H142.2V19.3H119.4V23H115.5V29.7H105.5Z" fill="white"/>
<path d="M104.4 39.5H129.2V50.5H137.6V72.1H147.4V88.7H130.5V67.8H119.4V52.1H104.4V39.5Z" fill="white"/>
<path d="M49.9 68.9C54.5944 68.9 58.4 65.0944 58.4 60.4C58.4 55.7056 54.5944 51.9 49.9 51.9C45.2056 51.9 41.4 55.7056 41.4 60.4C41.4 65.0944 45.2056 68.9 49.9 68.9Z" fill="white"/>
<path d="M67.9 51.9C70.6062 51.9 72.8 49.7062 72.8 47C72.8 44.2938 70.6062 42.1 67.9 42.1C65.1938 42.1 63 44.2938 63 47C63 49.7062 65.1938 51.9 67.9 51.9Z" fill="white"/>
<path d="M106.1 68.5C108.917 68.5 111.2 66.2167 111.2 63.4C111.2 60.5834 108.917 58.3 106.1 58.3C103.283 58.3 101 60.5834 101 63.4C101 66.2167 103.283 68.5 106.1 68.5Z" fill="white"/>
<path d="M83.1 54.5V67.8H72.7V76.6H68.5V84.3H66.2V90.8H58.3V93.1H47.3V105.1H38V115.3H32V142.5H40H58.1H61.4V120.9H68.1V109.2H73.2V93.1H80.5V79.7H85.2V63.2H92.3V54.5H83.1Z" fill="white"/>
</svg>
