<svg width="2338" height="1154" viewBox="0 0 2338 1154" fill="none" xmlns="http://www.w3.org/2000/svg">
<path d="M960 596.2H1530.5V596C1607.3 592.5 1668.6 529.2 1668.6 451.5C1668.6 373.8 1603.8 306.8 1523.9 306.8C1499.8 306.8 1477.1 312.7 1457.1 323.2C1433.4 268.3 1385.2 226.5 1326.4 211.4M837.7 211.3C753.4 232.9 691 309.5 691 400.6C691 491.7 753.4 568.4 837.9 590" stroke="white" stroke-width="38.31" stroke-linecap="round" stroke-linejoin="round"/>
<path d="M1063.4 331.2L987.3 357.9L1020.8 429" stroke="#21FA90" stroke-width="39.49" stroke-linecap="round" stroke-linejoin="round"/>
<path d="M989 359.2C1016.1 375.2 1047.8 384.4 1081.6 384.4C1182.4 384.4 1264.2 302.6 1264.2 201.8C1264.2 101 1182.4 19.2 1081.6 19.2C980.8 19.2 899 100.9 899 201.8V474.2" stroke="#21FA90" stroke-width="38.31" stroke-linecap="round" stroke-linejoin="round"/>
<path opacity="0.2" d="M899 762.1V793.9" stroke="#21FA90" stroke-width="38.31" stroke-linecap="round" stroke-linejoin="round"/>
<path opacity="0.4" d="M899.2 662V712.2" stroke="#21FA90" stroke-width="38.31" stroke-linecap="round" stroke-linejoin="round"/>
<path opacity="0.7" d="M899 525.9V609.9" stroke="#21FA90" stroke-width="38.31" stroke-linecap="round" stroke-linejoin="round"/>
<path d="M22.2 1084V896.7H103.3C120.1 896.7 134.5 899.4 146.7 904.9C158.8 910.3 168.2 918.1 174.8 928.3C181.4 938.5 184.7 950.6 184.7 964.7C184.7 978.6 181.4 990.7 174.8 1000.8C168.2 1011 158.8 1018.8 146.7 1024.2C134.6 1029.6 120.1 1032.4 103.3 1032.4H46.3L65.6 1012.9V1084.1H22.2V1084ZM65.6 1017.6L46.3 997H100.9C114.3 997 124.3 994.1 130.9 988.4C137.5 982.7 140.8 974.8 140.8 964.6C140.8 954.3 137.5 946.2 130.9 940.5C124.3 934.8 114.3 931.9 100.9 931.9H46.3L65.6 911.3V1017.6Z" fill="#21FA90"/>
<path d="M215.2 1084V885.4H257V1084H215.2Z" fill="#21FA90"/>
<path d="M340.2 1086.1C329 1086.1 319.3 1084.2 311.3 1080.3C303.3 1076.5 297.1 1071.2 292.8 1064.6C288.5 1058 286.4 1050.6 286.4 1042.4C286.4 1033.8 288.5 1026.3 292.7 1019.9C296.9 1013.5 303.5 1008.4 312.6 1004.8C321.7 1001.1 333.6 999.3 348.2 999.3H386.5V1023.7H352.8C343 1023.7 336.2 1025.3 332.6 1028.5C328.9 1031.7 327.1 1035.7 327.1 1040.5C327.1 1045.9 329.2 1050.1 333.4 1053.2C337.6 1056.3 343.3 1057.9 350.7 1057.9C357.7 1057.9 363.9 1056.3 369.4 1052.9C374.9 1049.6 378.9 1044.7 381.4 1038.3L387.8 1057.6C384.8 1066.9 379.2 1073.9 371.2 1078.7C363.2 1083.7 352.8 1086.1 340.2 1086.1ZM384 1084V1055.9L381.3 1049.7V999.4C381.3 990.5 378.6 983.5 373.1 978.5C367.7 973.5 359.3 971 348.1 971C340.4 971 332.9 972.2 325.5 974.6C318.1 977 311.8 980.3 306.6 984.4L291.6 955.2C299.4 949.7 308.9 945.4 320 942.4C331.1 939.4 342.3 937.9 353.7 937.9C375.6 937.9 392.7 943.1 404.8 953.4C416.9 963.7 423 979.9 423 1001.8V1084H384Z" fill="#21FA90"/>
<path d="M443.7 975.3V943.2H543.5V975.3H443.7ZM519.7 1086.1C502.7 1086.1 489.5 1081.8 480.1 1073.1C470.6 1064.4 465.9 1051.6 465.9 1034.4V908.2H507.7V1034C507.7 1040.1 509.3 1044.8 512.5 1048.1C515.7 1051.4 520.1 1053.1 525.6 1053.1C532.2 1053.1 537.8 1051.3 542.5 1047.7L553.7 1077.1C549.4 1080.1 544.3 1082.4 538.3 1083.9C532.4 1085.4 526.2 1086.1 519.7 1086.1Z" fill="#21FA90"/>
<path d="M560.1 975.3V943.2H660V975.3H560.1ZM582.4 1084V936.8C582.4 920.6 587.2 907.6 596.9 897.9C606.5 888.2 620.3 883.3 638.1 883.3C644.2 883.3 650 883.9 655.6 885.2C661.2 886.4 666 888.4 669.9 891.1L658.9 921.3C656.6 919.7 654 918.4 651.1 917.6C648.2 916.7 645.2 916.3 642 916.3C635.9 916.3 631.2 918 627.9 921.5C624.6 925 622.9 930.2 622.9 937.2V950.6L624 968.5V1084H582.4Z" fill="#21FA90"/>
<path d="M747.5 1086.1C732.2 1086.1 718.5 1082.9 706.7 1076.5C694.8 1070.1 685.5 1061.3 678.6 1050.1C671.7 1039 668.3 1026.2 668.3 1012C668.3 997.5 671.7 984.7 678.6 973.6C685.5 962.5 694.8 953.7 706.7 947.4C718.6 941.1 732.2 937.9 747.5 937.9C762.7 937.9 776.2 941.1 788.2 947.4C800.2 953.7 809.5 962.4 816.3 973.5C823.1 984.6 826.5 997.4 826.5 1012C826.5 1026.3 823.1 1039 816.3 1050.1C809.5 1061.3 800.2 1070 788.2 1076.5C776.2 1082.9 762.6 1086.1 747.5 1086.1ZM747.5 1051.9C754.5 1051.9 760.7 1050.3 766.2 1047.1C771.7 1043.9 776.1 1039.3 779.3 1033.3C782.5 1027.3 784.1 1020.2 784.1 1012C784.1 1003.6 782.5 996.5 779.3 990.6C776.1 984.7 771.7 980.2 766.2 977C760.7 973.8 754.4 972.2 747.5 972.2C740.6 972.2 734.3 973.8 728.8 977C723.3 980.2 718.9 984.8 715.6 990.6C712.3 996.5 710.6 1003.6 710.6 1012C710.6 1020.2 712.2 1027.3 715.6 1033.3C718.9 1039.3 723.3 1043.9 728.8 1047.1C734.3 1050.3 740.5 1051.9 747.5 1051.9Z" fill="#21FA90"/>
<path d="M854.3 1084V940H894.2V980.7L888.6 968.9C892.9 958.7 899.7 951 909.2 945.8C918.7 940.5 930.2 937.9 943.7 937.9V976.4C941.9 976.2 940.3 976.1 938.9 976C937.5 975.9 936 975.9 934.4 975.9C923 975.9 913.7 979.2 906.7 985.7C899.6 992.2 896.1 1002.3 896.1 1016.1V1084.1H854.3V1084Z" fill="#21FA90"/>
<path d="M1152.9 937.9C1164.3 937.9 1174.4 940.2 1183.3 944.7C1192.2 949.2 1199.1 956.2 1204.2 965.6C1209.3 975 1211.8 987 1211.8 1001.6V1084H1170V1008C1170 996.4 1167.6 987.8 1162.8 982.3C1158 976.8 1151.2 974 1142.5 974C1136.4 974 1131 975.4 1126.2 978.1C1121.4 980.9 1117.6 985 1115 990.5C1112.3 996 1111 1003.1 1111 1011.6V1083.9H1069.2V1007.9C1069.2 996.3 1066.8 987.7 1062.1 982.2C1057.4 976.7 1050.6 973.9 1041.9 973.9C1035.8 973.9 1030.4 975.3 1025.6 978C1020.8 980.8 1017 984.9 1014.4 990.4C1011.7 995.9 1010.4 1003 1010.4 1011.5V1083.8H968.6V940H1008.5V979.3L1001 967.8C1006 958 1013.1 950.5 1022.3 945.5C1031.5 940.4 1042 937.9 1053.7 937.9C1066.9 937.9 1078.5 941.2 1088.4 947.9C1098.3 954.6 1104.9 964.8 1108.1 978.5L1093.4 974.5C1098.2 963.3 1105.9 954.3 1116.5 947.7C1127 941.2 1139.2 937.9 1152.9 937.9Z" fill="#21FA90"/>
<path d="M1293.7 1086.1C1282.5 1086.1 1272.8 1084.2 1264.8 1080.3C1256.8 1076.5 1250.6 1071.2 1246.3 1064.6C1242 1058 1239.9 1050.6 1239.9 1042.4C1239.9 1033.8 1242 1026.3 1246.2 1019.9C1250.4 1013.5 1257 1008.4 1266.1 1004.8C1275.2 1001.1 1287.1 999.3 1301.7 999.3H1340V1023.7H1306.3C1296.5 1023.7 1289.7 1025.3 1286.1 1028.5C1282.4 1031.7 1280.6 1035.7 1280.6 1040.5C1280.6 1045.9 1282.7 1050.1 1286.9 1053.2C1291.1 1056.3 1296.8 1057.9 1304.2 1057.9C1311.2 1057.9 1317.4 1056.3 1322.9 1052.9C1328.4 1049.6 1332.4 1044.7 1334.9 1038.3L1341.3 1057.6C1338.3 1066.9 1332.7 1073.9 1324.7 1078.7C1316.7 1083.5 1306.4 1086.1 1293.7 1086.1ZM1337.6 1084V1055.9L1334.9 1049.7V999.4C1334.9 990.5 1332.2 983.5 1326.7 978.5C1321.3 973.5 1312.9 971 1301.7 971C1294 971 1286.5 972.2 1279.1 974.6C1271.7 977 1265.4 980.3 1260.2 984.4L1245.2 955.2C1253 949.7 1262.5 945.4 1273.6 942.4C1284.7 939.4 1295.9 937.9 1307.3 937.9C1329.2 937.9 1346.3 943.1 1358.4 953.4C1370.5 963.7 1376.6 979.9 1376.6 1001.8V1084H1337.6Z" fill="#21FA90"/>
<path d="M1397.3 975.3V943.2H1497.1V975.3H1397.3ZM1473.3 1086.1C1456.3 1086.1 1443.1 1081.8 1433.7 1073.1C1424.2 1064.4 1419.5 1051.6 1419.5 1034.4V908.2H1461.3V1034C1461.3 1040.1 1462.9 1044.8 1466.1 1048.1C1469.3 1051.4 1473.7 1053.1 1479.2 1053.1C1485.8 1053.1 1491.4 1051.3 1496.1 1047.7L1507.3 1077.1C1503 1080.1 1497.9 1082.4 1491.9 1083.9C1485.9 1085.4 1479.7 1086.1 1473.3 1086.1Z" fill="#21FA90"/>
<path d="M1551.7 919.9C1544 919.9 1537.8 917.7 1533 913.2C1528.2 908.7 1525.8 903.2 1525.8 896.6C1525.8 890 1528.2 884.5 1533 880C1537.8 875.5 1544.1 873.3 1551.7 873.3C1559.4 873.3 1565.6 875.4 1570.4 879.6C1575.2 883.8 1577.6 889.2 1577.6 895.8C1577.6 902.8 1575.2 908.5 1570.5 913.1C1565.8 917.7 1559.5 919.9 1551.7 919.9ZM1530.8 1084V940H1572.6V1084H1530.8Z" fill="#21FA90"/>
<path d="M1681 1086.1C1665.5 1086.1 1651.6 1082.9 1639.5 1076.6C1627.4 1070.3 1617.9 1061.5 1611 1050.2C1604.1 1039 1600.7 1026.2 1600.7 1011.9C1600.7 997.4 1604.1 984.6 1611 973.5C1617.9 962.4 1627.4 953.6 1639.5 947.3C1651.6 941 1665.5 937.8 1681 937.8C1696.2 937.8 1709.4 941 1720.6 947.3C1731.8 953.6 1740.1 962.7 1745.5 974.5L1713.1 991.9C1709.4 985.1 1704.7 980.1 1699 976.9C1693.4 973.7 1687.3 972.1 1680.7 972.1C1673.6 972.1 1667.1 973.7 1661.4 976.9C1655.7 980.1 1651.2 984.7 1647.9 990.5C1644.6 996.4 1642.9 1003.5 1642.9 1011.9C1642.9 1020.3 1644.5 1027.4 1647.9 1033.3C1651.2 1039.2 1655.7 1043.7 1661.4 1046.9C1667.1 1050.1 1673.5 1051.7 1680.7 1051.7C1687.3 1051.7 1693.4 1050.1 1699 1047C1704.6 1043.9 1709.3 1038.8 1713.1 1031.9L1745.5 1049.6C1740.1 1061.2 1731.9 1070.2 1720.6 1076.5C1709.3 1083 1696.1 1086.1 1681 1086.1Z" fill="#21FA90"/>
<path d="M1790.7 1086.1C1783.6 1086.1 1777.5 1083.6 1772.4 1078.7C1767.3 1073.8 1764.8 1067.5 1764.8 1059.8C1764.8 1052.1 1767.3 1045.9 1772.4 1041.2C1777.5 1036.5 1783.6 1034.1 1790.7 1034.1C1798 1034.1 1804.2 1036.5 1809.2 1041.2C1814.2 1045.9 1816.7 1052.1 1816.7 1059.8C1816.7 1067.5 1814.2 1073.8 1809.2 1078.7C1804.1 1083.7 1798 1086.1 1790.7 1086.1Z" fill="#21FA90"/>
<path d="M1905 1086.1C1891.4 1086.1 1879.2 1083 1868.3 1076.9C1857.4 1070.7 1848.8 1062.1 1842.5 1051.1C1836.2 1040 1833 1027 1833 1012C1833 996.8 1836.2 983.7 1842.5 972.7C1848.8 961.6 1857.4 953.1 1868.3 947C1879.2 940.9 1891.4 937.9 1905 937.9C1917.1 937.9 1927.7 940.6 1936.8 945.9C1945.9 951.2 1952.9 959.4 1957.9 970.3C1962.9 981.2 1965.4 995.1 1965.4 1012.1C1965.4 1028.9 1963 1042.7 1958.2 1053.7C1953.4 1064.7 1946.5 1072.8 1937.5 1078.2C1928.5 1083.5 1917.6 1086.1 1905 1086.1ZM1912.2 1051.9C1919 1051.9 1925.1 1050.3 1930.7 1047.1C1936.2 1043.9 1940.6 1039.3 1943.9 1033.3C1947.2 1027.3 1948.9 1020.2 1948.9 1012C1948.9 1003.6 1947.2 996.5 1943.9 990.6C1940.6 984.7 1936.2 980.2 1930.7 977C1925.2 973.8 1919 972.2 1912.2 972.2C1905.2 972.2 1899 973.8 1893.5 977C1888 980.2 1883.6 984.8 1880.3 990.6C1877 996.5 1875.3 1003.6 1875.3 1012C1875.3 1020.2 1876.9 1027.3 1880.3 1033.3C1883.6 1039.3 1888 1043.9 1893.5 1047.1C1899 1050.3 1905.2 1051.9 1912.2 1051.9ZM1949.9 1084V1054.6L1950.7 1011.8L1948 969.2V885.4H1989.8V1084H1949.9Z" fill="#21FA90"/>
<path d="M2099.8 1086.1C2083.4 1086.1 2069 1082.9 2056.6 1076.5C2044.2 1070.1 2034.6 1061.3 2027.8 1050.1C2021 1039 2017.6 1026.2 2017.6 1012C2017.6 997.5 2020.9 984.7 2027.6 973.6C2034.3 962.5 2043.4 953.7 2055 947.4C2066.6 941.1 2079.7 937.9 2094.3 937.9C2108.4 937.9 2121.1 940.9 2132.4 946.9C2143.7 952.9 2152.7 961.4 2159.3 972.6C2165.9 983.8 2169.2 997.1 2169.2 1012.6C2169.2 1014.2 2169.1 1016 2168.9 1018.1C2168.7 1020.2 2168.5 1022.1 2168.4 1023.9H2051.4V999.5H2146.4L2130.3 1006.7C2130.3 999.2 2128.8 992.7 2125.7 987.2C2122.7 981.7 2118.5 977.3 2113.1 974.2C2107.7 971.1 2101.5 969.5 2094.4 969.5C2087.3 969.5 2081 971.1 2075.5 974.2C2070.1 977.3 2065.8 981.7 2062.8 987.3C2059.8 992.9 2058.3 999.6 2058.3 1007.2V1013.6C2058.3 1021.5 2060 1028.4 2063.5 1034.3C2067 1040.3 2071.9 1044.8 2078.2 1047.9C2084.5 1051 2092 1052.6 2100.5 1052.6C2108.2 1052.6 2114.9 1051.4 2120.7 1049.1C2126.5 1046.8 2131.8 1043.3 2136.6 1038.7L2158.8 1062.8C2152.2 1070.3 2143.9 1076 2133.9 1080.1C2124.3 1084.1 2112.8 1086.1 2099.8 1086.1Z" fill="#21FA90"/>
<path d="M2233.6 1084L2173.1 940H2216.2L2266.5 1063.9H2245.1L2297.3 940H2337.4L2276.6 1084H2233.6Z" fill="#21FA90"/>
</svg>
