<?xml version="1.0" encoding="utf-8"?>
<!-- Generator: Adobe Illustrator 21.1.0, SVG Export Plug-In . SVG Version: 6.00 Build 0)  -->
<!DOCTYPE svg PUBLIC "-//W3C//DTD SVG 1.1//EN" "http://www.w3.org/Graphics/SVG/1.1/DTD/svg11.dtd">
<svg version="1.1"
	 id="svg2" inkscape:version="0.48.2 r9819" sodipodi:docname="thenativeweb.svg" xmlns:cc="http://creativecommons.org/ns#" xmlns:dc="http://purl.org/dc/elements/1.1/" xmlns:inkscape="http://www.inkscape.org/namespaces/inkscape" xmlns:osb="http://www.openswatchbook.org/uri/2009/osb" xmlns:rdf="http://www.w3.org/1999/02/22-rdf-syntax-ns#" xmlns:sodipodi="http://sodipodi.sourceforge.net/DTD/sodipodi-0.dtd" xmlns:svg="http://www.w3.org/2000/svg"
	 xmlns="http://www.w3.org/2000/svg" xmlns:xlink="http://www.w3.org/1999/xlink" x="0px" y="0px" viewBox="0 0 1052.4 744.1"
	 enable-background="new 0 0 1052.4 744.1" xml:space="preserve">
<defs>
	
	
		<inkscape:perspective  id="perspective3171" inkscape:persp3d-origin="526.18109 : 248.03149 : 1" inkscape:vp_x="0 : 372.04724 : 1" inkscape:vp_y="0 : 1000 : 0" inkscape:vp_z="1052.3622 : 372.04724 : 1" sodipodi:type="inkscape:persp3d">
		</inkscape:perspective>
	
		<inkscape:path-effect  copytype="single_stretched" effect="skeletal" fuse_tolerance="0" id="path-effect4297" is_visible="true" normal_offset="0" pattern="M 0,5 C 0,2.24 2.24,0 5,0 7.76,0 10,2.24 10,5 10,7.76 7.76,10 5,10 2.24,10 0,7.76 0,5 z" prop_scale="1" prop_units="false" scale_y_rel="false" spacing="0" tang_offset="0" vertical_pattern="false">
		</inkscape:path-effect>
	<inkscape:path-effect  effect="spiro" id="path-effect4295" is_visible="true"></inkscape:path-effect>
	<inkscape:path-effect  effect="spiro" id="path-effect4025" is_visible="true"></inkscape:path-effect>
</defs>
<sodipodi:namedview  bordercolor="#666666" borderopacity="1.0" id="base" inkscape:current-layer="layer1" inkscape:cx="406.40484" inkscape:cy="589.37583" inkscape:document-units="px" inkscape:guide-bbox="true" inkscape:pageopacity="0.0" inkscape:pageshadow="2" inkscape:snap-smooth-nodes="true" inkscape:window-height="1392" inkscape:window-maximized="1" inkscape:window-width="2560" inkscape:window-x="0" inkscape:window-y="0" inkscape:zoom="0.70710678" pagecolor="#ffffff" showgrid="false" showguides="false">
	<inkscape:grid  id="grid4230" type="xygrid"></inkscape:grid>
	<sodipodi:guide  id="guide4024" orientation="-0.8660254,0.5" position="346.48232,204.00031"></sodipodi:guide>
	<sodipodi:guide  id="guide4026" orientation="0.8660254,0.5" position="298.25,460.125"></sodipodi:guide>
	<sodipodi:guide  id="guide4032" orientation="0,1" position="454.625,464"></sodipodi:guide>
	<sodipodi:guide  id="guide4062" orientation="0,1" position="430.27448,189.59301"></sodipodi:guide>
	<sodipodi:guide  id="guide4064" orientation="0,1" position="446.89148,539.12473"></sodipodi:guide>
</sodipodi:namedview>
<path id="path5908_1_" inkscape:flatsided="true" inkscape:randomized="0" inkscape:rounded="0" sodipodi:arg1="1.0471976" sodipodi:arg2="1.5707963" sodipodi:cx="514.3551" sodipodi:cy="237.16846" sodipodi:r1="88.479256" sodipodi:r2="76.625282" sodipodi:sides="6" sodipodi:type="star" fill="#FFFFFF" d="
	M423.1,403.8L380,428.7l-43.1-24.9l0-49.8l43.1-24.9l43.1,24.9V403.8z"/>
<text transform="matrix(1 0 0 1 157.3321 429.7839)" fill="#FFFFFF" font-family="'Ubuntu'" font-size="103.2946px">the </text>
<g>
	<path fill="#FF0099" d="M380,401.4c0-2.9-0.2-5.4-0.6-7.4c-0.4-2-1-3.7-1.9-5c-0.9-1.3-2-2.2-3.5-2.8c-1.5-0.6-3.3-0.9-5.4-0.9
		c-1.6,0-3.2,0.1-5,0.3c-1.7,0.2-3,0.4-3.8,0.5v30.9l20.1,11.6l0,0V401.4z"/>
	<path fill="#FF0099" d="M380,329.1L336.9,354v49.8l10.5,6.1v-32.3c2.4-0.7,5.5-1.3,9.4-2c3.9-0.6,8.1-0.9,12.8-0.9
		c4.4,0,8.1,0.6,11.1,1.8c3,1.2,5.3,2.9,7.1,5.1c1.8,2.2,3,4.8,3.7,7.9c0.7,3.1,1.1,6.4,1.1,10.1v22l30.6-17.7V354L380,329.1z"/>
</g>
<text transform="matrix(1 0 0 1 399.864 429.7839)" fill="#FFFFFF" font-family="'Ubuntu'" font-size="103.2946px">ative web</text>
<text transform="matrix(1 0 0 1 852.2872 429.7839)" fill="#FF0099" font-family="'Ubuntu'" font-size="95px">.</text>
</svg>
