<svg width="12" height="10" viewBox="0 0 6 5" fill="none" xmlns="http://www.w3.org/2000/svg">
<path fill-rule="evenodd" clip-rule="evenodd" d="M5.87441 0.1464C5.95482 0.240167 6 0.367327 6 0.499915C6 0.632502 5.95482 0.759662 5.87441 0.853429L2.44277 4.8536C2.36233 4.94734 2.25324 5 2.1395 5C2.02576 5 1.91667 4.94734 1.83623 4.8536L0.120413 2.85351C0.0422751 2.75921 -0.000961123 2.6329 1.62156e-05 2.5018C0.000993554 2.3707 0.0461062 2.24528 0.125638 2.15258C0.20517 2.05987 0.312757 2.00728 0.425227 2.00614C0.537698 2.005 0.646052 2.0554 0.726954 2.14648L2.1395 3.79306L5.26787 0.1464C5.34831 0.05266 5.45739 0 5.57114 0C5.68488 0 5.79397 0.05266 5.87441 0.1464Z" fill="#689F63"/>
</svg>
