<svg width="309" height="121" viewBox="0 0 309 121" fill="none" xmlns="http://www.w3.org/2000/svg">
<g clip-path="url(#clip0_5_3)">
<path fill-rule="evenodd" clip-rule="evenodd" d="M28.133 84.617H41.617V0.961H29.934V51.043L16.46 0.961H0V84.617H11.816V24.035L28.133 84.617ZM63.086 20.2C63.086 14.223 65.707 11.953 69.871 11.953C74.059 11.953 76.676 14.223 76.676 20.199V65.383C76.676 71.355 74.059 73.633 69.871 73.633C65.707 73.633 63.086 71.355 63.086 65.383V20.2ZM49.957 64.53C49.957 77.929 56.992 85.581 69.871 85.581C82.75 85.581 89.781 77.929 89.781 64.531V21.046C89.781 7.657 82.75 0 69.871 0C56.992 0 49.957 7.656 49.957 21.047V64.53ZM98.25 84.617H118.984C132.109 84.617 138.551 77.332 138.551 63.934V21.644C138.551 8.246 132.109 0.961 118.984 0.961H98.25V84.617ZM118.754 12.918C122.934 12.918 125.441 15.07 125.441 21.047V64.53C125.441 70.51 122.934 72.67 118.754 72.67H111.352V12.919L118.754 12.918ZM159.969 12.918H182.621V0.961H146.84V84.617H182.621V72.672H159.97V48.172H177.974V36.215H159.97L159.969 12.918Z" fill="white"/>
<path fill-rule="evenodd" clip-rule="evenodd" d="M209.965 84.617C212.105 84.852 213.898 84.852 216.289 84.852C226.176 84.852 235.121 80.551 235.121 63.816V0.961H222.011V64.785C222.011 71.242 218.664 72.781 214.496 72.781C213.074 72.781 211.391 72.781 209.965 72.671V84.617ZM242.43 21.047C242.43 44.949 268.07 48.172 268.07 65.383C268.07 71.355 265.445 73.496 261.258 73.496C257.098 73.496 254.461 71.356 254.461 65.383V58.805H242.062V64.531C242.062 77.93 248.73 85.582 261.622 85.582C274.508 85.582 281.172 77.93 281.172 64.532C281.172 40.629 255.539 37.414 255.539 20.199C255.539 14.223 257.922 11.953 262.089 11.953C266.269 11.953 268.66 14.223 268.66 20.199V24.266H281.062V21.046C281.062 7.657 274.508 0 261.738 0C248.984 0 242.43 7.656 242.43 21.047Z" fill="#689F63"/>
<path fill-rule="evenodd" clip-rule="evenodd" d="M303.173 81.282H305.107C306.085 81.282 306.419 81.702 306.419 82.374C306.419 83.045 306.085 83.464 305.107 83.464H297.772C296.811 83.464 296.442 83.045 296.442 82.374C296.442 81.702 296.811 81.282 297.772 81.282H299.239V79.278H297.926C295.733 79.278 294.509 80.352 294.509 82.438C294.509 84.508 295.733 85.582 297.926 85.582H304.974C307.146 85.582 308.387 84.508 308.387 82.438C308.387 80.352 307.146 79.278 304.974 79.278H303.174L303.173 81.282ZM297.772 76.199C296.811 76.199 296.442 75.779 296.442 75.101C296.442 74.429 296.811 74.006 297.772 74.006H305.107C306.085 74.006 306.45 74.429 306.45 75.101C306.45 75.779 306.085 76.199 305.107 76.199H297.772ZM304.974 78.316C307.146 78.316 308.387 77.187 308.387 75.101C308.387 73.038 307.146 71.909 304.974 71.909H297.926C295.733 71.909 294.509 73.038 294.509 75.101C294.509 77.187 295.733 78.316 297.926 78.316H304.974ZM308.237 65.966V63.798H294.659V65.687H302.785L294.659 67.852V70.491H308.237V68.591H298.397L308.237 65.966ZM296.596 60.296V56.818H294.659V62.403H308.237V60.296H302.641V57.558H300.681V60.296H296.596ZM296.596 53.432V49.784H294.659V55.553H308.237V49.783H306.29V53.433H302.314V50.52H300.377V53.432H296.596ZM308.237 42.109C307.732 42.327 307.247 42.344 306.587 42.344H304.486C303.071 42.344 302.045 42.681 301.608 43.738C301.151 42.798 300.248 42.361 298.846 42.361H297.772C295.686 42.361 294.659 43.305 294.659 45.488V48.686H308.237V46.568H302.699V45.842C302.699 44.887 303.173 44.444 304.431 44.444H306.569C307.667 44.444 307.882 44.379 308.237 44.264V42.109ZM296.596 45.559C296.596 44.799 297.036 44.482 297.991 44.482H299.337C300.415 44.482 300.767 44.952 300.767 45.743V46.568H296.596V45.559ZM296.596 38.897V35.245H294.659V41.017H308.237V35.245H306.29V38.897H302.314V36.002H300.377V38.897H296.596ZM308.237 29.237V27.068H294.659V28.951H302.785L294.659 31.119V33.765H308.237V31.862H298.397L308.237 29.237ZM303.173 21.548H305.107C306.085 21.548 306.419 21.971 306.419 22.643C306.419 23.314 306.085 23.733 305.107 23.733H297.772C296.811 23.733 296.442 23.314 296.442 22.643C296.442 21.971 296.811 21.548 297.772 21.548H299.239V19.547H297.926C295.733 19.547 294.509 20.624 294.509 22.694C294.509 24.777 295.733 25.854 297.926 25.854H304.974C307.146 25.854 308.387 24.777 308.387 22.694C308.387 20.624 307.146 19.547 304.974 19.547H303.174L303.173 21.548ZM296.596 15.895V12.243H294.659V18.016H308.237V12.243H306.29V15.895H302.314V12.983H300.377V15.895H296.596Z" fill="white"/>
<path d="M202.297 77.473C202.336 77.27 202.359 77.066 202.359 76.852C202.359 74.809 200.699 73.152 198.66 73.152C197.164 73.152 195.871 74.047 195.293 75.32C194.859 74.844 194.258 74.535 193.566 74.535C193.219 74.5365 192.877 74.6157 192.564 74.767C192.252 74.9182 191.978 75.1376 191.761 75.409C191.545 75.6803 191.393 75.9967 191.315 76.3349C191.237 76.6731 191.236 77.0244 191.312 77.363C190.392 77.5138 189.555 77.9868 188.951 78.6976C188.348 79.4083 188.016 80.3105 188.016 81.243C188.015 81.7598 188.116 82.2718 188.313 82.7495C188.51 83.2272 188.8 83.6612 189.165 84.0267C189.531 84.3921 189.965 84.6818 190.442 84.879C190.92 85.0763 191.432 85.1772 191.949 85.176H201.203C201.719 85.1764 202.231 85.0749 202.708 84.8772C203.185 84.6795 203.618 84.3896 203.983 84.0242C204.348 83.6587 204.637 83.2248 204.833 82.7473C205.03 82.2699 205.13 81.7583 205.129 81.242C205.129 79.449 203.941 77.943 202.297 77.473Z" fill="white"/>
<path d="M294.264 7.676V6.571C294.501 6.20567 294.732 5.82167 294.956 5.419C295.18 5.01567 295.382 4.611 295.561 4.205C295.743 3.795 295.887 3.399 295.994 3.017C296.101 2.63433 296.154 2.283 296.154 1.963C296.154 1.73567 296.132 1.524 296.087 1.328C296.042 1.13133 295.941 1.033 295.783 1.033C295.624 1.033 295.523 1.13133 295.478 1.328C295.433 1.52067 295.411 1.73233 295.411 1.963V2.49H294.295V1.963C294.295 1.65967 294.321 1.38767 294.372 1.147C294.427 0.902333 294.514 0.695667 294.631 0.527C294.748 0.355 294.901 0.224 295.091 0.134C295.28 0.0446667 295.511 0 295.783 0C296.055 0 296.286 0.0446667 296.475 0.134C296.664 0.224 296.818 0.351667 296.935 0.517C297.052 0.681667 297.136 0.881333 297.188 1.116C297.243 1.34667 297.27 1.605 297.27 1.891C297.27 2.23167 297.218 2.6 297.115 2.996C297.015 3.38867 296.881 3.79333 296.712 4.21C296.547 4.62333 296.362 5.03133 296.155 5.434C295.948 5.834 295.738 6.213 295.525 6.571H297.291V7.676H294.264ZM299.481 7.759C299.164 7.759 298.894 7.68667 298.671 7.542C298.45 7.39733 298.281 7.20067 298.164 6.952C298.051 6.70133 297.994 6.42267 297.994 6.116V1.643C297.994 1.333 298.052 1.054 298.169 0.806C298.29 0.558 298.462 0.361333 298.686 0.216C298.91 0.072 299.175 0 299.481 0C299.791 0 300.056 0.074 300.277 0.222C300.501 0.366667 300.671 0.563 300.788 0.811C300.909 1.059 300.969 1.33633 300.969 1.643V6.116C300.969 6.42267 300.909 6.70167 300.789 6.953C300.668 7.201 300.495 7.39733 300.272 7.542C300.051 7.68667 299.788 7.759 299.482 7.759H299.481ZM299.481 6.674C299.612 6.674 299.707 6.619 299.765 6.509C299.824 6.39567 299.853 6.26467 299.853 6.116V1.643C299.853 1.491 299.824 1.36 299.765 1.25C299.707 1.14 299.612 1.085 299.481 1.085C299.35 1.085 299.256 1.14333 299.197 1.26C299.138 1.37333 299.109 1.501 299.109 1.643V6.116C299.109 6.264 299.138 6.395 299.197 6.509C299.256 6.619 299.35 6.674 299.481 6.674ZM301.671 7.676V6.571C301.909 6.20567 302.14 5.82167 302.364 5.419C302.587 5.01567 302.789 4.611 302.968 4.205C303.151 3.795 303.295 3.399 303.402 3.017C303.509 2.63433 303.562 2.283 303.562 1.963C303.562 1.73567 303.54 1.524 303.495 1.328C303.45 1.13133 303.349 1.033 303.19 1.033C303.032 1.033 302.93 1.13133 302.885 1.328C302.84 1.52067 302.818 1.73233 302.818 1.963V2.49H301.702V1.963C301.702 1.65967 301.728 1.38767 301.78 1.147C301.835 0.902333 301.921 0.695667 302.038 0.527C302.155 0.355 302.309 0.224 302.498 0.134C302.687 0.0446667 302.918 0 303.19 0C303.462 0 303.693 0.0446667 303.882 0.134C304.071 0.224 304.225 0.351667 304.342 0.517C304.459 0.681667 304.544 0.881333 304.595 1.116C304.65 1.34667 304.678 1.605 304.678 1.891C304.678 2.23167 304.626 2.6 304.523 2.996C304.423 3.38867 304.289 3.79333 304.12 4.21C303.955 4.62333 303.769 5.03133 303.562 5.434C303.355 5.834 303.145 6.213 302.932 6.571H304.699V7.676H301.671ZM306.889 7.759C306.654 7.759 306.451 7.72267 306.279 7.65C306.11 7.57467 305.969 7.46967 305.856 7.335C305.745 7.19767 305.657 7.036 305.592 6.85C305.527 6.66 305.48 6.45 305.452 6.22C305.425 5.98867 305.412 5.744 305.412 5.486H306.507C306.507 5.706 306.514 5.916 306.527 6.116C306.54 6.312 306.575 6.472 306.631 6.596C306.686 6.71667 306.772 6.777 306.889 6.777C307.006 6.777 307.092 6.73033 307.147 6.637C307.206 6.541 307.244 6.421 307.261 6.277C307.281 6.12833 307.291 5.975 307.291 5.817C307.291 5.40367 307.262 5.08833 307.204 4.871C307.149 4.651 307.049 4.496 306.904 4.406C306.763 4.31667 306.562 4.26333 306.3 4.246V3.316C306.562 3.30267 306.757 3.25467 306.884 3.172C307.011 3.08933 307.095 2.95333 307.137 2.764C307.178 2.57067 307.199 2.30367 307.199 1.963C307.199 1.79433 307.192 1.636 307.179 1.488C307.168 1.336 307.139 1.21367 307.09 1.121C307.042 1.02767 306.961 0.981 306.848 0.981C306.741 0.981 306.66 1.043 306.605 1.167C306.55 1.28767 306.512 1.44633 306.491 1.643C306.474 1.839 306.465 2.049 306.465 2.273H305.37C305.37 1.94233 305.392 1.639 305.437 1.363C305.482 1.08433 305.559 0.843667 305.67 0.641C305.78 0.437667 305.93 0.281 306.12 0.171C306.312 0.057 306.554 0 306.847 0C307.082 0 307.288 0.0446667 307.467 0.134C307.65 0.220667 307.801 0.341333 307.922 0.496C308.046 0.650667 308.139 0.829667 308.201 1.033C308.263 1.23633 308.294 1.45333 308.294 1.684C308.294 2.02867 308.27 2.34033 308.222 2.619C308.173 2.89433 308.101 3.12833 308.005 3.321C307.912 3.511 307.791 3.65433 307.643 3.751C307.888 3.93633 308.072 4.203 308.196 4.551C308.323 4.899 308.386 5.29333 308.386 5.734C308.386 6.082 308.329 6.41067 308.216 6.72C308.106 7.02667 307.941 7.27667 307.721 7.47C307.5 7.66267 307.223 7.759 306.889 7.759Z" fill="#689F63"/>
</g>
<path d="M79.832 117.128C79.4693 117.128 79.1547 117.072 78.888 116.96C78.6267 116.843 78.408 116.68 78.232 116.472C78.0613 116.259 77.9253 116.008 77.824 115.72C77.7227 115.427 77.6507 115.101 77.608 114.744C77.5653 114.387 77.544 114.008 77.544 113.608H79.24C79.24 113.949 79.2507 114.275 79.272 114.584C79.2933 114.888 79.3467 115.136 79.432 115.328C79.5173 115.515 79.6507 115.608 79.832 115.608C80.0133 115.608 80.1467 115.536 80.232 115.392C80.3227 115.243 80.3813 115.056 80.408 114.832C80.44 114.603 80.456 114.365 80.456 114.12C80.456 113.48 80.4107 112.992 80.32 112.656C80.2347 112.315 80.08 112.075 79.856 111.936C79.6373 111.797 79.3253 111.715 78.92 111.688V110.248C79.3253 110.227 79.6267 110.152 79.824 110.024C80.0213 109.896 80.152 109.685 80.216 109.392C80.28 109.093 80.312 108.68 80.312 108.152C80.312 107.891 80.3013 107.645 80.28 107.416C80.264 107.181 80.2187 106.992 80.144 106.848C80.0693 106.704 79.944 106.632 79.768 106.632C79.6027 106.632 79.4773 106.728 79.392 106.92C79.3067 107.107 79.248 107.352 79.216 107.656C79.1893 107.96 79.176 108.285 79.176 108.632H77.48C77.48 108.12 77.5147 107.651 77.584 107.224C77.6533 106.792 77.7733 106.419 77.944 106.104C78.1147 105.789 78.3467 105.547 78.64 105.376C78.9387 105.2 79.3147 105.112 79.768 105.112C80.1307 105.112 80.4507 105.181 80.728 105.32C81.0107 105.453 81.2453 105.64 81.432 105.88C81.624 106.12 81.768 106.397 81.864 106.712C81.96 107.027 82.008 107.363 82.008 107.72C82.008 108.253 81.9707 108.736 81.896 109.168C81.8213 109.595 81.7093 109.957 81.56 110.256C81.416 110.549 81.2293 110.771 81 110.92C81.3787 111.208 81.664 111.621 81.856 112.16C82.0533 112.699 82.152 113.309 82.152 113.992C82.152 114.531 82.064 115.04 81.888 115.52C81.7173 115.995 81.4613 116.381 81.12 116.68C80.7787 116.979 80.3493 117.128 79.832 117.128Z" fill="white"/>
<path d="M85.457 117.128C84.9663 117.128 84.5477 117.016 84.201 116.792C83.8597 116.568 83.5983 116.264 83.417 115.88C83.241 115.491 83.153 115.059 83.153 114.584V107.656C83.153 107.176 83.2437 106.744 83.425 106.36C83.6117 105.976 83.8783 105.672 84.225 105.448C84.5717 105.224 84.9823 105.112 85.457 105.112C85.937 105.112 86.3477 105.227 86.689 105.456C87.0357 105.68 87.2997 105.984 87.481 106.368C87.6677 106.752 87.761 107.181 87.761 107.656V114.584C87.761 115.059 87.6677 115.491 87.481 115.88C87.2943 116.264 87.0277 116.568 86.681 116.792C86.3397 117.016 85.9317 117.128 85.457 117.128ZM85.457 115.448C85.6597 115.448 85.8063 115.363 85.897 115.192C85.9877 115.016 86.033 114.813 86.033 114.584V107.656C86.033 107.421 85.9877 107.219 85.897 107.048C85.8063 106.877 85.6597 106.792 85.457 106.792C85.2543 106.792 85.1077 106.883 85.017 107.064C84.9263 107.24 84.881 107.437 84.881 107.656V114.584C84.881 114.813 84.9263 115.016 85.017 115.192C85.1077 115.363 85.2543 115.448 85.457 115.448Z" fill="white"/>
<path d="M89.9325 112.077C89.6285 112.077 89.3965 112.01 89.2365 111.875C89.0765 111.741 88.9661 111.549 88.9053 111.299C88.8477 111.05 88.8189 110.752 88.8189 110.406V107.622H88.3293V106.749H88.8189V105.453H89.7885V106.749H90.4557V107.622H89.7885V110.546C89.7885 110.75 89.8189 110.902 89.8797 111.002C89.9405 111.098 90.0397 111.146 90.1773 111.146C90.2381 111.146 90.2909 111.141 90.3357 111.131C90.3837 111.122 90.4221 111.11 90.4509 111.098V111.986C90.3869 112.011 90.3165 112.032 90.2397 112.048C90.1661 112.067 90.0637 112.077 89.9325 112.077Z" fill="white"/>
<path d="M91.0311 112V104.944H92.0007V107.109C92.0839 107.022 92.2071 106.928 92.3703 106.826C92.5335 106.723 92.6887 106.672 92.8359 106.672C92.9959 106.672 93.1303 106.718 93.2391 106.811C93.3479 106.904 93.4295 107.029 93.4839 107.186C93.5383 107.339 93.5655 107.51 93.5655 107.699V112H92.5959V107.901C92.5959 107.805 92.5735 107.728 92.5287 107.67C92.4871 107.61 92.4375 107.579 92.3799 107.579C92.3127 107.579 92.2327 107.618 92.1399 107.694C92.0471 107.768 92.0007 107.851 92.0007 107.944V112H91.0311Z" fill="white"/>
<path d="M99.2866 117.128C98.812 117.128 98.4173 117.051 98.1026 116.896C97.788 116.736 97.54 116.507 97.3586 116.208C97.1773 115.909 97.0466 115.549 96.9666 115.128C96.892 114.707 96.8546 114.232 96.8546 113.704L98.5506 113.544C98.5506 113.8 98.5586 114.048 98.5746 114.288C98.596 114.523 98.6306 114.736 98.6786 114.928C98.732 115.115 98.8066 115.264 98.9026 115.376C99.004 115.488 99.132 115.544 99.2866 115.544C99.5426 115.544 99.724 115.427 99.8306 115.192C99.9373 114.952 99.9906 114.664 99.9906 114.328C99.9906 113.992 99.9026 113.643 99.7266 113.28C99.5506 112.917 99.34 112.573 99.0946 112.248C98.6786 111.693 98.3133 111.179 97.9986 110.704C97.6893 110.229 97.4466 109.763 97.2706 109.304C97.1 108.845 97.0146 108.365 97.0146 107.864C97.0146 107.469 97.0653 107.107 97.1666 106.776C97.268 106.44 97.4146 106.149 97.6066 105.904C97.804 105.653 98.0413 105.459 98.3186 105.32C98.596 105.181 98.9133 105.112 99.2706 105.112C99.7133 105.112 100.087 105.187 100.391 105.336C100.7 105.485 100.948 105.699 101.135 105.976C101.327 106.253 101.465 106.584 101.551 106.968C101.641 107.347 101.687 107.768 101.687 108.232L99.9906 108.392C99.9906 108.195 99.98 107.997 99.9586 107.8C99.9426 107.597 99.9106 107.413 99.8626 107.248C99.8146 107.083 99.7453 106.949 99.6546 106.848C99.564 106.747 99.4466 106.696 99.3026 106.696C99.0786 106.696 98.924 106.792 98.8386 106.984C98.7533 107.171 98.7106 107.437 98.7106 107.784C98.7106 108.232 98.8306 108.664 99.0706 109.08C99.3106 109.496 99.6333 109.981 100.039 110.536C100.524 111.192 100.919 111.795 101.223 112.344C101.532 112.893 101.687 113.501 101.687 114.168C101.687 114.589 101.641 114.981 101.551 115.344C101.46 115.701 101.316 116.013 101.119 116.28C100.927 116.547 100.679 116.755 100.375 116.904C100.076 117.053 99.7133 117.128 99.2866 117.128Z" fill="white"/>
<path d="M104.373 117.128C103.728 117.128 103.218 116.907 102.845 116.464C102.477 116.016 102.293 115.469 102.293 114.824V110.424C102.293 109.741 102.477 109.187 102.845 108.76C103.213 108.333 103.728 108.12 104.389 108.12C104.821 108.12 105.192 108.219 105.501 108.416C105.816 108.613 106.056 108.883 106.221 109.224C106.386 109.56 106.469 109.944 106.469 110.376V112.92H103.797V114.824C103.797 115.043 103.845 115.245 103.941 115.432C104.042 115.613 104.192 115.704 104.389 115.704C104.597 115.704 104.744 115.619 104.829 115.448C104.92 115.277 104.965 115.069 104.965 114.824V113.864H106.469V114.872C106.469 115.549 106.285 116.096 105.917 116.512C105.554 116.923 105.04 117.128 104.373 117.128ZM103.797 111.656H104.965V110.424C104.965 110.184 104.922 109.976 104.837 109.8C104.757 109.619 104.608 109.528 104.389 109.528C104.186 109.528 104.037 109.621 103.941 109.808C103.845 109.989 103.797 110.195 103.797 110.424V111.656Z" fill="white"/>
<path d="M107.154 120.008V108.248H108.77V108.824C108.973 108.632 109.186 108.467 109.41 108.328C109.634 108.189 109.847 108.12 110.05 108.12C110.327 108.12 110.557 108.205 110.738 108.376C110.925 108.541 111.063 108.755 111.154 109.016C111.25 109.277 111.298 109.549 111.298 109.832V115.416C111.298 115.699 111.25 115.973 111.154 116.24C111.058 116.501 110.917 116.715 110.73 116.88C110.543 117.045 110.317 117.128 110.05 117.128C109.826 117.128 109.607 117.059 109.394 116.92C109.181 116.776 108.973 116.611 108.77 116.424V120.008H107.154ZM109.33 115.608C109.453 115.608 109.541 115.571 109.594 115.496C109.653 115.421 109.682 115.309 109.682 115.16V110.248C109.682 110.045 109.653 109.893 109.594 109.792C109.541 109.691 109.453 109.64 109.33 109.64C109.213 109.64 109.09 109.691 108.962 109.792C108.834 109.888 108.77 110.013 108.77 110.168V115.08C108.77 115.208 108.834 115.328 108.962 115.44C109.09 115.552 109.213 115.608 109.33 115.608Z" fill="white"/>
<path d="M114.272 117.128C113.765 117.128 113.378 117.016 113.112 116.792C112.845 116.568 112.661 116.248 112.56 115.832C112.464 115.416 112.416 114.92 112.416 114.344V109.704H111.6V108.248H112.416V106.088H114.032V108.248H115.144V109.704H114.032V114.576C114.032 114.917 114.082 115.171 114.184 115.336C114.285 115.496 114.45 115.576 114.68 115.576C114.781 115.576 114.869 115.568 114.944 115.552C115.024 115.536 115.088 115.517 115.136 115.496V116.976C115.029 117.019 114.912 117.053 114.784 117.08C114.661 117.112 114.49 117.128 114.272 117.128Z" fill="white"/>
<path d="M117.623 117.128C116.978 117.128 116.468 116.907 116.095 116.464C115.727 116.016 115.543 115.469 115.543 114.824V110.424C115.543 109.741 115.727 109.187 116.095 108.76C116.463 108.333 116.978 108.12 117.639 108.12C118.071 108.12 118.442 108.219 118.751 108.416C119.066 108.613 119.306 108.883 119.471 109.224C119.636 109.56 119.719 109.944 119.719 110.376V112.92H117.047V114.824C117.047 115.043 117.095 115.245 117.191 115.432C117.292 115.613 117.442 115.704 117.639 115.704C117.847 115.704 117.994 115.619 118.079 115.448C118.17 115.277 118.215 115.069 118.215 114.824V113.864H119.719V114.872C119.719 115.549 119.535 116.096 119.167 116.512C118.804 116.923 118.29 117.128 117.623 117.128ZM117.047 111.656H118.215V110.424C118.215 110.184 118.172 109.976 118.087 109.8C118.007 109.619 117.858 109.528 117.639 109.528C117.436 109.528 117.287 109.621 117.191 109.808C117.095 109.989 117.047 110.195 117.047 110.424V111.656Z" fill="white"/>
<path d="M120.404 117V108.248H122.02V108.984C122.281 108.744 122.519 108.541 122.732 108.376C122.951 108.205 123.161 108.12 123.364 108.12C123.652 108.12 123.884 108.219 124.06 108.416C124.236 108.613 124.367 108.84 124.452 109.096C124.681 108.861 124.919 108.64 125.164 108.432C125.415 108.224 125.668 108.12 125.924 108.12C126.191 108.12 126.415 108.205 126.596 108.376C126.777 108.547 126.913 108.763 127.004 109.024C127.095 109.285 127.14 109.555 127.14 109.832V117H125.62V110.152C125.62 109.981 125.577 109.861 125.492 109.792C125.412 109.723 125.311 109.688 125.188 109.688C125.065 109.688 124.948 109.736 124.836 109.832C124.724 109.923 124.639 110.013 124.58 110.104V117H123.06V110.152C123.06 109.981 123.017 109.861 122.932 109.792C122.852 109.723 122.751 109.688 122.628 109.688C122.505 109.688 122.388 109.736 122.276 109.832C122.164 109.923 122.079 110.013 122.02 110.104V117H120.404Z" fill="white"/>
<path d="M130.831 117.128C130.607 117.128 130.391 117.059 130.183 116.92C129.975 116.776 129.765 116.611 129.551 116.424V117H127.935V105.24H129.551V108.824C129.754 108.632 129.967 108.467 130.191 108.328C130.415 108.189 130.629 108.12 130.831 108.12C131.109 108.12 131.338 108.205 131.519 108.376C131.706 108.541 131.845 108.755 131.935 109.016C132.031 109.277 132.079 109.549 132.079 109.832V115.416C132.079 115.699 132.031 115.973 131.935 116.24C131.839 116.501 131.698 116.715 131.511 116.88C131.325 117.045 131.098 117.128 130.831 117.128ZM130.063 115.608C130.186 115.608 130.282 115.557 130.351 115.456C130.426 115.355 130.463 115.229 130.463 115.08V110.168C130.463 110.013 130.426 109.888 130.351 109.792C130.282 109.691 130.186 109.64 130.063 109.64C129.946 109.64 129.831 109.696 129.719 109.808C129.607 109.92 129.551 110.04 129.551 110.168V115.08C129.551 115.229 129.607 115.355 129.719 115.456C129.831 115.557 129.946 115.608 130.063 115.608Z" fill="white"/>
<path d="M134.795 117.128C134.149 117.128 133.64 116.907 133.267 116.464C132.899 116.016 132.715 115.469 132.715 114.824V110.424C132.715 109.741 132.899 109.187 133.267 108.76C133.635 108.333 134.149 108.12 134.811 108.12C135.243 108.12 135.613 108.219 135.923 108.416C136.237 108.613 136.477 108.883 136.643 109.224C136.808 109.56 136.891 109.944 136.891 110.376V112.92H134.219V114.824C134.219 115.043 134.267 115.245 134.363 115.432C134.464 115.613 134.613 115.704 134.811 115.704C135.019 115.704 135.165 115.619 135.251 115.448C135.341 115.277 135.387 115.069 135.387 114.824V113.864H136.891V114.872C136.891 115.549 136.707 116.096 136.339 116.512C135.976 116.923 135.461 117.128 134.795 117.128ZM134.219 111.656H135.387V110.424C135.387 110.184 135.344 109.976 135.259 109.8C135.179 109.619 135.029 109.528 134.811 109.528C134.608 109.528 134.459 109.621 134.363 109.808C134.267 109.989 134.219 110.195 134.219 110.424V111.656Z" fill="white"/>
<path d="M137.576 117V108.248H139.192V109.224C139.224 109.011 139.323 108.821 139.488 108.656C139.653 108.491 139.853 108.36 140.088 108.264C140.328 108.168 140.568 108.12 140.808 108.12V109.912C140.739 109.885 140.664 109.869 140.584 109.864C140.509 109.853 140.435 109.848 140.36 109.848C140.008 109.848 139.725 109.944 139.512 110.136C139.299 110.328 139.192 110.589 139.192 110.92V117H137.576Z" fill="white"/>
<path d="M144.002 117V115.288C144.37 114.723 144.727 114.128 145.074 113.504C145.42 112.88 145.732 112.253 146.01 111.624C146.292 110.989 146.516 110.376 146.682 109.784C146.847 109.192 146.93 108.648 146.93 108.152C146.93 107.8 146.895 107.472 146.826 107.168C146.756 106.864 146.599 106.712 146.354 106.712C146.108 106.712 145.951 106.864 145.882 107.168C145.812 107.467 145.778 107.795 145.778 108.152V108.968H144.05V108.152C144.05 107.683 144.09 107.261 144.17 106.888C144.255 106.509 144.388 106.189 144.57 105.928C144.751 105.661 144.988 105.459 145.282 105.32C145.575 105.181 145.932 105.112 146.354 105.112C146.775 105.112 147.132 105.181 147.426 105.32C147.719 105.459 147.956 105.656 148.138 105.912C148.319 106.168 148.45 106.477 148.53 106.84C148.615 107.197 148.658 107.597 148.658 108.04C148.658 108.568 148.578 109.139 148.418 109.752C148.263 110.36 148.055 110.987 147.794 111.632C147.538 112.272 147.25 112.904 146.93 113.528C146.61 114.147 146.284 114.733 145.954 115.288H148.69V117H144.002Z" fill="white"/>
<path d="M152.086 117.128C151.595 117.128 151.177 117.016 150.83 116.792C150.489 116.568 150.227 116.264 150.046 115.88C149.87 115.491 149.782 115.059 149.782 114.584V107.656C149.782 107.176 149.873 106.744 150.054 106.36C150.241 105.976 150.507 105.672 150.854 105.448C151.201 105.224 151.611 105.112 152.086 105.112C152.566 105.112 152.977 105.227 153.318 105.456C153.665 105.68 153.929 105.984 154.11 106.368C154.297 106.752 154.39 107.181 154.39 107.656V114.584C154.39 115.059 154.297 115.491 154.11 115.88C153.923 116.264 153.657 116.568 153.31 116.792C152.969 117.016 152.561 117.128 152.086 117.128ZM152.086 115.448C152.289 115.448 152.435 115.363 152.526 115.192C152.617 115.016 152.662 114.813 152.662 114.584V107.656C152.662 107.421 152.617 107.219 152.526 107.048C152.435 106.877 152.289 106.792 152.086 106.792C151.883 106.792 151.737 106.883 151.646 107.064C151.555 107.24 151.51 107.437 151.51 107.656V114.584C151.51 114.813 151.555 115.016 151.646 115.192C151.737 115.363 151.883 115.448 152.086 115.448Z" fill="white"/>
<path d="M155.47 117V115.288C155.838 114.723 156.196 114.128 156.542 113.504C156.889 112.88 157.201 112.253 157.478 111.624C157.761 110.989 157.985 110.376 158.15 109.784C158.316 109.192 158.398 108.648 158.398 108.152C158.398 107.8 158.364 107.472 158.294 107.168C158.225 106.864 158.068 106.712 157.822 106.712C157.577 106.712 157.42 106.864 157.35 107.168C157.281 107.467 157.246 107.795 157.246 108.152V108.968H155.518V108.152C155.518 107.683 155.558 107.261 155.638 106.888C155.724 106.509 155.857 106.189 156.038 105.928C156.22 105.661 156.457 105.459 156.75 105.32C157.044 105.181 157.401 105.112 157.822 105.112C158.244 105.112 158.601 105.181 158.894 105.32C159.188 105.459 159.425 105.656 159.606 105.912C159.788 106.168 159.918 106.477 159.998 106.84C160.084 107.197 160.126 107.597 160.126 108.04C160.126 108.568 160.046 109.139 159.886 109.752C159.732 110.36 159.524 110.987 159.262 111.632C159.006 112.272 158.718 112.904 158.398 113.528C158.078 114.147 157.753 114.733 157.422 115.288H160.158V117H155.47Z" fill="white"/>
<path d="M163.555 117.128C163.192 117.128 162.878 117.072 162.611 116.96C162.35 116.843 162.131 116.68 161.955 116.472C161.784 116.259 161.648 116.008 161.547 115.72C161.446 115.427 161.374 115.101 161.331 114.744C161.288 114.387 161.267 114.008 161.267 113.608H162.963C162.963 113.949 162.974 114.275 162.995 114.584C163.016 114.888 163.07 115.136 163.155 115.328C163.24 115.515 163.374 115.608 163.555 115.608C163.736 115.608 163.87 115.536 163.955 115.392C164.046 115.243 164.104 115.056 164.131 114.832C164.163 114.603 164.179 114.365 164.179 114.12C164.179 113.48 164.134 112.992 164.043 112.656C163.958 112.315 163.803 112.075 163.579 111.936C163.36 111.797 163.048 111.715 162.643 111.688V110.248C163.048 110.227 163.35 110.152 163.547 110.024C163.744 109.896 163.875 109.685 163.939 109.392C164.003 109.093 164.035 108.68 164.035 108.152C164.035 107.891 164.024 107.645 164.003 107.416C163.987 107.181 163.942 106.992 163.867 106.848C163.792 106.704 163.667 106.632 163.491 106.632C163.326 106.632 163.2 106.728 163.115 106.92C163.03 107.107 162.971 107.352 162.939 107.656C162.912 107.96 162.899 108.285 162.899 108.632H161.203C161.203 108.12 161.238 107.651 161.307 107.224C161.376 106.792 161.496 106.419 161.667 106.104C161.838 105.789 162.07 105.547 162.363 105.376C162.662 105.2 163.038 105.112 163.491 105.112C163.854 105.112 164.174 105.181 164.451 105.32C164.734 105.453 164.968 105.64 165.155 105.88C165.347 106.12 165.491 106.397 165.587 106.712C165.683 107.027 165.731 107.363 165.731 107.72C165.731 108.253 165.694 108.736 165.619 109.168C165.544 109.595 165.432 109.957 165.283 110.256C165.139 110.549 164.952 110.771 164.723 110.92C165.102 111.208 165.387 111.621 165.579 112.16C165.776 112.699 165.875 113.309 165.875 113.992C165.875 114.531 165.787 115.04 165.611 115.52C165.44 115.995 165.184 116.381 164.843 116.68C164.502 116.979 164.072 117.128 163.555 117.128Z" fill="white"/>
<path d="M169.393 113.448V111.928H171.713V113.448H169.393Z" fill="white"/>
<path d="M175.394 117V105.24H177.154C177.751 105.24 178.266 105.347 178.698 105.56C179.135 105.768 179.471 106.096 179.706 106.544C179.946 106.992 180.066 107.571 180.066 108.28C180.066 108.845 179.991 109.339 179.842 109.76C179.698 110.181 179.415 110.525 178.994 110.792C179.421 111.027 179.727 111.4 179.914 111.912C180.101 112.419 180.194 113.005 180.194 113.672C180.194 114.328 180.087 114.907 179.874 115.408C179.666 115.909 179.357 116.301 178.946 116.584C178.541 116.861 178.039 117 177.442 117H175.394ZM177.122 115.288C177.645 115.288 177.989 115.133 178.154 114.824C178.319 114.509 178.402 114.061 178.402 113.48C178.402 112.888 178.319 112.44 178.154 112.136C177.989 111.827 177.645 111.672 177.122 111.672V115.288ZM177.122 110.088C177.607 110.088 177.941 109.955 178.122 109.688C178.309 109.421 178.402 109.027 178.402 108.504C178.402 107.976 178.306 107.587 178.114 107.336C177.927 107.08 177.597 106.952 177.122 106.952V110.088Z" fill="white"/>
<path d="M180.982 117V108.248H182.598V109.224C182.63 109.011 182.729 108.821 182.894 108.656C183.06 108.491 183.26 108.36 183.494 108.264C183.734 108.168 183.974 108.12 184.214 108.12V109.912C184.145 109.885 184.07 109.869 183.99 109.864C183.916 109.853 183.841 109.848 183.766 109.848C183.414 109.848 183.132 109.944 182.918 110.136C182.705 110.328 182.598 110.589 182.598 110.92V117H180.982Z" fill="white"/>
<path d="M186.717 117.128C186.071 117.128 185.562 116.907 185.189 116.464C184.821 116.016 184.637 115.469 184.637 114.824V110.424C184.637 109.741 184.821 109.187 185.189 108.76C185.557 108.333 186.071 108.12 186.733 108.12C187.165 108.12 187.535 108.219 187.845 108.416C188.159 108.613 188.399 108.883 188.565 109.224C188.73 109.56 188.813 109.944 188.813 110.376V112.92H186.141V114.824C186.141 115.043 186.189 115.245 186.285 115.432C186.386 115.613 186.535 115.704 186.733 115.704C186.941 115.704 187.087 115.619 187.173 115.448C187.263 115.277 187.309 115.069 187.309 114.824V113.864H188.813V114.872C188.813 115.549 188.629 116.096 188.261 116.512C187.898 116.923 187.383 117.128 186.717 117.128ZM186.141 111.656H187.309V110.424C187.309 110.184 187.266 109.976 187.181 109.8C187.101 109.619 186.951 109.528 186.733 109.528C186.53 109.528 186.381 109.621 186.285 109.808C186.189 109.989 186.141 110.195 186.141 110.424V111.656Z" fill="white"/>
<path d="M191.563 117.128C191.184 117.128 190.853 117.064 190.571 116.936C190.288 116.808 190.053 116.627 189.867 116.392C189.68 116.152 189.539 115.869 189.443 115.544C189.352 115.219 189.307 114.856 189.307 114.456H190.811C190.811 114.813 190.867 115.125 190.979 115.392C191.096 115.653 191.291 115.784 191.563 115.784C191.797 115.784 191.949 115.685 192.019 115.488C192.088 115.291 192.123 115.064 192.123 114.808C192.123 114.509 192.005 114.205 191.771 113.896C191.541 113.581 191.301 113.301 191.051 113.056C190.619 112.629 190.259 112.208 189.971 111.792C189.688 111.376 189.547 110.888 189.547 110.328C189.547 109.667 189.72 109.133 190.067 108.728C190.413 108.323 190.907 108.12 191.547 108.12C191.931 108.12 192.253 108.171 192.515 108.272C192.781 108.373 192.995 108.525 193.155 108.728C193.315 108.931 193.429 109.179 193.499 109.472C193.573 109.765 193.611 110.104 193.611 110.488H192.107C192.107 110.211 192.077 109.971 192.019 109.768C191.96 109.565 191.813 109.464 191.579 109.464C191.387 109.464 191.251 109.547 191.171 109.712C191.091 109.872 191.051 110.077 191.051 110.328C191.051 110.621 191.12 110.883 191.259 111.112C191.403 111.336 191.64 111.611 191.971 111.936C192.387 112.341 192.765 112.773 193.107 113.232C193.453 113.691 193.627 114.189 193.627 114.728C193.627 115.08 193.579 115.403 193.483 115.696C193.392 115.989 193.256 116.243 193.075 116.456C192.899 116.669 192.683 116.835 192.427 116.952C192.176 117.069 191.888 117.128 191.563 117.128Z" fill="white"/>
<path d="M196.248 117.12C195.538 117.12 195.016 116.899 194.68 116.456C194.349 116.013 194.184 115.397 194.184 114.608V110.632C194.184 109.837 194.349 109.221 194.68 108.784C195.016 108.341 195.538 108.12 196.248 108.12C196.957 108.12 197.48 108.341 197.816 108.784C198.157 109.227 198.328 109.843 198.328 110.632V111.32H196.712V110.424C196.712 110.179 196.68 109.973 196.616 109.808C196.552 109.643 196.429 109.56 196.248 109.56C196.066 109.56 195.946 109.645 195.888 109.816C195.829 109.981 195.8 110.184 195.8 110.424V114.816C195.8 115.056 195.829 115.261 195.888 115.432C195.946 115.597 196.066 115.68 196.248 115.68C196.429 115.68 196.552 115.597 196.616 115.432C196.68 115.267 196.712 115.061 196.712 114.816V113.92H198.328V114.608C198.328 115.397 198.157 116.013 197.816 116.456C197.48 116.899 196.957 117.12 196.248 117.12Z" fill="white"/>
<path d="M199.125 117V108.248H200.741V117H199.125ZM199.125 106.856V105.24H200.741V106.856H199.125Z" fill="white"/>
<path d="M202.879 117.128C202.506 117.128 202.183 116.939 201.911 116.56C201.639 116.181 201.503 115.603 201.503 114.824C201.503 114.072 201.663 113.467 201.983 113.008C202.308 112.549 202.794 112.152 203.439 111.816C203.642 111.709 203.812 111.613 203.951 111.528C204.09 111.443 204.175 111.363 204.207 111.288V110.328C204.207 110.109 204.18 109.923 204.127 109.768C204.079 109.608 203.956 109.528 203.759 109.528C203.578 109.528 203.455 109.613 203.391 109.784C203.327 109.949 203.295 110.157 203.295 110.408V110.824H201.679V110.456C201.679 109.976 201.772 109.563 201.959 109.216C202.151 108.864 202.41 108.595 202.735 108.408C203.066 108.216 203.439 108.12 203.855 108.12C204.255 108.12 204.602 108.213 204.895 108.4C205.188 108.581 205.415 108.835 205.575 109.16C205.74 109.48 205.823 109.848 205.823 110.264V115.48C205.823 115.869 205.834 116.173 205.855 116.392C205.876 116.605 205.903 116.808 205.935 117H204.351C204.282 116.915 204.239 116.789 204.223 116.624C204.212 116.459 204.207 116.349 204.207 116.296H204.095C203.962 116.541 203.791 116.741 203.583 116.896C203.38 117.051 203.146 117.128 202.879 117.128ZM203.535 115.544C203.722 115.544 203.879 115.48 204.007 115.352C204.14 115.224 204.207 115.085 204.207 114.936V112.856C203.818 113.021 203.532 113.272 203.351 113.608C203.175 113.939 203.087 114.312 203.087 114.728C203.087 114.909 203.122 115.091 203.191 115.272C203.26 115.453 203.375 115.544 203.535 115.544Z" fill="white"/>
<path d="M206.684 119.08L207.244 117H206.684V115.224H208.364V117L207.484 119.08H206.684Z" fill="white"/>
<path d="M211.863 117V105.24H213.591V117H211.863Z" fill="white"/>
<path d="M216.928 117.128C216.421 117.128 216.035 117.016 215.768 116.792C215.501 116.568 215.317 116.248 215.216 115.832C215.12 115.416 215.072 114.92 215.072 114.344V109.704H214.256V108.248H215.072V106.088H216.688V108.248H217.8V109.704H216.688V114.576C216.688 114.917 216.739 115.171 216.84 115.336C216.941 115.496 217.107 115.576 217.336 115.576C217.437 115.576 217.525 115.568 217.6 115.552C217.68 115.536 217.744 115.517 217.792 115.496V116.976C217.685 117.019 217.568 117.053 217.44 117.08C217.317 117.112 217.147 117.128 216.928 117.128Z" fill="white"/>
<path d="M219.535 117.128C219.162 117.128 218.839 116.939 218.567 116.56C218.295 116.181 218.159 115.603 218.159 114.824C218.159 114.072 218.319 113.467 218.639 113.008C218.964 112.549 219.45 112.152 220.095 111.816C220.298 111.709 220.468 111.613 220.607 111.528C220.746 111.443 220.831 111.363 220.863 111.288V110.328C220.863 110.109 220.836 109.923 220.783 109.768C220.735 109.608 220.612 109.528 220.415 109.528C220.234 109.528 220.111 109.613 220.047 109.784C219.983 109.949 219.951 110.157 219.951 110.408V110.824H218.335V110.456C218.335 109.976 218.428 109.563 218.615 109.216C218.807 108.864 219.066 108.595 219.391 108.408C219.722 108.216 220.095 108.12 220.511 108.12C220.911 108.12 221.258 108.213 221.551 108.4C221.844 108.581 222.071 108.835 222.231 109.16C222.396 109.48 222.479 109.848 222.479 110.264V115.48C222.479 115.869 222.49 116.173 222.511 116.392C222.532 116.605 222.559 116.808 222.591 117H221.007C220.938 116.915 220.895 116.789 220.879 116.624C220.868 116.459 220.863 116.349 220.863 116.296H220.751C220.618 116.541 220.447 116.741 220.239 116.896C220.036 117.051 219.802 117.128 219.535 117.128ZM220.191 115.544C220.378 115.544 220.535 115.48 220.663 115.352C220.796 115.224 220.863 115.085 220.863 114.936V112.856C220.474 113.021 220.188 113.272 220.007 113.608C219.831 113.939 219.743 114.312 219.743 114.728C219.743 114.909 219.778 115.091 219.847 115.272C219.916 115.453 220.031 115.544 220.191 115.544Z" fill="white"/>
<path d="M223.469 117V105.24H225.085V117H223.469Z" fill="white"/>
<path d="M226.279 120.136C226.209 120.136 226.127 120.133 226.031 120.128C225.935 120.123 225.841 120.112 225.751 120.096V118.664C225.767 118.669 225.809 118.675 225.879 118.68C225.948 118.691 225.993 118.696 226.015 118.696C226.313 118.696 226.553 118.616 226.735 118.456C226.921 118.296 227.052 118.083 227.127 117.816C227.153 117.736 227.167 117.643 227.167 117.536C227.172 117.429 227.175 117.336 227.175 117.256L225.687 108.248H227.271L227.911 113.704L227.943 114.312H228.007L228.039 113.704L228.679 108.248H230.263L228.711 117.656C228.652 118.125 228.519 118.547 228.311 118.92C228.108 119.299 227.836 119.595 227.495 119.808C227.153 120.027 226.748 120.136 226.279 120.136Z" fill="white"/>
<defs>
<clipPath id="clip0_5_3">
<rect width="308.387" height="85.582" fill="white"/>
</clipPath>
</defs>
</svg>
