<?xml version="1.0" encoding="utf-8"?>
<!-- Generator: Adobe Illustrator 26.3.1, SVG Export Plug-In . SVG Version: 6.00 Build 0)  -->
<svg version="1.1" id="Livello_1" xmlns="http://www.w3.org/2000/svg" xmlns:xlink="http://www.w3.org/1999/xlink" x="0px" y="0px"
	 viewBox="0 0 408 126" style="enable-background:new 0 0 408 126;" xml:space="preserve">
<style type="text/css">
	.st0{fill:#FFFFFF;}
	.st1{fill:none;stroke:#000000;stroke-miterlimit:10;}
</style>
<rect x="-0.5" y="-0.5" class="st0" width="409" height="126"/>
<g>
	<path d="M104,82.6L77.3,68.7V64L104,50.1v5.8L83.6,66.4L104,76.8V82.6z"/>
	<path d="M125.6,87.7l-7.2-53.1h7.2l3.1,27.6l0.1,1.7h0.6l0.2-1.7l3.3-27.6h5.6l3.3,27.6l0.2,1.7h0.6l0.1-1.7l3.1-27.6h7.2
		l-7.2,53.1H140l-3.6-25.1l-0.4-3.1h-0.3l-0.4,3.1l-3.6,25.1H125.6z"/>
	<path d="M157.2,87.7V34.7H175v8h-10V57h7.2v7.8H165v15h10v8H157.2z"/>
	<path d="M180.8,87.7V34.7h7.9c2.7,0,5,0.5,7,1.4c2,1,3.5,2.4,4.6,4.5c1.1,2,1.6,4.6,1.6,7.8c0,2.6-0.3,4.8-1,6.7
		c-0.7,1.9-1.9,3.5-3.8,4.7c1.9,1.1,3.3,2.7,4.2,5c0.8,2.3,1.3,5,1.3,8c0,3-0.5,5.6-1.4,7.8c-1,2.3-2.3,4-4.2,5.3
		c-1.8,1.3-4.1,1.9-6.8,1.9H180.8z M188.6,56.5c2.2,0,3.7-0.6,4.5-1.8c0.8-1.2,1.2-3,1.2-5.3c0-2.4-0.4-4.1-1.3-5.3
		c-0.9-1.1-2.4-1.7-4.5-1.7V56.5z M188.6,80c2.4,0,3.9-0.7,4.7-2.1c0.7-1.4,1.1-3.4,1.1-6c0-2.7-0.4-4.7-1.1-6.1
		c-0.7-1.4-2.3-2.1-4.7-2.1V80z"/>
	<path d="M209.9,88.2c-1,0-1.8-0.3-2.4-0.9c-0.7-0.6-1.2-1.4-1.5-2.3s-0.5-1.9-0.5-3V61.9c0-1,0.2-2,0.5-2.9
		c0.3-0.9,0.8-1.7,1.5-2.3c0.7-0.6,1.5-0.9,2.5-0.9c0.7,0,1.5,0.2,2.3,0.7s1.6,1.1,2.3,1.8V45.4h5.8v42.4h-5.8v-2.1
		c-0.8,0.7-1.5,1.3-2.3,1.8C211.4,88,210.7,88.2,209.9,88.2z M212.6,82.7c0.4,0,0.9-0.2,1.3-0.5c0.4-0.4,0.6-0.8,0.6-1.4V63.1
		c0-0.5-0.2-0.9-0.6-1.3c-0.4-0.4-0.8-0.6-1.3-0.6c-0.4,0-0.8,0.2-1,0.5c-0.3,0.4-0.4,0.8-0.4,1.4v17.7c0,0.5,0.1,1,0.4,1.4
		C211.9,82.5,212.2,82.7,212.6,82.7z"/>
	<path d="M231.3,88.2c-2.3,0-4.2-0.8-5.5-2.4c-1.3-1.6-2-3.6-2-5.9V64.1c0-2.5,0.7-4.5,2-6c1.3-1.5,3.2-2.3,5.6-2.3
		c1.6,0,2.9,0.4,4,1.1c1.1,0.7,2,1.7,2.6,2.9c0.6,1.2,0.9,2.6,0.9,4.2v9.2h-9.6v6.9c0,0.8,0.2,1.5,0.5,2.2c0.4,0.7,0.9,1,1.6,1
		c0.7,0,1.3-0.3,1.6-0.9c0.3-0.6,0.5-1.4,0.5-2.2v-3.5h5.4v3.6c0,2.4-0.7,4.4-2,5.9C235.6,87.5,233.7,88.2,231.3,88.2z M229.2,68.5
		h4.2v-4.4c0-0.9-0.1-1.6-0.4-2.3c-0.3-0.6-0.8-1-1.6-1c-0.7,0-1.3,0.3-1.6,1s-0.5,1.4-0.5,2.2V68.5z"/>
	<path d="M242.9,87.7V34.7h7.9c2.7,0,5,0.5,7,1.4c2,1,3.5,2.4,4.6,4.5c1.1,2,1.6,4.6,1.6,7.8c0,2.6-0.3,4.8-1,6.7
		c-0.7,1.9-1.9,3.5-3.8,4.7c1.9,1.1,3.3,2.7,4.2,5c0.8,2.3,1.3,5,1.3,8c0,3-0.5,5.6-1.4,7.8c-1,2.3-2.3,4-4.2,5.3
		c-1.8,1.3-4.1,1.9-6.8,1.9H242.9z M250.7,56.5c2.2,0,3.7-0.6,4.5-1.8c0.8-1.2,1.2-3,1.2-5.3c0-2.4-0.4-4.1-1.3-5.3
		c-0.9-1.1-2.4-1.7-4.5-1.7V56.5z M250.7,80c2.4,0,3.9-0.7,4.7-2.1c0.7-1.4,1.1-3.4,1.1-6c0-2.7-0.4-4.7-1.1-6.1
		c-0.7-1.4-2.3-2.1-4.7-2.1V80z"/>
	<path d="M278.6,88.3c-2.1,0-3.9-0.4-5.3-1.1c-1.4-0.7-2.5-1.7-3.4-3.1c-0.8-1.3-1.4-3-1.8-4.9c-0.3-1.9-0.5-4-0.5-6.4l7.7-0.7
		c0,1.2,0,2.3,0.1,3.3c0.1,1.1,0.2,2,0.5,2.9c0.2,0.9,0.6,1.5,1,2c0.4,0.5,1,0.8,1.7,0.8c1.2,0,2-0.5,2.5-1.6
		c0.5-1.1,0.7-2.4,0.7-3.9c0-1.5-0.4-3.1-1.2-4.7c-0.8-1.6-1.7-3.2-2.9-4.7c-1.9-2.5-3.5-4.8-4.9-7c-1.4-2.1-2.5-4.2-3.3-6.3
		c-0.8-2.1-1.2-4.2-1.2-6.5c0-1.8,0.2-3.4,0.7-4.9c0.5-1.5,1.1-2.8,2-3.9s1.9-2,3.2-2.6c1.3-0.6,2.7-0.9,4.3-0.9c2,0,3.7,0.3,5.1,1
		c1.4,0.7,2.5,1.6,3.4,2.9c0.9,1.3,1.5,2.7,1.9,4.5c0.4,1.7,0.6,3.6,0.6,5.7l-7.7,0.7c0-0.9,0-1.8-0.1-2.7c-0.1-0.9-0.2-1.7-0.5-2.5
		c-0.2-0.7-0.5-1.3-0.9-1.8c-0.4-0.5-0.9-0.7-1.6-0.7c-1,0-1.7,0.4-2.1,1.3c-0.4,0.9-0.6,2.1-0.6,3.6c0,2,0.5,4,1.6,5.9
		s2.5,4.1,4.4,6.6c2.2,3,4,5.7,5.4,8.2c1.4,2.5,2.1,5.2,2.1,8.2c0,1.9-0.2,3.7-0.6,5.3c-0.4,1.6-1.1,3-1.9,4.2
		c-0.9,1.2-2,2.1-3.4,2.8C282.1,88,280.5,88.3,278.6,88.3z"/>
	<path d="M304,82.6v-5.8l20.5-10.4L304,55.9v-5.8L330.7,64v4.7L304,82.6z"/>
</g>
<rect x="0" y="13.7" class="st1" width="408" height="95"/>
</svg>
